<svg width="38" height="38" viewBox="0 0 38 38" fill="none" xmlns="http://www.w3.org/2000/svg">
<g clip-path="url(#clip0_360_556)">
<path d="M4.15625 11.875H2.96875C2.96875 13.512 4.30053 14.8438 5.9375 14.8438V13.6562C4.95544 13.6562 4.15625 12.8571 4.15625 11.875Z" fill="#0E59F2"/>
<path d="M8.85638 6.88691L9.94413 7.3625C10.7956 5.415 12.7187 4.15625 14.8438 4.15625C15.5871 4.15625 16.3062 4.30588 16.9813 4.60097L17.4563 3.51262C16.6309 3.15162 15.7516 2.96875 14.8438 2.96875C12.2467 2.96875 9.89604 4.50656 8.85638 6.88691Z" fill="#0E59F2"/>
<path d="M36.04 25.9095C35.8583 25.8632 35.7058 25.7313 35.628 25.5431C35.5532 25.3656 35.5662 25.1625 35.6701 24.988C36.0899 24.282 35.9777 23.3825 35.3964 22.8012L34.1982 21.603C33.6169 21.0217 32.7186 20.9101 31.9996 21.3364C31.8375 21.4338 31.6326 21.4463 31.4438 21.3667C31.2681 21.2937 31.1357 21.1411 31.0858 20.9457C30.8839 20.1501 30.169 19.5938 29.3473 19.5938H27.6527C26.831 19.5938 26.1161 20.1501 25.9095 20.96C25.8632 21.1417 25.7308 21.2942 25.5437 21.372C25.3668 21.4468 25.1613 21.4338 24.9874 21.3299C24.282 20.9095 23.3819 21.0217 22.8006 21.603L21.6024 22.8012C21.0211 23.3825 20.9089 24.2814 21.3358 24.9998C21.4326 25.1625 21.4463 25.3656 21.3661 25.5562C21.2931 25.7313 21.1405 25.8638 20.9457 25.9136C20.1501 26.1155 19.5938 26.831 19.5938 27.6527V29.3473C19.5938 30.169 20.1501 30.8839 20.96 31.0905C21.1422 31.1368 21.2942 31.2692 21.372 31.4569C21.4468 31.6344 21.4338 31.8375 21.3299 32.012C20.9101 32.718 21.0223 33.6175 21.6036 34.1988L22.8018 35.397C23.3837 35.9783 24.282 36.0905 25.0004 35.6636C25.1619 35.5662 25.3668 35.5538 25.5562 35.6333C25.7319 35.7063 25.8643 35.8589 25.9142 36.0543C26.1161 36.8499 26.831 37.4062 27.6527 37.4062H29.3473C30.169 37.4062 30.8839 36.8499 31.0905 36.04C31.1368 35.8583 31.2692 35.7058 31.4563 35.628C31.6338 35.5532 31.8381 35.5662 32.0126 35.6701C32.718 36.0905 33.6181 35.9777 34.1994 35.397L35.3976 34.1988C35.9789 33.6175 36.0911 32.7186 35.6642 32.0002C35.5674 31.8375 35.5538 31.6344 35.6333 31.4444C35.7063 31.2687 35.8589 31.1362 36.0543 31.0864C36.8499 30.8845 37.4062 30.169 37.4062 29.3473V27.6527C37.4062 26.831 36.8499 26.1155 36.04 25.9095ZM36.2188 29.3473C36.2188 29.6252 36.0305 29.8674 35.7479 29.9392C35.2064 30.0764 34.7534 30.4683 34.5331 30.9955C34.3128 31.5192 34.3538 32.1213 34.6495 32.6188C34.7914 32.8575 34.7534 33.1621 34.5568 33.3587L33.3587 34.5568C33.1615 34.7546 32.8563 34.7914 32.607 34.6423C32.1219 34.3538 31.5198 34.3122 30.986 34.5367C30.4683 34.7528 30.077 35.2058 29.9357 35.7604C29.8674 36.0305 29.6252 36.2188 29.3473 36.2188H27.6527C27.3748 36.2188 27.1326 36.0305 27.0602 35.7479C26.923 35.2058 26.5311 34.7534 26.0033 34.5325C25.7818 34.4399 25.5455 34.3936 25.3104 34.3936C24.9892 34.3936 24.6673 34.4797 24.3817 34.6501C24.1425 34.792 23.8385 34.7546 23.6413 34.5574L22.4432 33.3592C22.2466 33.1621 22.208 32.8581 22.3571 32.6076C22.6456 32.1225 22.6872 31.5198 22.4633 30.9872C22.2466 30.4689 21.7936 30.0776 21.2384 29.9363C20.9695 29.8674 20.7812 29.6257 20.7812 29.3473V27.6527C20.7812 27.3748 20.9695 27.1326 21.2521 27.0608C21.7942 26.923 22.2472 26.5311 22.4669 26.0045C22.6872 25.4808 22.6462 24.8787 22.3505 24.3812C22.2086 24.1425 22.2466 23.8379 22.4432 23.6413L23.6413 22.4432C23.8391 22.2466 24.1442 22.2098 24.393 22.3577C24.8781 22.6468 25.4802 22.6872 26.014 22.4633C26.5317 22.2472 26.923 21.7942 27.0643 21.2396C27.1326 20.9695 27.3748 20.7812 27.6527 20.7812H29.3473C29.6252 20.7812 29.8674 20.9695 29.9398 21.2521C30.077 21.7942 30.4689 22.2466 30.9967 22.4675C31.5204 22.6866 32.1231 22.6456 32.6183 22.3505C32.8581 22.2086 33.1627 22.2472 33.3587 22.4432L34.5568 23.6413C34.7534 23.8385 34.792 24.1425 34.6429 24.393C34.3544 24.8781 34.3128 25.4808 34.5372 26.0134C34.7528 26.5317 35.2058 26.9236 35.7616 27.0649C36.0305 27.1326 36.2188 27.3743 36.2188 27.6527V29.3473Z" fill="#0E59F2"/>
<path d="M28.5 23.1562C25.5532 23.1562 23.1562 25.5538 23.1562 28.5C23.1562 31.4462 25.5532 33.8438 28.5 33.8438C31.4468 33.8438 33.8438 31.4462 33.8438 28.5C33.8438 25.5538 31.4468 23.1562 28.5 23.1562ZM28.5 32.6562C26.2087 32.6562 24.3438 30.7919 24.3438 28.5C24.3438 26.2081 26.2087 24.3438 28.5 24.3438C30.7913 24.3438 32.6562 26.2081 32.6562 28.5C32.6562 30.7919 30.7913 32.6562 28.5 32.6562Z" fill="#0E59F2"/>
<path d="M28.5 25.5312C26.863 25.5312 25.5312 26.863 25.5312 28.5C25.5312 30.137 26.863 31.4688 28.5 31.4688C30.137 31.4688 31.4688 30.137 31.4688 28.5C31.4688 26.863 30.137 25.5312 28.5 25.5312ZM28.5 30.2812C27.5179 30.2812 26.7188 29.4821 26.7188 28.5C26.7188 27.5179 27.5179 26.7188 28.5 26.7188C29.4821 26.7188 30.2812 27.5179 30.2812 28.5C30.2812 29.4821 29.4821 30.2812 28.5 30.2812Z" fill="#0E59F2"/>
<path d="M14.8438 8.90625H19.5938V10.0938H14.8438V8.90625Z" fill="#0E59F2"/>
<path d="M14.8438 11.2812H19.5938V12.4688H14.8438V11.2812Z" fill="#0E59F2"/>
<path d="M14.8438 13.6562H19.5938V14.8438H14.8438V13.6562Z" fill="#0E59F2"/>
<path d="M14.8438 16.0312H19.5938V17.2188H14.8438V16.0312Z" fill="#0E59F2"/>
<path d="M10.0938 18.4062H0.59375V31.4688H10.0938V27.9062H18.4062V26.7188H10.0938V18.4062ZM8.90625 30.2812H1.78125V19.5938H8.90625V30.2812Z" fill="#0E59F2"/>
<path d="M2.96875 20.7812H7.71875V21.9688H2.96875V20.7812Z" fill="#0E59F2"/>
<path d="M2.96875 23.1562H7.71875V24.3438H2.96875V23.1562Z" fill="#0E59F2"/>
<path d="M2.96875 25.5312H7.71875V26.7188H2.96875V25.5312Z" fill="#0E59F2"/>
<path d="M2.96875 27.9062H7.71875V29.0938H2.96875V27.9062Z" fill="#0E59F2"/>
<path d="M14.25 32.7406C13.2282 33.006 12.4688 33.9281 12.4688 35.0312C12.4688 36.3411 13.5339 37.4062 14.8438 37.4062C16.1536 37.4062 17.2188 36.3411 17.2188 35.0312C17.2188 33.9281 16.4593 33.006 15.4375 32.7406V30.2812H18.4062V29.0938H14.25V32.7406ZM16.0312 35.0312C16.0312 35.6862 15.4987 36.2188 14.8438 36.2188C14.1888 36.2188 13.6562 35.6862 13.6562 35.0312C13.6562 34.3763 14.1888 33.8438 14.8438 33.8438C15.4987 33.8438 16.0312 34.3763 16.0312 35.0312Z" fill="#0E59F2"/>
<path d="M16.0312 19.5938H21.9688V17.2188H32.6562C35.2753 17.2188 37.4062 15.0878 37.4062 12.4688C37.4062 9.84972 35.2753 7.71875 32.6562 7.71875C32.3309 7.71875 32.0061 7.75319 31.6849 7.82147C30.7194 4.93584 28.0268 2.96875 24.9375 2.96875C23.7945 2.96875 22.6706 3.24663 21.6558 3.77566C19.9565 1.74681 17.5026 0.59375 14.8438 0.59375C11.0657 0.59375 7.68312 3.02041 6.44397 6.55619C3.28937 6.25516 0.59375 8.76138 0.59375 11.875C0.59375 14.8212 2.99072 17.2188 5.9375 17.2188H12.4688V19.5938H14.8438V25.5312H18.4062V24.3438H16.0312V19.5938ZM12.4688 16.0312H5.9375C3.64622 16.0312 1.78125 14.1669 1.78125 11.875C1.78125 9.31891 4.13487 7.2865 6.74203 7.79831L7.277 7.90281L7.42722 7.37853C8.36891 4.08322 11.4184 1.78125 14.8438 1.78125C17.2995 1.78125 19.554 2.91769 21.03 4.89903L21.356 5.33603L21.8191 5.04925C22.7608 4.465 23.8391 4.15625 24.9375 4.15625C27.683 4.15625 30.0533 6.02122 30.701 8.69131L30.856 9.329L31.4753 9.11109C31.8624 8.97513 32.2596 8.90625 32.6562 8.90625C34.621 8.90625 36.2188 10.504 36.2188 12.4688C36.2188 14.4335 34.621 16.0312 32.6562 16.0312H21.9688V6.53125H12.4688V16.0312ZM13.6562 18.4062V7.71875H20.7812V18.4062H13.6562Z" fill="#0E59F2"/>
<path d="M33.8438 12.4688H35.0312C35.0312 11.1589 33.9661 10.0938 32.6562 10.0938V11.2812C33.3112 11.2812 33.8438 11.8138 33.8438 12.4688Z" fill="#0E59F2"/>
<path d="M28.3528 9.07547L29.4904 8.73703C28.896 6.73906 27.0239 5.34375 24.9375 5.34375V6.53125C26.5026 6.53125 27.9068 7.57744 28.3528 9.07547Z" fill="#0E59F2"/>
<path d="M27.9062 13.6562H29.0938V14.8438H27.9062V13.6562Z" fill="#0E59F2"/>
<path d="M25.5312 13.6562H26.7188V14.8438H25.5312V13.6562Z" fill="#0E59F2"/>
<path d="M23.1562 13.6562H24.3438V14.8438H23.1562V13.6562Z" fill="#0E59F2"/>
</g>
<defs>
<clipPath id="clip0_360_556">
<rect width="38" height="38" fill="white"/>
</clipPath>
</defs>
</svg>
