<svg width="38" height="38" viewBox="0 0 38 38" fill="none" xmlns="http://www.w3.org/2000/svg">
<path d="M29.0938 28.5C30.0758 28.5 30.875 27.7008 30.875 26.7188C30.875 25.7367 30.0758 24.9375 29.0938 24.9375C28.1117 24.9375 27.3125 25.7367 27.3125 26.7188C27.3125 27.7008 28.1117 28.5 29.0938 28.5ZM29.0938 26.125C29.4209 26.125 29.6875 26.391 29.6875 26.7188C29.6875 27.0465 29.4209 27.3125 29.0938 27.3125C28.7666 27.3125 28.5 27.0465 28.5 26.7188C28.5 26.391 28.7666 26.125 29.0938 26.125Z" fill="#0E59F2"/>
<path d="M35.1263 24.2119C34.9463 23.7809 35.0419 23.291 35.3691 22.9633L36.233 22.0988L33.7131 19.5789L32.848 20.4434C32.5209 20.7712 32.0304 20.8662 31.5768 20.6762C31.1505 20.5004 30.875 20.0883 30.875 19.6264V18.4062H29.6572C29.6032 17.4485 29.4257 16.5229 29.1312 15.6459L36.002 8.77503C36.9075 7.86956 37.4062 6.66603 37.4062 5.38591C37.4062 2.74372 35.2563 0.59375 32.6141 0.59375C31.334 0.59375 30.1304 1.0925 29.2256 1.99738L22.3618 8.86172C21.4742 8.56366 20.5331 8.39028 19.5611 8.33862C18.7417 6.90709 17.2021 5.9375 15.4375 5.9375C14.9857 5.9375 14.5498 6.00519 14.1348 6.12334C13.11 4.19662 11.1192 2.96875 8.90625 2.96875C5.63231 2.96875 2.96875 5.63231 2.96875 8.90625C2.96875 9.36106 3.02456 9.80875 3.12609 10.2469C1.6625 10.6899 0.59375 12.0502 0.59375 13.6562C0.59375 15.621 2.19153 17.2188 4.15625 17.2188H8.46331C8.36475 17.806 8.3125 18.4021 8.3125 19C8.3125 20.3068 8.55416 21.3702 8.94425 22.2787L3.64741 27.5761L0.700031 35.2391C0.629375 35.4219 0.59375 35.6143 0.59375 35.8108C0.59375 36.6908 1.30981 37.4062 2.18916 37.4062C2.38569 37.4062 2.57806 37.37 2.76153 37.3L10.4245 34.3526L14.2975 30.479C14.2684 30.6066 14.25 30.7384 14.25 30.875C14.25 31.3328 14.4287 31.7466 14.7131 32.0625C14.4281 32.3784 14.25 32.7922 14.25 33.25C14.25 34.0753 14.817 34.7653 15.58 34.9659C16.0859 36.4147 17.4408 37.4062 19 37.4062C20.5592 37.4062 21.9141 36.4147 22.42 34.9659C23.183 34.7653 23.75 34.0753 23.75 33.25C23.75 33.2055 23.7399 33.1639 23.7369 33.1206L24.4744 33.858L25.3395 32.9935C25.6666 32.6657 26.1553 32.5702 26.6101 32.7596C27.0364 32.9371 27.3125 33.3492 27.3125 33.8111V35.0312H30.875V33.8111C30.875 33.3492 31.1511 32.9365 31.6006 32.7507C32.0316 32.5713 32.5215 32.6657 32.8486 32.9935L33.7131 33.858L36.233 31.3381L35.3691 30.4736C35.0419 30.1459 34.9463 29.656 35.1357 29.2024C35.3121 28.7761 35.7242 28.5 36.1861 28.5H37.4062V24.9375H36.1861C35.7242 24.9375 35.3121 24.6614 35.1263 24.2119ZM26.2295 25.9623C26.8773 25.33 27.5263 24.684 28.0862 23.937C28.4092 23.8195 28.7452 23.75 29.0938 23.75C30.7307 23.75 32.0625 25.0818 32.0625 26.7188C32.0625 28.3557 30.7307 29.6875 29.0938 29.6875C27.4568 29.6875 26.125 28.3557 26.125 26.7188C26.125 26.4617 26.1648 26.2087 26.2295 25.9623ZM26.9426 11.8976L29.6875 9.15206L31.8167 11.2812L28.6455 14.4525C28.2007 13.5191 27.626 12.6605 26.9426 11.8976ZM27.5583 5.34375L28.5 4.40206L33.5979 9.5L32.6562 10.4417L27.5583 5.34375ZM32.6141 1.78125C34.6014 1.78125 36.2188 3.39863 36.2188 5.38591C36.2188 6.34838 35.8441 7.25384 35.1631 7.93488L34.4375 8.66044L29.3396 3.5625L30.0651 2.83694C30.7462 2.1565 31.651 1.78125 32.6141 1.78125ZM26.7188 6.18331L28.8479 8.3125L26.1042 11.0562C25.3418 10.3722 24.4839 9.79688 23.5505 9.35156L26.7188 6.18331ZM28.5 19C28.5 22.0893 26.9444 23.6069 25.2973 25.213C24.1632 26.3192 22.9983 27.4627 22.3202 29.1294C22.2068 29.1062 22.0893 29.0938 21.9688 29.0938H19.5938V26.125C19.5938 25.1429 18.7946 24.3438 17.8125 24.3438H16.625C16.2978 24.3438 16.0312 24.0777 16.0312 23.75C16.0312 23.4223 16.2978 23.1562 16.625 23.1562H22.5625C23.5446 23.1562 24.3438 22.3571 24.3438 21.375C24.3438 20.3929 23.5446 19.5938 22.5625 19.5938H17.8125C17.4853 19.5938 17.2188 19.3277 17.2188 19V17.2188H20.1875C21.8245 17.2188 23.1562 15.887 23.1562 14.25C23.1562 12.613 21.8245 11.2812 20.1875 11.2812C20.1709 11.2812 20.1554 11.286 20.1388 11.286C20.1643 11.0877 20.1875 10.8894 20.1875 10.6875C20.1875 10.2992 20.1353 9.92334 20.0474 9.56175C24.7808 10.089 28.5 14.1514 28.5 19ZM15.4375 30.875C15.4375 30.5473 15.7041 30.2812 16.0312 30.2812H21.9688C22.2959 30.2812 22.5625 30.5473 22.5625 30.875C22.5625 31.2027 22.2959 31.4688 21.9688 31.4688H16.0312C15.7041 31.4688 15.4375 31.2027 15.4375 30.875ZM7.96456 30.875L12.3292 26.5103C13.0595 27.2347 13.7376 27.9674 14.2375 28.8598L10.0938 33.0042L7.96456 30.875ZM1.78125 13.6562C1.78125 12.3464 2.84644 11.2812 4.15625 11.2812C5.46606 11.2812 6.53125 12.3464 6.53125 13.6562H7.71875C7.71875 11.7432 6.20172 10.1816 4.30825 10.1015C4.20731 9.71316 4.15625 9.31238 4.15625 8.90625C4.15625 6.28722 6.28722 4.15625 8.90625 4.15625C10.643 4.15625 12.2105 5.10031 13.0441 6.59122C11.7782 7.334 10.884 8.64203 10.7172 10.1686C9.6805 10.4239 8.90625 11.3543 8.90625 12.4688H10.0938C10.0938 11.8138 10.6263 11.2812 11.2812 11.2812C11.9362 11.2812 12.4688 11.8138 12.4688 12.4688H13.6562C13.6562 11.3792 12.9153 10.469 11.9136 10.1899C12.157 8.46094 13.642 7.125 15.4375 7.125C17.4022 7.125 19 8.72278 19 10.6875C19 10.9998 18.9489 11.3056 18.8694 11.6037C17.8956 12.0911 17.2188 13.0886 17.2188 14.25H18.4062C18.4062 13.2679 19.2054 12.4688 20.1875 12.4688C21.1696 12.4688 21.9688 13.2679 21.9688 14.25C21.9688 15.2321 21.1696 16.0312 20.1875 16.0312H4.15625C2.84644 16.0312 1.78125 14.9661 1.78125 13.6562ZM16.0312 17.2188V19C16.0312 19.9821 16.8304 20.7812 17.8125 20.7812H22.5625C22.8897 20.7812 23.1562 21.0473 23.1562 21.375C23.1562 21.7027 22.8897 21.9688 22.5625 21.9688H16.625C15.6429 21.9688 14.8438 22.7679 14.8438 23.75C14.8438 24.7321 15.6429 25.5312 16.625 25.5312H17.8125C18.1397 25.5312 18.4062 25.7973 18.4062 26.125V29.0938H16.0312C15.9107 29.0938 15.7932 29.1062 15.6798 29.1294C15.0017 27.4627 13.8367 26.3192 12.7027 25.213C11.0556 23.6069 9.5 22.0893 9.5 19C9.5 18.3997 9.57184 17.8048 9.68288 17.2188H16.0312ZM11.4813 25.6791L7.125 30.0354L4.99581 27.9062L9.52612 23.3759C10.0837 24.2511 10.7748 24.9814 11.4813 25.6791ZM4.38247 28.972L9.02797 33.6175L5.09497 35.1304L2.86959 32.905L4.38247 28.972ZM2.33581 36.1914C2.07872 36.2912 1.78125 36.0863 1.78125 35.8108C1.78125 35.7604 1.79075 35.7111 1.80797 35.6648L2.40291 34.1175L3.88194 35.5965L2.33581 36.1914ZM19 36.2188C18.123 36.2188 17.3411 35.7521 16.9076 35.0312H21.0924C20.6589 35.7521 19.877 36.2188 19 36.2188ZM21.9688 33.8438H16.0312C15.7041 33.8438 15.4375 33.5778 15.4375 33.25C15.4375 32.9222 15.7041 32.6562 16.0312 32.6562H21.9688C22.2959 32.6562 22.5625 32.9222 22.5625 33.25C22.5625 33.5778 22.2959 33.8438 21.9688 33.8438ZM36.2188 27.3125H36.1861C35.2414 27.3125 34.3983 27.8766 34.0302 28.7684C33.6644 29.6453 33.8604 30.644 34.5289 31.3132L34.5539 31.3381L33.7131 32.1789L33.6882 32.1539C33.0184 31.4842 32.0186 31.2877 31.1238 31.6629C30.2516 32.0239 29.6875 32.8664 29.6875 33.8111V33.8438H28.5V33.8111C28.5 32.8664 27.9359 32.0233 27.0441 31.6546C26.166 31.2882 25.1673 31.4848 24.4987 32.1539L24.4738 32.1789L23.6692 31.3743C23.7167 31.2146 23.75 31.0496 23.75 30.875C23.75 30.4534 23.5968 30.0711 23.351 29.7653C23.7203 28.7684 24.2992 27.971 24.9731 27.2347C25.2284 29.2832 26.977 30.875 29.0938 30.875C31.3856 30.875 33.25 29.01 33.25 26.7188C33.25 24.4275 31.3856 22.5625 29.0938 22.5625C29.0356 22.5625 28.9792 22.5684 28.9216 22.5708C29.3235 21.7366 29.5996 20.7694 29.6691 19.5938H29.6875V19.6264C29.6875 20.5711 30.2516 21.4148 31.1428 21.7823C32.0192 22.1493 33.019 21.9533 33.6882 21.2836L33.7131 21.2586L34.5539 22.0994L34.5289 22.1243C33.8604 22.7935 33.6644 23.7928 34.0379 24.6881C34.3983 25.5609 35.2414 26.125 36.1861 26.125H36.2188V27.3125Z" fill="#0E59F2"/>
</svg>
