<svg width="50" height="50" viewBox="0 0 50 50" fill="none" xmlns="http://www.w3.org/2000/svg">
<path d="M17.359 11.7398C17.2153 12.1819 17.3567 12.6558 17.719 12.9471L20.9451 15.54L19.8593 19.5341C19.7374 19.9825 19.9016 20.4489 20.2778 20.7226C20.6542 20.9956 21.1482 21.0076 21.5372 20.7531L25.0002 18.4862L28.4633 20.7532C28.65 20.8754 28.8608 20.9361 29.0713 20.9361C29.2994 20.9361 29.5271 20.8647 29.7225 20.7226C30.0989 20.4492 30.2632 19.9825 30.141 19.5341L29.0552 15.5401L32.2811 12.9473C32.6437 12.6561 32.7851 12.1821 32.6413 11.7398C32.4977 11.2975 32.1047 10.9972 31.6403 10.9747L27.5063 10.7731L26.0371 6.90381C25.8722 6.46914 25.465 6.18818 25.0001 6.18818C24.5352 6.18818 24.128 6.46904 23.9632 6.90371L22.4939 10.7732L18.3602 10.9747C17.8956 10.9972 17.5026 11.2975 17.359 11.7398ZM22.8664 12.3193C23.307 12.2979 23.6929 12.0175 23.8492 11.6052L25 8.57441L26.1508 11.6055C26.3074 12.0177 26.6934 12.2979 27.1336 12.3193L30.3716 12.4772L27.8446 14.5082C27.5008 14.7847 27.3535 15.2383 27.4692 15.6637L28.3197 18.792L25.6072 17.0163C25.4228 16.8956 25.2113 16.8353 24.9999 16.8353C24.7885 16.8353 24.5769 16.8957 24.3923 17.0164L21.68 18.792L22.5305 15.6639C22.6463 15.2382 22.4989 14.7845 22.155 14.5082L19.6281 12.4773L22.8664 12.3193ZM24.2188 3.64775V0.780762C24.2188 0.349316 24.5686 -0.000488281 25 -0.000488281C25.4314 -0.000488281 25.7812 0.349316 25.7812 0.780762V3.64775C25.7812 4.0792 25.4314 4.429 25 4.429C24.5686 4.429 24.2188 4.0792 24.2188 3.64775ZM28.9765 8.27646C28.6878 7.95586 28.7137 7.46182 29.0343 7.17314L32.2291 4.29639C32.5498 4.00762 33.0438 4.0335 33.3325 4.3542C33.6212 4.6748 33.5953 5.16885 33.2747 5.45752L30.0798 8.33428C29.9305 8.46875 29.7436 8.53496 29.5572 8.53496C29.3437 8.53496 29.1308 8.44785 28.9765 8.27646ZM16.6675 4.3542C16.9562 4.0335 17.4501 4.00762 17.7709 4.29639L20.9658 7.17314C21.2864 7.46182 21.3123 7.95586 21.0236 8.27646C20.8693 8.44775 20.6564 8.53496 20.4428 8.53496C20.2565 8.53496 20.0696 8.46875 19.9202 8.33428L16.7253 5.45752C16.4046 5.16885 16.3788 4.6748 16.6675 4.3542ZM35.0229 12.9471L38.2489 15.54L37.1631 19.5341C37.0412 19.9825 37.2054 20.4489 37.5816 20.7226C37.9577 20.9956 38.4519 21.0075 38.841 20.7531L42.304 18.4862L45.7671 20.7532C45.9538 20.8754 46.1646 20.9361 46.3751 20.9361C46.6032 20.9361 46.8309 20.8647 47.0263 20.7226C47.4025 20.4494 47.5668 19.9829 47.4448 19.5341L46.359 15.5401L49.5849 12.9473C49.9474 12.6562 50.0888 12.1822 49.945 11.7398C49.8014 11.2975 49.4084 10.9972 48.9441 10.9747L44.8101 10.7731L43.341 6.90381C43.1761 6.46914 42.7689 6.18818 42.304 6.18818C41.839 6.18818 41.4318 6.46904 41.2669 6.90371L39.7978 10.7731L35.6641 10.9746C35.1994 10.9971 34.8064 11.2975 34.6628 11.7398C34.519 12.1821 34.6604 12.6561 35.0229 12.9471ZM40.1701 12.3193C40.6108 12.2979 40.9968 12.0175 41.1532 11.6051L42.3039 8.57432L43.4545 11.605C43.611 12.0175 43.997 12.2979 44.4375 12.3192L47.6755 12.4771L45.1488 14.5079C44.8048 14.7843 44.6573 15.238 44.7731 15.6636L45.6236 18.7919L42.9111 17.0162C42.7266 16.8955 42.5151 16.8352 42.3037 16.8352C42.0922 16.8352 41.8807 16.8956 41.6962 17.0163L38.9839 18.7919L39.8344 15.6638C39.9501 15.2383 39.8028 14.7847 39.4589 14.5081L36.932 12.4771L40.1701 12.3193ZM0.415044 12.9471L3.64112 15.54L2.55528 19.5341C2.4334 19.9825 2.59756 20.4489 2.97383 20.7226C3.3502 20.9956 3.84424 21.0076 4.23321 20.7531L7.6962 18.4862L11.1593 20.7532C11.346 20.8754 11.5568 20.9361 11.7673 20.9361C11.9954 20.9361 12.2231 20.8647 12.4185 20.7226C12.7947 20.4494 12.959 19.9829 12.837 19.5341L11.7512 15.5401L14.9771 12.9473C15.3394 12.6563 15.4809 12.1825 15.3372 11.7394C15.1933 11.2973 14.8003 10.9971 14.3363 10.9746L10.2022 10.773L8.73321 6.90381C8.56827 6.46914 8.16114 6.18818 7.6962 6.18818C7.23116 6.18818 6.82403 6.46904 6.65909 6.90371L5.19004 10.7731L1.05625 10.9746C0.591704 10.9971 0.198735 11.2975 0.0551805 11.7394C-0.0888625 12.1818 0.0524461 12.656 0.415044 12.9471ZM5.56231 12.3193C6.00303 12.2979 6.38897 12.0175 6.54541 11.6051L7.6961 8.57432L8.84668 11.605C9.00323 12.0175 9.38916 12.2979 9.82969 12.3192L13.0677 12.4771L10.541 14.5079C10.197 14.7843 10.0495 15.238 10.1653 15.6636L11.0158 18.7919L8.30332 17.0162C8.11875 16.8955 7.90733 16.8352 7.6959 16.8352C7.48438 16.8352 7.27286 16.8956 7.08838 17.0163L4.37608 18.7919L5.22657 15.6638C5.34229 15.2383 5.19502 14.7847 4.85108 14.5081L2.32422 12.4771L5.56231 12.3193ZM49.877 41.4969C49.3273 39.7217 48.2015 38.1277 46.7066 37.0084C45.991 36.4726 45.2117 36.0552 44.3896 35.7597C45.5294 34.8651 46.2638 33.4765 46.2638 31.9186C46.2638 29.2266 44.0736 27.0365 41.3817 27.0365C38.6897 27.0365 36.4996 29.2266 36.4996 31.9186C36.4996 33.4746 37.2322 34.8619 38.3697 35.7565C36.8452 36.3007 35.4946 37.2567 34.4604 38.545C33.977 37.8687 33.4193 37.2406 32.7925 36.6737C31.5294 35.5314 30.0471 34.6926 28.4507 34.1968C30.1436 33.0745 31.2627 31.1529 31.2627 28.9741C31.2627 25.521 28.4532 22.7116 25.0001 22.7116C21.547 22.7116 18.7375 25.521 18.7375 28.9741C18.7375 31.1529 19.8565 33.0745 21.5494 34.1968C19.9529 34.6925 18.4706 35.5314 17.2075 36.6737C16.5807 37.2406 16.0231 37.8687 15.5397 38.5449C14.5056 37.2565 13.155 36.3005 11.6304 35.7562C12.7678 34.8616 13.5005 33.4743 13.5005 31.9183C13.5005 29.2263 11.3104 27.0362 8.61846 27.0362C5.92647 27.0362 3.73633 29.2263 3.73633 31.9183C3.73633 33.4761 4.47071 34.8648 5.61036 35.7594C4.78829 36.0549 4.00899 36.4723 3.29327 37.0081C1.79844 38.1273 0.672563 39.7214 0.122856 41.4965C-0.131148 42.3164 0.00957501 43.1485 0.519048 43.8397C1.02842 44.5308 1.78174 44.9112 2.64014 44.9112H13.4402V46.3212C13.4402 48.3495 15.0903 49.9996 17.1187 49.9996H32.8813C34.9096 49.9996 36.5598 48.3495 36.5599 46.3212V44.9116H47.3599C48.2184 44.9116 48.9717 44.5311 49.481 43.8401C49.9903 43.1489 50.1311 42.3167 49.877 41.4969ZM41.3817 28.599C43.2121 28.599 44.7013 30.0882 44.7013 31.9186C44.7013 33.749 43.2121 35.2382 41.3817 35.2382C39.5513 35.2382 38.0621 33.749 38.0621 31.9186C38.0621 30.0882 39.5513 28.599 41.3817 28.599ZM20.3 28.9741C20.3 26.3825 22.4085 24.2741 25.0001 24.2741C27.5917 24.2741 29.7002 26.3825 29.7002 28.9741C29.7002 31.5649 27.5931 33.6728 25.0026 33.6741C25.0018 33.6741 25.0008 33.6741 25 33.6741C24.9992 33.6741 24.9983 33.6741 24.9975 33.6741C22.407 33.6727 20.3 31.5648 20.3 28.9741ZM8.61846 28.5986C10.4488 28.5986 11.938 30.0878 11.938 31.9182C11.938 33.7486 10.4488 35.2378 8.61846 35.2378C6.78799 35.2378 5.29883 33.7486 5.29883 31.9182C5.29883 30.0878 6.78799 28.5986 8.61846 28.5986ZM13.5417 43.3486H2.64024C2.28067 43.3486 1.99024 43.202 1.77686 42.9125C1.56338 42.623 1.50918 42.3021 1.61553 41.9587C2.571 38.8732 5.38536 36.8003 8.61846 36.8003C11.0641 36.8003 13.2919 37.9819 14.6621 39.9822C14.1204 41.0346 13.741 42.1688 13.5417 43.3486ZM34.9974 46.3211C34.9973 47.4878 34.048 48.437 32.8813 48.437H17.1187C15.952 48.437 15.0027 47.4878 15.0027 46.3211V44.1724C15.5684 39.0759 19.8578 35.2379 24.9975 35.2366C24.9983 35.2366 24.9992 35.2367 25.0001 35.2367C25.001 35.2367 25.0019 35.2366 25.0026 35.2366C30.1422 35.238 34.4315 39.0759 34.9974 44.1724V46.3211ZM48.2232 42.913C48.0099 43.2023 47.7195 43.349 47.3599 43.349H36.4585C36.2591 42.1691 35.8797 41.0349 35.3381 39.9824C36.7084 37.9822 38.9361 36.8007 41.3816 36.8007C44.6147 36.8007 47.4291 38.8737 48.3846 41.9592C48.4909 42.3024 48.4366 42.6233 48.2232 42.913Z" fill="white"/>
</svg>
