<svg width="50" height="50" viewBox="0 0 50 50" fill="none" xmlns="http://www.w3.org/2000/svg">
<path d="M44.5312 26.9761V11.6558C47.1773 11.2745 49.2188 8.99873 49.2188 6.24951C49.2188 3.23467 46.7656 0.780762 43.75 0.780762C40.7344 0.780762 38.2812 3.23467 38.2812 6.24951H0.78125V37.4995H24.2586C24.6648 44.0276 30.0906 49.2183 36.7188 49.2183C43.6109 49.2183 49.2188 43.6104 49.2188 36.7183C49.2188 32.7815 47.3852 29.269 44.5312 26.9761ZM43.75 2.34326C45.9039 2.34326 47.6562 4.09561 47.6562 6.24951C47.6562 8.40342 45.9039 10.1558 43.75 10.1558C41.5961 10.1558 39.8438 8.40342 39.8438 6.24951C39.8438 4.09561 41.5961 2.34326 43.75 2.34326ZM2.34375 7.81201H38.5117C38.6984 8.43545 38.9953 9.00967 39.3766 9.51904L34.5984 14.2972C34.2922 14.1503 33.9547 14.062 33.5938 14.062C33.2328 14.062 32.8953 14.1503 32.5898 14.2972L31.0156 12.7229C31.1617 12.4167 31.25 12.0792 31.25 11.7183C31.25 10.4261 30.1984 9.37451 28.9062 9.37451C27.6141 9.37451 26.5625 10.4261 26.5625 11.7183C26.5625 12.0792 26.6508 12.4167 26.7977 12.7222L22.8797 16.6401C22.5734 16.494 22.2359 16.4058 21.875 16.4058C20.5828 16.4058 19.5312 17.4573 19.5312 18.7495C19.5312 20.0417 20.5828 21.0933 21.875 21.0933C23.1672 21.0933 24.2188 20.0417 24.2188 18.7495C24.2188 18.3886 24.1305 18.0511 23.9836 17.7456L27.9016 13.8276C28.2078 13.9737 28.5453 14.062 28.9062 14.062C29.2672 14.062 29.6047 13.9737 29.9102 13.8269L31.4844 15.4011C31.3383 15.7073 31.25 16.0448 31.25 16.4058C31.25 17.6979 32.3016 18.7495 33.5938 18.7495C34.8859 18.7495 35.9375 17.6979 35.9375 16.4058C35.9375 16.0448 35.8492 15.7073 35.7023 15.4019L40.4813 10.6237C41.1961 11.1597 42.0445 11.5229 42.9688 11.6565V25.9104C41.1273 24.8409 38.9969 24.2183 36.7188 24.2183C32.9844 24.2183 29.6359 25.8729 27.3438 28.4784V24.9995H22.6562V34.3745H24.4469C24.35 34.8847 24.2914 35.4073 24.2586 35.937H2.34375V7.81201ZM33.5938 15.6245C34.0242 15.6245 34.375 15.9745 34.375 16.4058C34.375 16.837 34.0242 17.187 33.5938 17.187C33.1633 17.187 32.8125 16.837 32.8125 16.4058C32.8125 15.9745 33.1633 15.6245 33.5938 15.6245ZM28.125 11.7183C28.125 11.287 28.4758 10.937 28.9062 10.937C29.3367 10.937 29.6875 11.287 29.6875 11.7183C29.6875 12.1495 29.3367 12.4995 28.9062 12.4995C28.4758 12.4995 28.125 12.1495 28.125 11.7183ZM22.6562 18.7495C22.6562 19.1808 22.3055 19.5308 21.875 19.5308C21.4445 19.5308 21.0938 19.1808 21.0938 18.7495C21.0938 18.3183 21.4445 17.9683 21.875 17.9683C22.3055 17.9683 22.6562 18.3183 22.6562 18.7495ZM36.7188 42.9683C33.2727 42.9683 30.4688 40.1644 30.4688 36.7183C30.4688 33.2722 33.2727 30.4683 36.7188 30.4683C40.1648 30.4683 42.9688 33.2722 42.9688 36.7183C42.9688 40.1644 40.1648 42.9683 36.7188 42.9683ZM25.7812 30.68C25.407 31.355 25.0977 32.0683 24.8523 32.812H24.2188V26.562H25.7812V30.68ZM35.9375 25.8206V28.9456C31.9953 29.3394 28.9062 32.6745 28.9062 36.7183C28.9062 37.8612 29.1594 38.9448 29.6023 39.9245L26.8922 41.4894C26.1875 40.0456 25.7812 38.43 25.7812 36.7183C25.7812 30.9511 30.2711 26.2237 35.9375 25.8206ZM36.7188 47.6558C32.9578 47.6558 29.6344 45.7472 27.6656 42.8472L30.3867 41.2761C31.807 43.2433 34.1125 44.5308 36.7188 44.5308C39.325 44.5308 41.6305 43.2433 43.0508 41.2761L45.7719 42.8472C43.8031 45.7472 40.4797 47.6558 36.7188 47.6558V47.6558ZM46.5453 41.4894L43.8352 39.9245C44.2781 38.9448 44.5312 37.8612 44.5312 36.7183C44.5312 32.6745 41.4422 29.3386 37.5 28.9456V25.8206C43.1664 26.2237 47.6562 30.9511 47.6562 36.7183C47.6562 38.43 47.25 40.0456 46.5453 41.4894Z" fill="white"/>
<path d="M36.7188 32.0308C34.1336 32.0308 32.0312 34.1331 32.0312 36.7183C32.0312 39.3034 34.1336 41.4058 36.7188 41.4058C39.3039 41.4058 41.4062 39.3034 41.4062 36.7183C41.4062 34.1331 39.3039 32.0308 36.7188 32.0308ZM36.7188 39.8433C34.9953 39.8433 33.5938 38.4417 33.5938 36.7183C33.5938 34.9948 34.9953 33.5933 36.7188 33.5933C38.4422 33.5933 39.8438 34.9948 39.8438 36.7183C39.8438 38.4417 38.4422 39.8433 36.7188 39.8433Z" fill="white"/>
<path d="M3.90625 9.37451H5.46875V10.937H3.90625V9.37451Z" fill="white"/>
<path d="M7.03125 9.37451H17.9688V10.937H7.03125V9.37451Z" fill="white"/>
<path d="M3.90625 12.4995H5.46875V14.062H3.90625V12.4995Z" fill="white"/>
<path d="M7.03125 12.4995H17.9688V14.062H7.03125V12.4995Z" fill="white"/>
<path d="M3.90625 15.6245H5.46875V17.187H3.90625V15.6245Z" fill="white"/>
<path d="M7.03125 15.6245H17.9688V17.187H7.03125V15.6245Z" fill="white"/>
<path d="M3.90625 18.7495H5.46875V20.312H3.90625V18.7495Z" fill="white"/>
<path d="M7.03125 18.7495H17.9688V20.312H7.03125V18.7495Z" fill="white"/>
<path d="M3.90625 34.3745H8.59375V26.562H3.90625V34.3745ZM5.46875 28.1245H7.03125V32.812H5.46875V28.1245Z" fill="white"/>
<path d="M10.1562 34.3745H14.8438V28.1245H10.1562V34.3745ZM11.7188 29.687H13.2812V32.812H11.7188V29.687Z" fill="white"/>
<path d="M16.4062 34.3745H21.0938V21.8745H16.4062V34.3745ZM17.9688 23.437H19.5312V32.812H17.9688V23.437Z" fill="white"/>
</svg>
