<svg width="50" height="50" viewBox="0 0 50 50" fill="none" xmlns="http://www.w3.org/2000/svg">
<path d="M28.9062 42.187H27.3438V34.5308C27.3438 34.3236 27.2614 34.1248 27.1149 33.9783C26.9684 33.8318 26.7697 33.7495 26.5625 33.7495C26.3553 33.7495 26.1566 33.8318 26.0101 33.9783C25.8636 34.1248 25.7812 34.3236 25.7812 34.5308V42.187H5.46875V26.562H11.9688C12.176 26.562 12.3747 26.4797 12.5212 26.3332C12.6677 26.1867 12.75 25.988 12.75 25.7808C12.75 25.5736 12.6677 25.3748 12.5212 25.2283C12.3747 25.0818 12.176 24.9995 11.9688 24.9995H4.6875C4.4803 24.9995 4.28159 25.0818 4.13507 25.2283C3.98856 25.3748 3.90625 25.5736 3.90625 25.7808V42.187H2.34375C2.13655 42.187 1.93784 42.2693 1.79132 42.4158C1.64481 42.5623 1.5625 42.7611 1.5625 42.9683V44.5308C1.5625 45.5668 1.97405 46.5603 2.70661 47.2929C3.43918 48.0255 4.43275 48.437 5.46875 48.437H25.7812C26.8173 48.437 27.8108 48.0255 28.5434 47.2929C29.2759 46.5603 29.6875 45.5668 29.6875 44.5308V42.9683C29.6875 42.7611 29.6052 42.5623 29.4587 42.4158C29.3122 42.2693 29.1135 42.187 28.9062 42.187ZM28.125 44.5308C28.125 45.1524 27.8781 45.7485 27.4385 46.188C26.999 46.6276 26.4029 46.8745 25.7812 46.8745H24.2188V46.0933C24.2188 45.8861 24.1364 45.6873 23.9899 45.5408C23.8434 45.3943 23.6447 45.312 23.4375 45.312C23.2303 45.312 23.0316 45.3943 22.8851 45.5408C22.7386 45.6873 22.6562 45.8861 22.6562 46.0933V46.8745H8.59375V46.0933C8.59375 45.8861 8.51144 45.6873 8.36493 45.5408C8.21841 45.3943 8.0197 45.312 7.8125 45.312C7.6053 45.312 7.40659 45.3943 7.26007 45.5408C7.11356 45.6873 7.03125 45.8861 7.03125 46.0933V46.8745H5.46875C4.84715 46.8745 4.25101 46.6276 3.81147 46.188C3.37193 45.7485 3.125 45.1524 3.125 44.5308V43.7495H28.125V44.5308Z" fill="white"/>
<path d="M42.1875 6.24951H43.75C43.9572 6.24951 44.1559 6.1672 44.3024 6.02069C44.4489 5.87418 44.5312 5.67546 44.5312 5.46826C44.5312 5.26106 44.4489 5.06235 44.3024 4.91583C44.1559 4.76932 43.9572 4.68701 43.75 4.68701H42.1875C41.5659 4.68701 40.9698 4.93394 40.5302 5.37348C40.0907 5.81302 39.8438 6.40916 39.8438 7.03076V7.81201H39.0625C38.8553 7.81201 38.6566 7.89432 38.5101 8.04083C38.3636 8.18735 38.2812 8.38606 38.2812 8.59326C38.2812 8.80046 38.3636 8.99918 38.5101 9.14569C38.6566 9.2922 38.8553 9.37451 39.0625 9.37451H39.8438V11.7183C39.8438 11.9255 39.9261 12.1242 40.0726 12.2707C40.2191 12.4172 40.4178 12.4995 40.625 12.4995C40.8322 12.4995 41.0309 12.4172 41.1774 12.2707C41.3239 12.1242 41.4062 11.9255 41.4062 11.7183V9.37451H42.1875C42.3947 9.37451 42.5934 9.2922 42.7399 9.14569C42.8864 8.99918 42.9688 8.80046 42.9688 8.59326C42.9688 8.38606 42.8864 8.18735 42.7399 8.04083C42.5934 7.89432 42.3947 7.81201 42.1875 7.81201H41.4062V7.03076C41.4062 6.82356 41.4886 6.62485 41.6351 6.47833C41.7816 6.33182 41.9803 6.24951 42.1875 6.24951Z" fill="white"/>
<path d="M46.0938 1.56201H36.7188C36.0971 1.56201 35.501 1.80894 35.0615 2.24848C34.6219 2.68802 34.375 3.28416 34.375 3.90576V5.46826C34.375 5.67546 34.4573 5.87418 34.6038 6.02069C34.7503 6.1672 34.949 6.24951 35.1562 6.24951C35.3635 6.24951 35.5622 6.1672 35.7087 6.02069C35.8552 5.87418 35.9375 5.67546 35.9375 5.46826V3.90576C35.9375 3.69856 36.0198 3.49985 36.1663 3.35333C36.3128 3.20682 36.5115 3.12451 36.7188 3.12451H46.0938C46.301 3.12451 46.4997 3.20682 46.6462 3.35333C46.7927 3.49985 46.875 3.69856 46.875 3.90576V13.2808C46.875 13.488 46.7927 13.6867 46.6462 13.8332C46.4997 13.9797 46.301 14.062 46.0938 14.062H36.7188C36.5115 14.062 36.3128 13.9797 36.1663 13.8332C36.0198 13.6867 35.9375 13.488 35.9375 13.2808V8.59326C35.9375 8.38606 35.8552 8.18735 35.7087 8.04083C35.5622 7.89432 35.3635 7.81201 35.1562 7.81201C34.949 7.81201 34.7503 7.89432 34.6038 8.04083C34.4573 8.18735 34.375 8.38606 34.375 8.59326V13.2808C34.375 13.9024 34.6219 14.4985 35.0615 14.938C35.501 15.3776 36.0971 15.6245 36.7188 15.6245H46.0938C46.7154 15.6245 47.3115 15.3776 47.751 14.938C48.1906 14.4985 48.4375 13.9024 48.4375 13.2808V3.90576C48.4375 3.28416 48.1906 2.68802 47.751 2.24848C47.3115 1.80894 46.7154 1.56201 46.0938 1.56201Z" fill="white"/>
<path d="M38.2812 32.812C38.2812 33.4301 38.4645 34.0343 38.8079 34.5482C39.1513 35.0621 39.6393 35.4626 40.2104 35.6991C40.7814 35.9357 41.4097 35.9976 42.0159 35.877C42.6221 35.7564 43.1789 35.4588 43.616 35.0217C44.053 34.5847 44.3506 34.0279 44.4712 33.4217C44.5918 32.8155 44.5299 32.1871 44.2934 31.6161C44.0569 31.0451 43.6563 30.5571 43.1424 30.2137C42.6285 29.8703 42.0243 29.687 41.4063 29.687C40.5775 29.687 39.7826 30.0163 39.1965 30.6023C38.6105 31.1884 38.2812 31.9832 38.2812 32.812ZM42.9688 32.812C42.9688 33.1211 42.8771 33.4231 42.7054 33.6801C42.5337 33.9371 42.2897 34.1373 42.0042 34.2556C41.7187 34.3738 41.4045 34.4048 41.1014 34.3445C40.7983 34.2842 40.5199 34.1354 40.3014 33.9169C40.0829 33.6984 39.9341 33.4199 39.8738 33.1168C39.8135 32.8138 39.8444 32.4996 39.9627 32.2141C40.081 31.9286 40.2812 31.6845 40.5382 31.5128C40.7951 31.3412 41.0972 31.2495 41.4063 31.2495C41.8207 31.2495 42.2181 31.4141 42.5111 31.7072C42.8041 32.0002 42.9688 32.3976 42.9688 32.812Z" fill="white"/>
<path d="M46.0938 25.7808H36.7188C36.0971 25.7808 35.501 26.0277 35.0615 26.4672C34.6219 26.9068 34.375 27.5029 34.375 28.1245V37.4995C34.375 38.1211 34.6219 38.7173 35.0615 39.1568C35.501 39.5963 36.0971 39.8433 36.7188 39.8433H46.0938C46.7154 39.8433 47.3115 39.5963 47.751 39.1568C48.1906 38.7173 48.4375 38.1211 48.4375 37.4995V35.937C48.4375 35.7298 48.3552 35.5311 48.2087 35.3846C48.0622 35.2381 47.8635 35.1558 47.6562 35.1558C47.449 35.1558 47.2503 35.2381 47.1038 35.3846C46.9573 35.5311 46.875 35.7298 46.875 35.937V37.4995C46.875 37.7067 46.7927 37.9054 46.6462 38.0519C46.4997 38.1985 46.301 38.2808 46.0938 38.2808H36.7188C36.5115 38.2808 36.3128 38.1985 36.1663 38.0519C36.0198 37.9054 35.9375 37.7067 35.9375 37.4995V28.1245C35.9375 27.9173 36.0198 27.7186 36.1663 27.5721C36.3128 27.4256 36.5115 27.3433 36.7188 27.3433H46.0938C46.301 27.3433 46.4997 27.4256 46.6462 27.5721C46.7927 27.7186 46.875 27.9173 46.875 28.1245V32.812C46.875 33.0192 46.9573 33.2179 47.1038 33.3644C47.2503 33.511 47.449 33.5933 47.6562 33.5933C47.8635 33.5933 48.0622 33.511 48.2087 33.3644C48.3552 33.2179 48.4375 33.0192 48.4375 32.812V28.1245C48.4375 27.5029 48.1906 26.9068 47.751 26.4672C47.3115 26.0277 46.7154 25.7808 46.0938 25.7808Z" fill="white"/>
<path d="M19.1172 10.8199C19.2415 10.897 19.385 10.9376 19.5313 10.9371C19.6536 10.9364 19.774 10.9069 19.8828 10.8511L24.5703 8.5074C24.6983 8.44184 24.8057 8.34223 24.8807 8.21955C24.9557 8.09687 24.9953 7.95587 24.9953 7.81209C24.9953 7.6683 24.9557 7.5273 24.8807 7.40462C24.8057 7.28194 24.6983 7.18234 24.5703 7.11678L19.8828 4.77303C19.7639 4.7131 19.6316 4.68456 19.4986 4.69014C19.3655 4.69571 19.2361 4.73521 19.1226 4.80487C19.0091 4.87454 18.9153 4.97206 18.8501 5.08818C18.7848 5.2043 18.7504 5.33516 18.75 5.46834V10.1558C18.7497 10.2886 18.7833 10.4193 18.8476 10.5354C18.9118 10.6516 19.0046 10.7495 19.1172 10.8199ZM20.3125 6.73396L22.4688 7.81209L20.3125 8.89021V6.73396Z" fill="white"/>
<path d="M21.0938 14.8433C22.4844 14.8433 23.8438 14.4309 25.0001 13.6583C26.1564 12.8857 27.0576 11.7875 27.5898 10.5028C28.122 9.21796 28.2612 7.80421 27.9899 6.44029C27.7186 5.07636 27.0489 3.82351 26.0656 2.84017C25.0823 1.85683 23.8294 1.18717 22.4655 0.915868C21.1016 0.644566 19.6878 0.783808 18.403 1.31599C17.1182 1.84817 16.0201 2.74938 15.2475 3.90566C14.4749 5.06194 14.0625 6.42136 14.0625 7.81201C14.0625 9.67682 14.8033 11.4652 16.1219 12.7839C17.4405 14.1025 19.2289 14.8433 21.0938 14.8433ZM21.0938 2.34326C22.1754 2.34326 23.2327 2.664 24.132 3.26492C25.0314 3.86583 25.7323 4.71993 26.1462 5.71921C26.5601 6.7185 26.6684 7.81808 26.4574 8.87891C26.2464 9.93975 25.7256 10.9142 24.9607 11.679C24.1959 12.4438 23.2215 12.9647 22.1607 13.1757C21.0998 13.3867 20.0002 13.2784 19.001 12.8645C18.0017 12.4506 17.1476 11.7496 16.5467 10.8503C15.9457 9.95096 15.625 8.89363 15.625 7.81201C15.625 6.36161 16.2012 4.97061 17.2268 3.94502C18.2523 2.91943 19.6433 2.34326 21.0938 2.34326Z" fill="white"/>
<path d="M28.9063 17.9683C29.0275 17.9683 29.1472 17.94 29.2556 17.8858C29.3641 17.8316 29.4585 17.7528 29.5313 17.6558L31.875 14.5308C31.9993 14.365 32.0527 14.1566 32.0234 13.9515C31.9941 13.7464 31.8845 13.5613 31.7188 13.437C31.553 13.3127 31.3446 13.2593 31.1395 13.2886C30.9344 13.3179 30.7493 13.4275 30.625 13.5933L28.2813 16.7183C28.1569 16.884 28.1036 17.0924 28.1329 17.2975C28.1622 17.5026 28.2717 17.6877 28.4375 17.812C28.5727 17.9134 28.7372 17.9683 28.9063 17.9683Z" fill="white"/>
<path d="M30.625 20.7808C30.6978 20.8778 30.7921 20.9566 30.9006 21.0108C31.0091 21.065 31.1287 21.0933 31.25 21.0933C31.419 21.0933 31.5835 21.0384 31.7188 20.937L34.8438 18.5933C35.0095 18.4689 35.1191 18.2839 35.1484 18.0788C35.1777 17.8736 35.1243 17.6653 35 17.4995C34.8757 17.3338 34.6906 17.2242 34.4855 17.1949C34.2804 17.1656 34.072 17.2189 33.9063 17.3433L30.7813 19.687C30.6155 19.8113 30.5059 19.9964 30.4766 20.2015C30.4473 20.4067 30.5007 20.615 30.625 20.7808Z" fill="white"/>
<path d="M38.2812 22.4996C38.2627 22.396 38.2234 22.2973 38.1657 22.2092C38.108 22.1212 38.0332 22.0458 37.9456 21.9874C37.8581 21.929 37.7596 21.889 37.6562 21.8696C37.5528 21.8502 37.4465 21.8519 37.3437 21.8746L33.4375 22.6558C33.3349 22.6661 33.2353 22.6965 33.1445 22.7452C33.0536 22.7939 32.9732 22.8601 32.9079 22.9399C32.7761 23.1011 32.7136 23.308 32.7344 23.5152C32.7551 23.7224 32.8573 23.9129 33.0184 24.0448C33.1796 24.1766 33.3865 24.2391 33.5937 24.2183H33.75L37.6562 23.4371C37.7598 23.4185 37.8586 23.3792 37.9466 23.3215C38.0346 23.2639 38.1101 23.189 38.1684 23.1015C38.2268 23.0139 38.2669 22.9155 38.2863 22.812C38.3056 22.7086 38.3039 22.6023 38.2812 22.4996Z" fill="white"/>
<path d="M2.34375 22.6558H11.7188C11.926 22.6558 12.1247 22.5735 12.2712 22.4269C12.4177 22.2804 12.5 22.0817 12.5 21.8745V9.37451C12.5 9.16731 12.4177 8.9686 12.2712 8.82208C12.1247 8.67557 11.926 8.59326 11.7188 8.59326H2.34375C2.13655 8.59326 1.93784 8.67557 1.79132 8.82208C1.64481 8.9686 1.5625 9.16731 1.5625 9.37451V21.8745C1.5625 22.0817 1.64481 22.2804 1.79132 22.4269C1.93784 22.5735 2.13655 22.6558 2.34375 22.6558ZM3.125 10.1558H10.9375V21.0933H3.125V10.1558Z" fill="white"/>
<path d="M8.59375 11.7183H7.03125C6.82405 11.7183 6.62534 11.8006 6.47882 11.9471C6.33231 12.0936 6.25 12.2923 6.25 12.4995C6.25 12.7067 6.33231 12.9054 6.47882 13.0519C6.62534 13.1985 6.82405 13.2808 7.03125 13.2808H8.59375C8.80095 13.2808 8.99966 13.1985 9.14618 13.0519C9.29269 12.9054 9.375 12.7067 9.375 12.4995C9.375 12.2923 9.29269 12.0936 9.14618 11.9471C8.99966 11.8006 8.80095 11.7183 8.59375 11.7183Z" fill="white"/>
<path d="M8.59375 14.8433H5.46875C5.26155 14.8433 5.06284 14.9256 4.91632 15.0721C4.76981 15.2186 4.6875 15.4173 4.6875 15.6245C4.6875 15.8317 4.76981 16.0304 4.91632 16.1769C5.06284 16.3235 5.26155 16.4058 5.46875 16.4058H8.59375C8.80095 16.4058 8.99966 16.3235 9.14618 16.1769C9.29269 16.0304 9.375 15.8317 9.375 15.6245C9.375 15.4173 9.29269 15.2186 9.14618 15.0721C8.99966 14.9256 8.80095 14.8433 8.59375 14.8433Z" fill="white"/>
<path d="M8.59375 17.9683H5.46875C5.26155 17.9683 5.06284 18.0506 4.91632 18.1971C4.76981 18.3436 4.6875 18.5423 4.6875 18.7495C4.6875 18.9567 4.76981 19.1554 4.91632 19.3019C5.06284 19.4485 5.26155 19.5308 5.46875 19.5308H8.59375C8.80095 19.5308 8.99966 19.4485 9.14618 19.3019C9.29269 19.1554 9.375 18.9567 9.375 18.7495C9.375 18.5423 9.29269 18.3436 9.14618 18.1971C8.99966 18.0506 8.80095 17.9683 8.59375 17.9683Z" fill="white"/>
<path d="M28.2188 22.4215C28.1675 22.3322 28.0991 22.2539 28.0175 22.1911C27.936 22.1283 27.8429 22.0821 27.7435 22.0553C27.6441 22.0284 27.5404 22.0214 27.4383 22.0347C27.3362 22.0479 27.2377 22.0811 27.1485 22.1324C27.0592 22.1837 26.9809 22.2521 26.9181 22.3336C26.8552 22.4152 26.8091 22.5083 26.7823 22.6077C26.7554 22.7071 26.7484 22.8108 26.7616 22.9129C26.7749 23.015 26.8081 23.1135 26.8594 23.2027L30.3047 29.1637L17.8047 33.8512C17.8047 33.8512 17.8047 33.8512 17.75 33.8512H17.6875L15.6563 35.023L14.3047 35.8043C14.1268 35.9072 13.9303 35.9739 13.7265 36.0007C13.5228 36.0275 13.3157 36.0139 13.1172 35.9605C12.7185 35.8528 12.3786 35.5916 12.1719 35.234L10.6094 32.5309C10.4256 32.1772 10.3839 31.7667 10.4928 31.3832C10.6017 30.9998 10.853 30.6725 11.1953 30.4684L13.8985 28.9059L15.8516 32.2887C15.9204 32.4079 16.0195 32.5068 16.1389 32.5754C16.2582 32.644 16.3936 32.6798 16.5313 32.6793C16.6687 32.6798 16.8038 32.6441 16.923 32.5758C17.0422 32.5074 17.1412 32.4089 17.2102 32.29C17.2791 32.1712 17.3155 32.0362 17.3156 31.8988C17.3158 31.7614 17.2797 31.6264 17.211 31.5074L15.1953 28.023L25 19.9371L25.3203 20.4918C25.3716 20.581 25.44 20.6593 25.5216 20.7222C25.6031 20.785 25.6962 20.8311 25.7956 20.858C25.895 20.8848 25.9987 20.8918 26.1008 20.8786C26.2029 20.8654 26.3014 20.8321 26.3906 20.7809C26.4799 20.7296 26.5582 20.6612 26.621 20.5796C26.6838 20.4981 26.73 20.4049 26.7568 20.3056C26.7837 20.2062 26.7907 20.1025 26.7775 20.0004C26.7642 19.8983 26.731 19.7998 26.6797 19.7105L25.8985 18.359C25.8412 18.2611 25.7633 18.1768 25.6702 18.1121C25.5771 18.0473 25.4711 18.0036 25.3594 17.984C25.2471 17.9628 25.1315 17.9665 25.0209 17.9949C24.9102 18.0232 24.8071 18.0755 24.7188 18.148L13.7813 27.1637L10.4531 29.0855C9.85589 29.4334 9.39082 29.9695 9.13071 30.6099C8.8706 31.2502 8.83014 31.9588 9.01565 32.6246L8.2344 33.0699C7.83186 33.3011 7.50703 33.6466 7.30109 34.0626C7.09515 34.4786 7.01738 34.9463 7.07763 35.4066C7.13788 35.8669 7.33345 36.2989 7.63953 36.6478C7.94561 36.9968 8.34842 37.247 8.7969 37.3668C8.99571 37.4195 9.2006 37.4457 9.40627 37.4449C9.81726 37.4432 10.2209 37.3356 10.5781 37.1324L11.3594 36.6871C11.7347 37.0748 12.2067 37.3553 12.7266 37.4996C12.9936 37.5743 13.2697 37.6111 13.5469 37.609C14.096 37.6102 14.6355 37.4646 15.1094 37.1871L15.7891 36.7965L17.3516 39.5074C17.6621 40.0443 18.1728 40.4362 18.7717 40.5973C19.3706 40.7583 20.009 40.6755 20.5469 40.3668C20.8138 40.213 21.0477 40.0082 21.2354 39.7639C21.423 39.5197 21.5607 39.2408 21.6405 38.9433C21.7203 38.6459 21.7407 38.3356 21.7005 38.0302C21.6603 37.7248 21.5603 37.4304 21.4063 37.1637L19.9844 34.6871L31.7031 30.2887C31.8094 30.2487 31.9057 30.1861 31.9853 30.1051C32.0649 30.0242 32.1259 29.9268 32.1641 29.8199C32.2021 29.7142 32.2169 29.6016 32.2075 29.4897C32.198 29.3778 32.1646 29.2693 32.1094 29.1715L28.2188 22.4215ZM9.76565 35.773C9.67668 35.8245 9.57844 35.8578 9.47655 35.8713C9.37467 35.8847 9.27114 35.8778 9.1719 35.8512C8.97174 35.7992 8.80036 35.6699 8.69533 35.4918C8.6439 35.4028 8.61053 35.3046 8.59712 35.2027C8.58371 35.1008 8.59054 34.9973 8.61721 34.898C8.64388 34.7983 8.69006 34.7048 8.75309 34.623C8.81612 34.5412 8.89473 34.4727 8.9844 34.4215L9.66408 34.0309L10.4453 35.3824L9.76565 35.773ZM20.0469 37.9605C20.0983 38.0495 20.1317 38.1477 20.1451 38.2496C20.1585 38.3515 20.1517 38.455 20.125 38.5543C20.0693 38.7529 19.9373 38.9214 19.7578 39.023C19.5794 39.1255 19.3677 39.1535 19.1688 39.1008C18.9698 39.0482 18.7997 38.9192 18.6953 38.7418L17.1328 36.0309L18.4297 35.2887H18.4922L20.0469 37.9605Z" fill="white"/>
</svg>
