<svg width="48" height="51" viewBox="0 0 48 51" fill="none" xmlns="http://www.w3.org/2000/svg">
<path d="M11.6848 5.05859C9.97723 5.05859 8.58807 6.45762 8.58807 8.17726C8.58807 9.8969 9.97723 11.296 11.6848 11.296C13.3923 11.296 14.7815 9.8969 14.7815 8.17726C14.7815 6.45762 13.3923 5.05859 11.6848 5.05859ZM11.6848 9.82078C10.7849 9.82078 10.0529 9.08355 10.0529 8.17726C10.0529 7.27107 10.7849 6.53384 11.6848 6.53384C12.5847 6.53384 13.3167 7.27107 13.3167 8.17726C13.3166 9.08355 12.5846 9.82078 11.6848 9.82078Z" fill="white"/>
<path d="M14.7814 22.1447V19.2929C14.7814 18.8854 14.4536 18.5552 14.049 18.5552H6.58862C6.18403 18.5552 5.8562 18.8854 5.8562 19.2929V22.1447C5.8562 22.5523 6.18403 22.8825 6.58862 22.8825H14.0491C14.4536 22.8825 14.7814 22.5523 14.7814 22.1447ZM13.3166 21.407H7.32104V20.0307H13.3166V21.407H13.3166Z" fill="white"/>
<path d="M45.6561 6.31739H41.007C40.1973 6.31739 39.4912 6.77108 39.1254 7.43904H19.611V6.97148C19.611 6.6227 19.3684 6.32171 19.0295 6.24983L17.2447 5.87146C17.2415 5.86359 17.2382 5.85573 17.2349 5.84786L18.2313 4.30959C18.4206 4.01745 18.3806 3.6318 18.1357 3.38528L16.4432 1.68103C16.1983 1.43442 15.8154 1.3941 15.5252 1.58476L13.9973 2.58812C13.9895 2.58488 13.9818 2.58163 13.974 2.57829L13.5982 0.781112C13.5269 0.439808 13.2279 0.195557 12.8815 0.195557H10.4879C10.1415 0.195557 9.84254 0.439808 9.77116 0.781112L9.39537 2.57829C9.38756 2.58153 9.37985 2.58478 9.37204 2.58812L7.8443 1.58476C7.55416 1.3942 7.17116 1.43461 6.92623 1.68103L5.23366 3.38519C4.98873 3.6319 4.94889 4.01755 5.13805 4.30959L6.13453 5.84796C6.13131 5.85583 6.12809 5.86359 6.12477 5.87146L4.33991 6.24983C4.00094 6.32162 3.75836 6.6227 3.75836 6.97148V7.43904H3.73893C1.79586 7.43904 0.214905 9.0308 0.214905 10.9874V33.9281C0.214905 35.8845 1.79576 37.4764 3.73893 37.4764H6.51373C6.86784 40.0461 9.10924 41.997 11.6844 41.997C12.4438 41.997 13.165 41.8316 13.8166 41.537L12.16 48.0636C11.5022 50.6548 15.6023 51.535 16.2342 49.0469L19.1712 37.4766H21.5556V48.5552C21.5556 49.635 22.4551 50.5406 23.5274 50.5406C24.5999 50.5406 25.4992 49.635 25.4992 48.5552V37.4764H27.8839L30.8207 49.0466C31.452 51.5343 35.5529 50.6555 34.8949 48.0634L32.2078 37.4764H43.3162C45.2592 37.4764 46.8402 35.8846 46.8402 33.9281V17.9933C46.8402 17.5859 46.5124 17.2558 46.1078 17.2558C45.7032 17.2558 45.3754 17.5859 45.3754 17.9933V33.9281C45.3754 35.0713 44.4516 36.0015 43.3162 36.0015L16.8548 36.0015C16.4974 33.4503 14.3156 31.4809 11.6845 31.4809C9.10924 31.4809 6.86793 33.4315 6.51383 36.0015H3.73893C2.60348 36.0015 1.67975 35.0713 1.67975 33.9281V12.5083H5.02272C5.03688 12.6772 5.10758 12.841 5.23366 12.9679L6.92623 14.6721C7.17106 14.9185 7.55387 14.9589 7.8442 14.7684L9.37194 13.765C9.37975 13.7682 9.38756 13.7715 9.39537 13.7748L9.77116 15.572C9.84245 15.9133 10.1415 16.1576 10.4879 16.1576H12.8815C13.2279 16.1576 13.5268 15.9133 13.5982 15.572L13.974 13.7748C13.9818 13.7716 13.9896 13.7683 13.9974 13.765L15.5252 14.7684C15.8155 14.959 16.1985 14.9186 16.4432 14.6721L18.1357 12.9679C18.2618 12.841 18.3324 12.6772 18.3465 12.5083H38.5973L31.7695 19.3833L28.2625 15.853C27.7166 15.301 26.8096 15.3013 26.263 15.852L23.9862 18.1443C23.7001 18.4323 23.7001 18.8993 23.9861 19.1872C24.2721 19.4751 24.7359 19.4753 25.0218 19.1873L27.2622 16.9317L30.7703 20.4631C31.3165 21.0127 32.223 21.0144 32.7688 20.463L42.7364 10.4266C42.9459 10.2156 43.0085 9.89847 42.8951 9.62285C42.7818 9.34723 42.5146 9.16758 42.2184 9.16758H41.0068C40.1259 9.16758 40.1268 7.79234 41.0068 7.79234H45.6559C46.0218 7.79234 46.3196 8.09165 46.3196 8.45951V13.1407C46.3196 13.5162 46.009 13.8289 45.6361 13.8289C45.2593 13.8289 44.9527 13.5202 44.9527 13.1407V11.9218C44.9527 11.6236 44.7743 11.3545 44.5006 11.2405C44.2268 11.1261 43.9119 11.1893 43.7024 11.4003L31.77 23.414L28.2615 19.8822C27.7113 19.3284 26.8153 19.3281 26.2629 19.8823L20.2518 25.9358C19.6365 26.5564 18.6623 25.5913 19.2862 24.9626L22.5809 21.6454C22.867 21.3573 22.867 20.8904 22.5809 20.6024C22.2949 20.3146 21.8311 20.3144 21.5452 20.6024L18.2505 23.9196C17.397 24.7791 17.4321 26.2129 18.3133 27.0368C19.1476 27.8169 20.4837 27.7899 21.2882 26.9783L27.2623 20.9622L30.7704 24.4935C31.3142 25.043 32.2243 25.0449 32.7688 24.4945L43.5465 13.6434C43.772 14.5946 44.6234 15.3041 45.6362 15.3041C46.8063 15.3041 47.7845 14.3194 47.7845 13.1409V8.45951C47.7846 7.27827 46.8298 6.31739 45.6561 6.31739ZM14.815 48.6814C14.6526 49.3212 13.3947 49.1556 13.5794 48.4288L15.6918 40.1063C16.3015 39.372 16.7157 38.4684 16.8547 37.4765H17.6592L14.815 48.6814ZM24.0344 48.5551C24.0344 49.2119 23.0205 49.213 23.0205 48.5551V37.4764H24.0344V48.5551ZM33.4757 48.4287C33.6599 49.1539 32.4024 49.3206 32.2401 48.6814L29.396 37.4764H30.6959L33.4757 48.4287ZM10.8365 33.0522C11.1134 32.9883 11.3988 32.9559 11.6845 32.9559C13.7562 32.9559 15.4416 34.6523 15.4423 36.7376L15.4422 36.7389L15.4423 36.7402C15.4416 38.8256 13.7561 40.522 11.6845 40.522C9.62887 40.522 7.92741 38.807 7.92741 36.7388C7.92741 34.9656 9.12399 33.4496 10.8365 33.0522ZM1.67975 10.9874C1.67975 9.84409 2.60348 8.91399 3.73893 8.91399H3.75836V9.38165C3.75836 9.73042 4.00094 10.0314 4.33991 10.1033L6.12477 10.4817C6.12799 10.4895 6.13121 10.4973 6.13453 10.5052L5.79235 11.0334H1.67975V10.9874ZM15.8276 13.2059L14.4593 12.3073C13.9625 11.9812 12.7442 12.4959 12.6236 13.0732L12.2872 14.6824H11.0822L10.7458 13.0732C10.6237 12.4888 9.40075 11.985 8.91002 12.3073L7.54176 13.2059L6.68961 12.348L7.58209 10.9703C7.90582 10.4701 7.39489 9.24329 6.82145 9.12186L5.22321 8.78311V7.56992L6.82145 7.23117C7.40202 7.10826 7.90192 5.87687 7.58209 5.38276L6.68961 4.00506L7.54176 3.14703L8.91002 4.04567C9.4068 4.37173 10.6252 3.85717 10.7458 3.27978L11.0823 1.67051H12.2873L12.6237 3.27978C12.7458 3.86425 13.9687 4.3678 14.4594 4.04567L15.8277 3.14703L16.6798 4.00506L15.7873 5.38276C15.4633 5.88287 15.9747 7.10983 16.548 7.23117L18.1462 7.56992V8.78321L16.548 9.12196C15.9676 9.24477 15.4673 10.4764 15.7873 10.9704L16.6798 12.3481L15.8276 13.2059ZM40.5083 10.5842L40.0623 11.0333H17.577L17.2349 10.5052C17.2381 10.4973 17.2414 10.4894 17.2447 10.4816L19.0295 10.1032C19.3684 10.0314 19.611 9.73032 19.611 9.38155V8.91389H38.9031C39.0668 9.72737 39.7059 10.3932 40.5083 10.5842Z" fill="white"/>
<path d="M41.6485 31.073H27.7673C27.3627 31.073 27.0349 31.4033 27.0349 31.811C27.0349 32.2186 27.3627 32.549 27.7673 32.549H41.6485C42.0531 32.549 42.3809 32.2186 42.3809 31.811C42.3809 31.4033 42.053 31.073 41.6485 31.073Z" fill="white"/>
<path d="M41.6485 27.8374H33.4189C33.0144 27.8374 32.6865 28.1677 32.6865 28.5754C32.6865 28.983 33.0144 29.3134 33.4189 29.3134H41.6485C42.0531 29.3134 42.381 28.983 42.381 28.5754C42.381 28.1677 42.053 27.8374 41.6485 27.8374Z" fill="white"/>
<path d="M6.58862 24.2068C6.18403 24.2068 5.8562 24.5371 5.8562 24.9448C5.8562 25.3524 6.18403 25.6827 6.58862 25.6827H11.6847C12.0893 25.6827 12.4171 25.3524 12.4171 24.9448C12.4171 24.5371 12.0893 24.2068 11.6847 24.2068H6.58862Z" fill="white"/>
<path d="M11.6848 38.4721C12.0894 38.4721 12.4172 38.1419 12.4172 37.7344V35.7446C12.4172 35.3371 12.0894 35.0068 11.6848 35.0068C11.2802 35.0068 10.9524 35.3371 10.9524 35.7446V37.7344C10.9524 38.1418 11.2802 38.4721 11.6848 38.4721Z" fill="white"/>
</svg>
