<svg width="200" height="67" viewBox="0 0 200 67" fill="none" xmlns="http://www.w3.org/2000/svg">
<g clip-path="url(#clip0_201_381)">
<path d="M50.3657 58.3784L49.6025 59.3323C48.8712 58.6646 47.9491 58.2512 46.8045 58.2512C44.8649 58.2512 43.4658 59.6503 43.4658 61.717C43.4658 63.752 44.8649 65.1829 46.8045 65.1829C48.0445 65.1829 49.0302 64.7377 49.6979 63.9746L50.4929 64.8331C49.6661 65.8506 48.3625 66.4547 46.7409 66.4547C44.0382 66.4547 42.0986 64.5151 42.0986 61.717C42.0986 58.9189 44.0382 56.9794 46.7409 56.9794C48.2671 56.9476 49.5072 57.4881 50.3657 58.3784V58.3784Z" fill="#6C6D6D"/>
<path d="M54.4038 59.0779C55.0397 57.7106 56.1844 56.9793 57.7742 56.9475V58.3784C55.8029 58.3148 54.5946 59.5548 54.4038 61.399V66.3911H53.0366V57.0111H54.4038V59.0779Z" fill="#6C6D6D"/>
<path fill-rule="evenodd" clip-rule="evenodd" d="M67.7266 62.2258H60.0636C60.318 64.07 61.6534 65.2465 63.4658 65.2465C64.6423 65.2465 65.6598 64.8331 66.3911 64.07L67.1542 64.8649C66.2639 65.8824 64.9285 66.4547 63.3704 66.4547C60.6041 66.4547 58.6964 64.5151 58.6964 61.717C58.6964 58.9189 60.6359 56.9794 63.3386 56.9794C66.3911 56.9476 67.8855 59.0461 67.7266 62.2258ZM66.4865 61.1129C66.3911 59.3005 65.1828 58.1558 63.3386 58.1558C61.558 58.1558 60.2862 59.3323 60.0636 61.1129H66.4865Z" fill="#6C6D6D"/>
<path fill-rule="evenodd" clip-rule="evenodd" d="M75.9301 64.9602C75.1988 65.9459 73.9905 66.4547 72.4961 66.4547C70.5565 66.4547 69.3164 65.2146 69.3164 63.593C69.3164 61.9714 70.6201 60.9221 72.814 60.9221H75.8983V60.3497C75.8983 58.9825 75.0398 58.1558 73.3864 58.1558C72.3689 58.1558 71.3832 58.5691 70.4293 59.2369L69.8252 58.2194C71.0334 57.4245 72.0509 56.9475 73.6407 56.9475C75.9619 56.9475 77.2337 58.1876 77.2655 60.1908L77.2973 66.3911H75.9301V64.9602ZM75.8983 63.1478V62.035H73.0048C71.415 62.035 70.6201 62.5119 70.6201 63.5612C70.6201 64.5787 71.4468 65.2464 72.7504 65.2464C74.3403 65.2464 75.5485 64.4515 75.8983 63.1478V63.1478Z" fill="#6C6D6D"/>
<path d="M85.2146 65.7551C84.5787 66.2003 83.8474 66.4547 83.1161 66.4547C81.7488 66.4547 80.7313 65.628 80.7313 63.7838V58.4419H79.3641V57.2973H80.7313V54.8489H82.0986V57.2973H85.0556V58.4419H82.0986V63.5294C82.0986 64.6741 82.5437 65.1192 83.3386 65.1192C83.8262 65.1192 84.3243 64.9496 84.8331 64.6105L85.2146 65.7551Z" fill="#6C6D6D"/>
<path d="M88.903 54.3084C88.903 54.8808 88.5215 55.2941 87.9809 55.2941C87.4722 55.2941 87.0906 54.8808 87.0906 54.3084C87.0906 53.7679 87.4722 53.3546 87.9809 53.3546C88.5215 53.3546 88.903 53.7679 88.903 54.3084ZM87.3132 66.3911V57.0112H88.6805V66.3911H87.3132Z" fill="#6C6D6D"/>
<path d="M94.1813 66.3911L90.4611 57.0111H91.9237L94.9126 64.9602L97.9014 57.0111H99.3005L95.6121 66.3911H94.1813Z" fill="#6C6D6D"/>
<path fill-rule="evenodd" clip-rule="evenodd" d="M108.712 62.2258H101.049C101.304 64.07 102.639 65.2465 104.451 65.2465C105.628 65.2465 106.614 64.8331 107.345 64.07L108.108 64.8649C107.218 65.8824 105.914 66.4547 104.356 66.4547C101.59 66.4547 99.682 64.5151 99.682 61.717C99.682 58.9189 101.622 56.9794 104.324 56.9794C107.345 56.9476 108.839 59.0461 108.712 62.2258ZM107.472 61.1129C107.377 59.3005 106.168 58.1558 104.324 58.1558C102.544 58.1558 101.272 59.3323 101.049 61.1129H107.472Z" fill="#6C6D6D"/>
<path d="M116.057 66.3911V53.1956H117.456V66.3911H116.057Z" fill="#6C6D6D"/>
<path fill-rule="evenodd" clip-rule="evenodd" d="M128.998 62.2258H121.335C121.59 64.07 122.925 65.2465 124.738 65.2465C125.882 65.2465 126.9 64.8331 127.631 64.07L128.394 64.8649C127.504 65.8824 126.2 66.4547 124.642 66.4547C121.876 66.4547 119.968 64.5151 119.968 61.717C119.968 58.9189 121.908 56.9794 124.61 56.9794C127.631 56.9476 129.126 59.0461 128.998 62.2258ZM127.758 61.1129C127.663 59.3005 126.455 58.1558 124.61 58.1558C122.83 58.1558 121.558 59.3323 121.335 61.1129H127.758Z" fill="#6C6D6D"/>
<path d="M136.216 65.7551C135.548 66.2003 134.849 66.4547 134.086 66.4547C132.719 66.4547 131.733 65.628 131.733 63.7838V58.4419H130.366V57.2973H131.733V54.8489H133.1V57.2973H136.057V58.4419H133.1V63.5294C133.1 64.6741 133.545 65.1192 134.34 65.1192C134.807 65.1192 135.305 64.9496 135.835 64.6105L136.216 65.7551Z" fill="#6C6D6D"/>
<path d="M143.148 65.7551C142.512 66.2003 141.781 66.4547 141.049 66.4547C139.682 66.4547 138.665 65.628 138.665 63.7838V58.4419H137.297V57.2973H138.665V54.8489H140.032V57.2973H142.989V58.4419H140.032V63.5294C140.032 64.6741 140.477 65.1192 141.272 65.1192C141.759 65.1192 142.258 64.9496 142.766 64.6105L143.148 65.7551Z" fill="#6C6D6D"/>
<path fill-rule="evenodd" clip-rule="evenodd" d="M153.196 62.2258H145.533C145.787 64.07 147.122 65.2465 148.935 65.2465C150.111 65.2465 151.129 64.8331 151.828 64.07L152.623 64.8649C151.733 65.8824 150.397 66.4547 148.839 66.4547C146.073 66.4547 144.165 64.5151 144.165 61.717C144.165 58.9189 146.105 56.9794 148.808 56.9794C151.828 56.9476 153.323 59.0461 153.196 62.2258V62.2258ZM151.955 61.1129C151.86 59.3005 150.652 58.1558 148.808 58.1558C147.027 58.1558 145.755 59.3323 145.533 61.1129H151.955Z" fill="#6C6D6D"/>
<path d="M156.979 59.0779C157.583 57.7106 158.76 56.9793 160.318 56.9475V58.3784C158.347 58.3148 157.138 59.5548 156.979 61.399V66.3911H155.58V57.0111H156.979V59.0779Z" fill="#6C6D6D"/>
<path d="M167.695 57.806L167.154 58.9189C166.423 58.4419 165.469 58.1558 164.611 58.1558C163.561 58.1558 162.766 58.5373 162.766 59.3958C162.766 61.4626 167.981 60.4133 167.981 63.7838C167.981 65.628 166.359 66.4547 164.547 66.4547C163.211 66.4547 161.844 65.9777 160.954 65.1192L161.494 64.0699C162.289 64.833 163.498 65.2782 164.611 65.2782C165.692 65.2782 166.582 64.8648 166.614 63.9427C166.677 61.6852 161.431 62.8299 161.431 59.4912C161.431 57.7106 162.989 56.9475 164.706 56.9475C165.819 56.9475 166.9 57.2655 167.695 57.806V57.806Z" fill="#6C6D6D"/>
<path d="M54.1494 12.9412V9.03023C54.1494 7.24963 53.2803 6.35932 51.5421 6.35932H50.5882C48.8924 6.35932 48.0445 7.24963 48.0445 9.03023V16.407C48.0445 17.2337 48.2141 17.7955 48.5533 18.0922C48.8924 18.3678 49.433 18.7388 50.1749 19.2051L55.8029 22.2258C57.0535 22.9465 57.9332 23.4976 58.442 23.8792C58.9507 24.282 59.3535 24.7589 59.6502 25.31C59.947 25.8612 60.0954 26.9211 60.0954 28.4897V37.9968C60.0954 42.9995 57.7001 45.5008 52.9094 45.5008H49.2528C44.4833 45.5008 42.0986 42.7663 42.0986 37.2973V35.0716H48.0445V37.4881C48.0445 39.2263 48.9348 40.0954 50.7154 40.0954H51.7647C53.3545 40.0954 54.1494 39.2263 54.1494 37.4881V29.9205C54.1494 29.0938 53.9799 28.5427 53.6407 28.2671C53.3015 27.9703 52.761 27.5888 52.0191 27.1224L46.3911 23.9746C45.1404 23.3175 44.2395 22.7557 43.6884 22.2894C43.1373 21.8442 42.7345 21.2613 42.4801 20.5406C42.2258 19.8198 42.0986 18.8765 42.0986 17.7107V8.58508C42.0986 3.49764 44.4833 0.953918 49.2528 0.953918H52.973C57.7213 0.953918 60.0954 3.49764 60.0954 8.58508V12.9412H54.1494Z" fill="#0E5AF2"/>
<path d="M84.3879 0.953918V37.0747C84.3879 42.6921 81.9926 45.5008 77.2019 45.5008H72.1781C67.4298 45.5008 65.0557 42.6709 65.0557 37.0112V0.953918H71.0016V37.1701C71.0016 39.1203 71.8707 40.0954 73.6089 40.0954H76.0255C77.6365 40.0954 78.442 39.1203 78.442 37.1701V0.953918H84.3879Z" fill="#0E5AF2"/>
<path fill-rule="evenodd" clip-rule="evenodd" d="M89.9841 0.953918H100.827C105.617 0.953918 108.013 3.49764 108.013 8.58508V21.8124C108.013 26.8575 105.639 29.38 100.89 29.38H95.9301V45.5008H89.9841V0.953918ZM95.9301 23.9428H99.7139C101.282 23.9428 102.067 23.0737 102.067 21.3355V8.93484C102.067 7.19663 101.177 6.32753 99.3959 6.32753H95.9301V23.9428Z" fill="#0E5AF2"/>
<path fill-rule="evenodd" clip-rule="evenodd" d="M112.432 0.953918H124.07C128.627 0.953918 130.906 3.49764 130.906 8.58508V19.5867C130.906 23.4658 129.73 25.9248 127.377 26.9635L131.51 45.5008H125.882L121.971 27.504H118.378V45.5008H112.432V0.953918ZM118.378 22.4166H122.289C124.049 22.4166 124.928 21.3355 124.928 19.1733V9.57077C124.928 7.40861 124.049 6.32753 122.289 6.32753H118.378V22.4166Z" fill="black"/>
<path d="M136.184 45.5008V0.953918H150.938V6.35932H142.13V19.8728H149.952V25.2782H142.13V40.0954H150.938V45.5008H136.184Z" fill="#0E5AF2"/>
<path d="M167.313 27.1224L172.814 0.953918H179.396V45.5008H173.45L174.054 16.3434L169.603 37.4245H165.024L160.541 16.3434L161.176 45.5008H155.199V0.953918H161.781L167.313 27.1224Z" fill="#0E5AF2"/>
<path d="M184.992 45.5008V0.953918H199.746V6.35932H190.938V19.8728H198.76V25.2782H190.938V40.0954H199.746V45.5008H184.992Z" fill="#0E5AF2"/>
<path d="M29.6979 6.96343C29.8251 10.5882 28.2989 12.9412 25.2146 14.7536C21.4308 16.9475 17.5517 19.2369 13.7361 21.4308C9.53895 23.8474 8.48966 26.8044 11.5103 30.7154C10.5246 32.8776 7.09062 32.4642 5.18283 32.1463C3.08426 30.8744 2.44833 28.0445 2.57551 25.7552C2.76629 22.4801 4.4833 19.3641 6.86804 17.1383C14.4568 11.4149 22.0668 5.70217 29.6979 0C29.6979 2.33174 29.6979 4.65289 29.6979 6.96343Z" fill="url(#paint0_linear_201_381)"/>
<path d="M12.0509 37.4881C9.92052 38.6327 7.56757 39.9364 5.37362 41.1129C3.37044 42.194 0.254379 41.5898 0.15899 38.9189C7.19537e-06 33.3863 -0.667719 25.9777 2.7663 21.3672C3.91098 19.841 5.27823 18.3466 6.86805 17.1383C2.00319 21.5262 6.67727 26.4547 10.2703 29.6661C11.0334 30.3339 11.5103 30.7154 11.5103 30.7154C13.7043 32.496 15.3259 35.7393 12.0509 37.4881Z" fill="url(#paint1_linear_201_381)"/>
<path d="M0.286153 54.9443C0.190763 51.3195 1.6852 48.9666 4.76946 47.1542C8.55324 44.9602 12.4642 42.6709 16.248 40.4769C20.4769 38.0604 21.5262 35.1033 18.4738 31.1924C19.4594 29.0302 22.8935 29.4435 24.8013 29.7297C26.8998 31.0334 27.5358 33.8633 27.4086 36.1526C27.2496 39.4276 25.5008 42.5437 23.116 44.7695C15.5273 50.4928 7.91731 56.2056 0.286153 61.9078C0.286153 59.576 0.286153 57.2549 0.286153 54.9443V54.9443Z" fill="url(#paint2_linear_201_381)"/>
<path d="M17.9332 24.4197C20.0636 23.275 22.4165 21.9714 24.6105 20.7949C26.6137 19.7138 29.7615 20.318 29.8251 22.9571C29.9841 28.4897 30.6518 35.93 27.2178 40.5405C26.0731 42.0668 24.7377 43.5294 23.1161 44.7695C27.9809 40.3816 23.3068 35.4531 19.7138 32.2416C18.9507 31.5739 18.4738 31.1924 18.4738 31.1924C16.2798 29.4118 14.6582 26.1685 17.9332 24.4197V24.4197Z" fill="url(#paint3_linear_201_381)"/>
</g>
<defs>
<linearGradient id="paint0_linear_201_381" x1="2725.23" y1="3486.62" x2="162.035" y2="3343.17" gradientUnits="userSpaceOnUse">
<stop stop-color="#00C4FF"/>
<stop offset="1" stop-color="#001973"/>
</linearGradient>
<linearGradient id="paint1_linear_201_381" x1="617.465" y1="3307.62" x2="-10.2243" y2="3283.85" gradientUnits="userSpaceOnUse">
<stop stop-color="#001973"/>
<stop offset="1" stop-color="#00C4FF"/>
</linearGradient>
<linearGradient id="paint2_linear_201_381" x1="-162.571" y1="2849.27" x2="2400.45" y2="2994.94" gradientUnits="userSpaceOnUse">
<stop stop-color="#00C4FF"/>
<stop offset="1" stop-color="#001973"/>
</linearGradient>
<linearGradient id="paint3_linear_201_381" x1="710.027" y1="1496.65" x2="1337.72" y2="1520.42" gradientUnits="userSpaceOnUse">
<stop stop-color="#001973"/>
<stop offset="1" stop-color="#00C4FF"/>
</linearGradient>
<clipPath id="clip0_201_381">
<rect width="200" height="66.4547" fill="white"/>
</clipPath>
</defs>
</svg>
