<svg width="201" height="42" viewBox="0 0 201 42" fill="none" xmlns="http://www.w3.org/2000/svg">
<path fill-rule="evenodd" clip-rule="evenodd" d="M67.9172 4.57833V9.92377C68.4217 9.07761 69.1376 8.38604 70.0652 7.84905C70.8625 7.4097 71.8388 7.19003 72.9942 7.19003C75.0933 7.19003 76.81 8.05246 78.1444 9.77733C79.4787 11.5185 80.1458 13.764 80.1458 16.514C80.1458 19.2803 79.4787 21.5259 78.1444 23.2508C77.4772 24.0969 76.5741 24.7153 75.435 25.1058C74.296 25.4801 73.1732 25.6672 72.0667 25.6672C69.935 25.6672 67.9579 25.1058 66.1354 23.983C64.3129 22.8765 63.4017 20.7448 63.4017 17.588V2.30835H65.6717C66.29 2.30835 66.8189 2.52802 67.2582 2.96737C67.6976 3.423 67.9172 3.95998 67.9172 4.57833V4.57833ZM75.5327 16.3188C75.5327 14.7241 75.1991 13.4793 74.5319 12.5843C73.8647 11.6568 72.9535 11.193 71.7982 11.193C70.5615 11.193 69.6095 11.6324 68.9424 12.5111C68.2589 13.4549 67.9172 14.7241 67.9172 16.3188C67.9172 18.1901 68.2345 19.5488 68.8692 20.395C69.5363 21.3225 70.472 21.7863 71.6761 21.7863C72.9128 21.7863 73.8647 21.3225 74.5319 20.395C75.1991 19.4512 75.5327 18.0925 75.5327 16.3188Z" fill="black"/>
<path d="M82.0253 2.38159H84.4173C85.0519 2.38159 85.5889 2.60127 86.0282 3.04062C86.4676 3.47997 86.6873 4.01696 86.6873 4.65158V6.04285H82.0253V2.38159ZM82.0253 7.58059H84.4173C85.0519 7.58059 85.5889 7.8084 86.0282 8.26402C86.4676 8.70337 86.6873 9.23222 86.6873 9.85057V25.3255H82.0253V7.58059Z" fill="black"/>
<path d="M89.0549 25.3255V16.7093C89.0549 14.9845 89.3071 13.5281 89.8115 12.3402C90.316 11.1686 91.0157 10.2248 91.9107 9.50883C92.7568 8.84167 93.7494 8.3535 94.8885 8.04432C96.0113 7.73515 97.1747 7.58057 98.3789 7.58057C98.4765 7.58057 98.5904 7.58057 98.7206 7.58057C98.8508 7.58057 98.9647 7.58057 99.0623 7.58057V12.3158H97.5246C96.2228 12.3158 95.2627 12.625 94.6444 13.2433C94.026 13.8779 93.7169 14.8624 93.7169 16.1967V25.3255H89.0549Z" fill="black"/>
<path fill-rule="evenodd" clip-rule="evenodd" d="M111.95 2.30835H114.22C114.838 2.30835 115.367 2.5443 115.807 3.01619C116.262 3.47182 116.49 3.99253 116.49 4.57833V17.588C116.49 20.7448 115.579 22.8765 113.756 23.983C111.934 25.1058 109.949 25.6672 107.801 25.6672C106.645 25.6672 105.514 25.4801 104.408 25.1058C103.301 24.7153 102.414 24.0969 101.747 23.2508C100.446 21.6073 99.7946 19.3617 99.7946 16.514C99.7946 13.7152 100.446 11.4696 101.747 9.77733C103.082 8.05246 104.79 7.19003 106.873 7.19003C107.98 7.19003 108.956 7.4097 109.802 7.84905C110.697 8.38604 111.413 9.07761 111.95 9.92377V2.30835ZM104.335 16.3188C104.335 18.0925 104.668 19.4431 105.335 20.3706C106.002 21.3144 106.963 21.7863 108.216 21.7863C109.42 21.7863 110.355 21.3144 111.022 20.3706C111.641 19.4431 111.95 18.0925 111.95 16.3188C111.95 14.7078 111.616 13.4386 110.949 12.5111C110.233 11.6161 109.273 11.1686 108.069 11.1686C106.914 11.1686 106.002 11.6405 105.335 12.5843C104.668 13.463 104.335 14.7078 104.335 16.3188V16.3188Z" fill="black"/>
<path d="M137.213 25.3255H132.551L129.817 12.6575L127.083 25.3255H122.421L117.54 7.58057H122.08L124.886 19.858L127.425 7.58057H132.16L134.552 19.858L137.017 9.19152C137.294 8.11755 138.01 7.58057 139.165 7.58057H142.094L137.213 25.3255Z" fill="url(#paint0_linear_201_474)"/>
<path d="M143.412 2.38159H145.804C146.423 2.38159 146.96 2.60127 147.415 3.04062C147.855 3.47997 148.074 4.01696 148.074 4.65158V6.04285H143.412V2.38159ZM143.412 7.58059H145.804C146.423 7.58059 146.96 7.8084 147.415 8.26402C147.855 8.70337 148.074 9.23222 148.074 9.85057V25.3255H143.412V7.58059Z" fill="url(#paint1_linear_201_474)"/>
<path d="M165.404 25.3255H163.086C162.418 25.3255 161.873 25.114 161.45 24.6909C161.027 24.2678 160.816 23.7227 160.816 23.0555V13.9756C160.816 12.9179 160.49 12.145 159.839 11.6568C159.205 11.1686 158.481 10.9245 157.667 10.9245C156.87 10.9245 156.162 11.1686 155.543 11.6568C154.925 12.145 154.616 12.9179 154.616 13.9756V25.3255H149.93V14.9275C149.93 11.9009 150.719 9.87499 152.297 8.84983C153.876 7.82468 155.625 7.27142 157.545 7.19006C159.498 7.19006 161.296 7.6945 162.939 8.70338C164.583 9.72853 165.404 11.8032 165.404 14.9275V25.3255Z" fill="url(#paint2_linear_201_474)"/>
<path fill-rule="evenodd" clip-rule="evenodd" d="M179.073 24.2515V23.1288C178.26 24.3654 177.177 25.1465 175.827 25.472C174.476 25.7811 173.134 25.6672 171.799 25.1302C170.465 24.5933 169.318 23.6007 168.358 22.1524C167.398 20.7042 166.918 18.8085 166.918 16.4653C166.918 13.699 167.552 11.4615 168.822 9.75295C170.091 8.04436 172.125 7.19006 174.924 7.19006C177.055 7.19006 179.041 7.76773 180.879 8.92306C182.702 10.0784 183.613 12.2101 183.613 15.3181V24.7397C183.613 27.8477 182.702 29.9712 180.879 31.1103C179.041 32.2331 177.055 32.7945 174.924 32.7945C170.839 32.7945 168.309 30.8825 167.333 27.0585H172.19C172.548 27.6769 173.093 28.1569 173.825 28.4986C174.558 28.8241 175.29 28.9135 176.022 28.7671C176.754 28.6044 177.421 28.1732 178.024 27.4735C178.626 26.7575 178.975 25.6835 179.073 24.2515V24.2515ZM171.458 16.5873C171.458 19.6628 172.345 21.3632 174.118 21.6887C175.908 22.0304 177.226 21.6236 178.072 20.4682C178.463 19.9801 178.748 19.2071 178.927 18.1494C179.106 17.108 179.122 16.0747 178.975 15.0496C178.813 14.0244 178.447 13.1132 177.877 12.3158C177.291 11.5185 176.445 11.1198 175.339 11.1198C173.825 11.1198 172.8 11.6731 172.263 12.7796C171.726 13.9024 171.458 15.1716 171.458 16.5873V16.5873Z" fill="url(#paint3_linear_201_474)"/>
<path d="M184.687 19.4675H189.227C189.276 20.3462 189.609 21.0134 190.228 21.469C190.895 21.9083 191.782 22.128 192.888 22.128C193.686 22.128 194.377 21.9734 194.963 21.6643C195.5 21.3551 195.768 20.932 195.768 20.395C195.768 19.5977 194.833 18.9956 192.962 18.5888C192.164 18.4586 191.562 18.3284 191.155 18.1983C188.796 17.6125 187.217 16.9209 186.42 16.1235C185.525 15.3262 185.078 14.2604 185.078 12.926C185.078 11.2337 185.728 9.82617 187.03 8.70338C188.365 7.6945 190.098 7.19006 192.229 7.19006C194.54 7.19006 196.387 7.6945 197.77 8.70338C199.055 9.82617 199.747 11.2744 199.845 13.0481H196.965C196.118 13.0481 195.476 12.6738 195.036 11.9253C194.857 11.7463 194.678 11.5673 194.499 11.3883C193.962 10.9815 193.23 10.7781 192.302 10.7781C191.408 10.7781 190.74 10.9164 190.301 11.193C189.894 11.4534 189.691 11.8521 189.691 12.3891C189.691 13.105 190.846 13.7071 193.157 14.1953C193.433 14.2766 193.669 14.3417 193.865 14.3905C194.06 14.4394 194.247 14.4638 194.426 14.4638C196.704 15.0333 198.283 15.7005 199.161 16.4653C200.007 17.2626 200.43 18.3284 200.43 19.6628C200.43 21.6154 199.723 23.1288 198.307 24.2027C196.973 25.1791 194.971 25.6672 192.302 25.6672C189.764 25.6672 187.868 25.1547 186.615 24.1295C185.33 23.1043 184.687 21.6154 184.687 19.6628V19.4675Z" fill="url(#paint4_linear_201_474)"/>
<path d="M69.4528 33.6961C69.0453 33.4357 68.4907 33.3055 67.7888 33.3055C67.2681 33.3055 66.8153 33.3787 66.4305 33.5252C66.0456 33.6879 65.7286 33.8913 65.4796 34.1354C65.2306 34.3958 65.0381 34.6805 64.9023 34.9897C64.7665 35.3151 64.6985 35.6487 64.6985 35.9904C64.6985 36.3159 64.7665 36.6413 64.9023 36.9668C65.0381 37.2922 65.2306 37.577 65.4796 37.8211C65.7286 38.0814 66.0456 38.2848 66.4305 38.4313C66.8153 38.594 67.2681 38.6754 67.7888 38.6754C68.1058 38.6754 68.4114 38.6265 68.7057 38.5289C69 38.4476 69.2604 38.3255 69.4868 38.1628C69.7132 38.0001 69.9056 37.8129 70.0641 37.6014C70.1999 37.3736 70.2905 37.1295 70.3358 36.8691H71.3885C71.2527 37.6339 70.8678 38.2279 70.2339 38.651C69.6 39.0903 68.785 39.31 67.7888 39.31C67.1096 39.31 66.5097 39.2205 65.989 39.0415C65.4909 38.8625 65.0608 38.6266 64.6985 38.3336C64.359 38.0245 64.0986 37.6665 63.9175 37.2597C63.7364 36.8691 63.6458 36.4461 63.6458 35.9904C63.6458 35.5348 63.7364 35.1036 63.9175 34.6968C64.0986 34.29 64.359 33.9401 64.6985 33.6472C65.0608 33.3381 65.4909 33.094 65.989 32.915C66.5097 32.736 67.1096 32.6465 67.7888 32.6465C68.717 32.6465 69.5094 32.8255 70.166 33.1835C70.8225 33.5415 71.2074 34.0866 71.3206 34.8188H70.2678C70.1094 34.3469 69.8377 33.9727 69.4528 33.6961V33.6961Z" fill="#7D8789"/>
<path d="M73.8675 32.8418V34.3063H73.9015C74.1731 33.8019 74.592 33.4113 75.158 33.1347C75.7466 32.8581 76.4371 32.7279 77.2295 32.7442V33.5252C76.7314 33.5089 76.2899 33.5496 75.9051 33.6473C75.4975 33.7612 75.1466 33.9239 74.8523 34.1354C74.5806 34.3307 74.3656 34.5666 74.2071 34.8433C74.0486 35.1362 73.9694 35.4454 73.9694 35.7708V39.1392H72.8827V32.8418H73.8675Z" fill="#7D8789"/>
<path fill-rule="evenodd" clip-rule="evenodd" d="M78.7236 37.04C78.8368 37.3492 79.0066 37.6177 79.233 37.8455C79.4821 38.0896 79.7877 38.2848 80.1499 38.4313C80.5121 38.594 80.9423 38.6754 81.4404 38.6754C82.2327 38.6754 82.844 38.5289 83.2742 38.236C83.7269 37.9431 84.0326 37.5526 84.1911 37.0644H85.2778C85.0514 37.7804 84.6325 38.3337 84.0213 38.7242C83.41 39.1147 82.5497 39.31 81.4404 39.31C80.7612 39.31 80.1612 39.2205 79.6405 39.0415C79.1425 38.8625 78.7349 38.6184 78.418 38.3092C78.101 38.0163 77.8633 37.6665 77.7049 37.2597C77.569 36.8529 77.5011 36.4298 77.5011 35.9904C77.5011 35.5674 77.569 35.1606 77.7049 34.77C77.8633 34.3632 78.101 34.0052 78.418 33.6961C78.7349 33.3869 79.1425 33.1347 79.6405 32.9394C80.1612 32.7441 80.7612 32.6465 81.4404 32.6465C82.1422 32.6465 82.7421 32.7523 83.2402 32.9638C83.7383 33.1591 84.1458 33.4194 84.4627 33.7449C84.7797 34.0866 85.0061 34.469 85.1419 34.8921C85.2777 35.3151 85.3343 35.7464 85.3117 36.1857H78.5538C78.5538 36.4623 78.6104 36.7471 78.7236 37.04V37.04ZM84.0213 34.6968C83.8854 34.4364 83.7043 34.2005 83.4779 33.9889C83.2289 33.7774 82.9346 33.6066 82.595 33.4764C82.2554 33.3625 81.8705 33.3055 81.4404 33.3055C81.0102 33.3055 80.6253 33.3625 80.2857 33.4764C79.9462 33.6066 79.6518 33.7774 79.4028 33.9889C79.1764 34.2005 78.984 34.4364 78.8255 34.6968C78.6897 34.9734 78.5991 35.2582 78.5538 35.5511H84.225C84.225 35.2582 84.1571 34.9734 84.0213 34.6968Z" fill="#7D8789"/>
<path fill-rule="evenodd" clip-rule="evenodd" d="M86.9757 33.8181C87.1568 33.5415 87.3945 33.3218 87.6889 33.1591C88.0058 32.9801 88.3794 32.8499 88.8095 32.7685C89.217 32.6872 89.6811 32.6465 90.2018 32.6465C90.5867 32.6465 90.9716 32.6709 91.3564 32.7197C91.7413 32.7848 92.0809 32.8906 92.3752 33.037C92.6922 33.1835 92.9412 33.3869 93.1223 33.6472C93.3261 33.9076 93.428 34.2493 93.428 34.6724V38.0163C93.428 38.3255 93.6317 38.4801 94.0392 38.4801C94.1751 38.4801 94.2883 38.4638 94.3788 38.4313V39.0903C94.2656 39.1066 94.1524 39.1147 94.0392 39.1147C93.9487 39.131 93.8355 39.1391 93.6996 39.1391C93.428 39.1391 93.2016 39.1066 93.0204 39.0415C92.862 38.9927 92.7375 38.9195 92.6469 38.8218C92.5563 38.7242 92.4997 38.6103 92.4771 38.4801C92.4545 38.3499 92.4431 38.2035 92.4431 38.0407H92.4092C92.2054 38.236 92.0017 38.415 91.7979 38.5777C91.6168 38.7405 91.4017 38.8706 91.1527 38.9683C90.9037 39.0822 90.6207 39.1635 90.3037 39.2124C90.0094 39.2774 89.6472 39.31 89.217 39.31C88.8095 39.31 88.4246 39.2693 88.0624 39.1879C87.7002 39.1229 87.3832 39.0171 87.1116 38.8706C86.8625 38.7242 86.6588 38.5289 86.5003 38.2848C86.3418 38.057 86.2626 37.7885 86.2626 37.4794C86.2626 37.04 86.3984 36.6901 86.6701 36.4298C86.9418 36.1857 87.304 35.9986 87.7568 35.8684C88.2096 35.7382 88.7076 35.6487 89.251 35.5999C89.817 35.5511 90.3943 35.5023 90.9829 35.4535C91.2093 35.4372 91.4017 35.4128 91.5602 35.3802C91.7413 35.364 91.8885 35.3233 92.0017 35.2582C92.1149 35.1931 92.1941 35.1117 92.2394 35.0141C92.3073 34.9002 92.3413 34.7619 92.3413 34.5992C92.3413 34.3388 92.2847 34.1191 92.1715 33.9401C92.0583 33.7774 91.8885 33.6472 91.6621 33.5496C91.4583 33.452 91.2206 33.3869 90.9489 33.3543C90.6773 33.3218 90.383 33.3055 90.066 33.3055C89.3868 33.3055 88.8322 33.4194 88.402 33.6472C87.9719 33.875 87.7455 34.2493 87.7228 34.77H86.6361C86.6814 34.3958 86.7946 34.0784 86.9757 33.8181ZM92.3073 35.6975C92.2394 35.7789 92.1149 35.844 91.9338 35.8928C91.73 35.9254 91.5602 35.9498 91.4244 35.966C90.9716 36.0311 90.4961 36.0799 89.9981 36.1125C89.5227 36.1613 89.0925 36.2345 88.7076 36.3322C88.3001 36.4135 87.9719 36.5356 87.7228 36.6983C87.4738 36.8773 87.3493 37.1214 87.3493 37.4305C87.3493 37.6258 87.3945 37.7967 87.4851 37.9431C87.5983 38.0896 87.7455 38.2197 87.9266 38.3336C88.1077 38.4476 88.3228 38.5289 88.5718 38.5777C88.7982 38.6428 89.0359 38.6754 89.2849 38.6754C89.6924 38.6754 90.0886 38.6265 90.4735 38.5289C90.8357 38.4476 91.1527 38.3174 91.4244 38.1384C91.7187 37.9757 91.9451 37.7723 92.1035 37.5282C92.262 37.2841 92.3413 37.0075 92.3413 36.6983V35.6975H92.3073Z" fill="#7D8789"/>
<path d="M99.0312 32.8417V33.4763H97.2654V37.7234C97.2654 37.9838 97.3106 38.179 97.4012 38.3092C97.4918 38.4557 97.7295 38.537 98.1143 38.5533C98.4313 38.5533 98.7369 38.5452 99.0312 38.5289V39.1635C98.8728 39.1635 98.7143 39.1716 98.5558 39.1879C98.3973 39.1879 98.2389 39.1879 98.0804 39.1879C97.3559 39.1879 96.8579 39.0903 96.5862 38.895C96.3145 38.6997 96.1787 38.3336 96.1787 37.7966V33.4763H94.6505V32.8417H96.1787V30.9379H97.2654V32.8417H99.0312Z" fill="#7D8789"/>
<path d="M101.68 30.4253V31.6457H100.593V30.4253H101.68ZM101.68 32.8417V39.1391H100.593V32.8417H101.68Z" fill="#7D8789"/>
<path d="M103.921 32.8418L106.672 38.3581H106.706L109.423 32.8418H110.543L107.249 39.1392H106.129L102.733 32.8418H103.921Z" fill="#7D8789"/>
<path fill-rule="evenodd" clip-rule="evenodd" d="M112.377 37.04C112.49 37.3492 112.66 37.6177 112.887 37.8455C113.113 38.0896 113.407 38.2848 113.77 38.4313C114.132 38.594 114.573 38.6754 115.094 38.6754C115.886 38.6754 116.498 38.5289 116.928 38.236C117.358 37.9431 117.664 37.5526 117.845 37.0644H118.897C118.671 37.7804 118.263 38.3337 117.675 38.7242C117.064 39.1147 116.203 39.31 115.094 39.31C114.392 39.31 113.792 39.2205 113.294 39.0415C112.796 38.8625 112.389 38.6184 112.072 38.3092C111.755 38.0163 111.517 37.6665 111.358 37.2597C111.2 36.8529 111.121 36.4298 111.121 35.9904C111.121 35.5674 111.2 35.1606 111.358 34.77C111.517 34.3632 111.755 34.0052 112.072 33.6961C112.389 33.3869 112.796 33.1347 113.294 32.9394C113.792 32.7441 114.392 32.6465 115.094 32.6465C115.796 32.6465 116.396 32.7523 116.894 32.9638C117.392 33.1591 117.799 33.4194 118.116 33.7449C118.433 34.0866 118.648 34.469 118.762 34.8921C118.897 35.3151 118.954 35.7464 118.931 36.1857H112.207C112.207 36.4623 112.264 36.7471 112.377 37.04V37.04ZM117.675 34.6968C117.539 34.4364 117.347 34.2005 117.098 33.9889C116.871 33.7774 116.588 33.6066 116.249 33.4764C115.909 33.3625 115.524 33.3055 115.094 33.3055C114.641 33.3055 114.256 33.3625 113.939 33.4764C113.577 33.6066 113.283 33.7774 113.056 33.9889C112.83 34.2005 112.638 34.4364 112.479 34.6968C112.343 34.9734 112.253 35.2582 112.207 35.5511H117.879C117.856 35.2582 117.788 34.9734 117.675 34.6968Z" fill="#7D8789"/>
<path fill-rule="evenodd" clip-rule="evenodd" d="M131.836 39.1391V37.9431H131.802C131.689 38.1383 131.519 38.3255 131.292 38.5045C131.066 38.6672 130.817 38.8055 130.545 38.9194C130.274 39.0496 129.968 39.1472 129.628 39.2123C129.312 39.2774 128.995 39.31 128.678 39.31C127.998 39.31 127.421 39.2205 126.946 39.0415C126.448 38.8625 126.029 38.6184 125.689 38.3092C125.372 38.0163 125.135 37.6665 124.976 37.2596C124.818 36.8528 124.738 36.4298 124.738 35.9904C124.738 35.5348 124.818 35.1036 124.976 34.6968C125.135 34.3062 125.372 33.9564 125.689 33.6472C126.029 33.338 126.448 33.0939 126.946 32.9149C127.421 32.736 127.998 32.6465 128.678 32.6465C129.017 32.6465 129.334 32.679 129.628 32.7441C129.945 32.7929 130.24 32.8743 130.511 32.9882C130.783 33.1184 131.021 33.2648 131.225 33.4275C131.428 33.6065 131.587 33.8099 131.7 34.0377H131.734V30.4253H132.821V39.1391H131.836ZM125.961 36.9423C126.074 37.2678 126.244 37.5607 126.47 37.821C126.697 38.0651 126.991 38.2685 127.353 38.4312C127.715 38.594 128.157 38.6753 128.678 38.6753C129.244 38.6753 129.719 38.594 130.104 38.4312C130.489 38.2685 130.806 38.0651 131.055 37.821C131.304 37.5607 131.485 37.2678 131.598 36.9423C131.689 36.6332 131.734 36.3159 131.734 35.9904C131.734 35.665 131.689 35.3395 131.598 35.0141C131.485 34.6886 131.304 34.4039 131.055 34.1598C130.806 33.8994 130.489 33.6879 130.104 33.5252C129.719 33.3787 129.244 33.3055 128.678 33.3055C128.157 33.3055 127.715 33.3787 127.353 33.5252C126.991 33.6879 126.697 33.8994 126.47 34.1598C126.244 34.4039 126.074 34.6886 125.961 35.0141C125.848 35.3395 125.791 35.665 125.791 35.9904C125.791 36.3159 125.848 36.6332 125.961 36.9423Z" fill="#7D8789"/>
<path fill-rule="evenodd" clip-rule="evenodd" d="M135.639 37.04C135.752 37.3492 135.922 37.6177 136.149 37.8455C136.398 38.0896 136.703 38.2848 137.066 38.4313C137.428 38.594 137.858 38.6754 138.356 38.6754C139.148 38.6754 139.76 38.5289 140.19 38.236C140.643 37.9431 140.948 37.5526 141.107 37.0644H142.193C141.967 37.7804 141.548 38.3337 140.937 38.7242C140.326 39.1147 139.465 39.31 138.356 39.31C137.677 39.31 137.088 39.2205 136.59 39.0415C136.069 38.8625 135.651 38.6184 135.334 38.3092C135.017 38.0163 134.79 37.6665 134.654 37.2597C134.496 36.8529 134.417 36.4298 134.417 35.9904C134.417 35.5674 134.496 35.1606 134.654 34.77C134.79 34.3632 135.017 34.0052 135.334 33.6961C135.651 33.3869 136.069 33.1347 136.59 32.9394C137.088 32.7441 137.677 32.6465 138.356 32.6465C139.058 32.6465 139.658 32.7523 140.156 32.9638C140.654 33.1591 141.061 33.4194 141.378 33.7449C141.695 34.0866 141.922 34.469 142.058 34.8921C142.193 35.3151 142.25 35.7464 142.227 36.1857H135.469C135.469 36.4623 135.526 36.7471 135.639 37.04V37.04ZM140.937 34.6968C140.801 34.4364 140.62 34.2005 140.394 33.9889C140.145 33.7774 139.85 33.6066 139.511 33.4764C139.171 33.3625 138.786 33.3055 138.356 33.3055C137.926 33.3055 137.541 33.3625 137.201 33.4764C136.862 33.6066 136.567 33.7774 136.318 33.9889C136.092 34.2005 135.911 34.4364 135.775 34.6968C135.617 34.9734 135.515 35.2582 135.469 35.5511H141.141C141.141 35.2582 141.073 34.9734 140.937 34.6968V34.6968Z" fill="#7D8789"/>
<path d="M148.714 34.0622C148.578 33.8832 148.408 33.7367 148.204 33.6228C148 33.5089 147.763 33.4276 147.491 33.3787C147.219 33.3299 146.925 33.3055 146.608 33.3055C146.382 33.3055 146.144 33.3218 145.895 33.3543C145.646 33.3869 145.419 33.4438 145.216 33.5252C145.035 33.6228 144.876 33.7367 144.74 33.8669C144.604 34.0134 144.537 34.1842 144.537 34.3795C144.537 34.5585 144.604 34.7049 144.74 34.8188C144.853 34.9327 145.001 35.0304 145.182 35.1117C145.363 35.1931 145.555 35.2582 145.759 35.307C145.985 35.3721 146.189 35.4209 146.37 35.4535L147.797 35.6731C148.114 35.7057 148.419 35.7626 148.714 35.844C149.008 35.9416 149.268 36.0555 149.495 36.1857C149.721 36.3322 149.913 36.503 150.072 36.6983C150.208 36.9098 150.287 37.1539 150.31 37.4305C150.31 37.7723 150.196 38.057 149.97 38.2848C149.744 38.5289 149.472 38.7242 149.155 38.8706C148.815 39.0334 148.442 39.1473 148.034 39.2124C147.604 39.2774 147.185 39.31 146.778 39.31C145.759 39.31 144.921 39.131 144.265 38.773C143.631 38.4313 143.269 37.8699 143.178 37.0888H144.231C144.276 37.6095 144.548 38.0001 145.046 38.2604C145.521 38.537 146.121 38.6754 146.846 38.6754C147.095 38.6754 147.355 38.651 147.627 38.6021C147.921 38.5696 148.181 38.5045 148.408 38.4069C148.634 38.3092 148.827 38.1791 148.985 38.0163C149.144 37.8699 149.223 37.6909 149.223 37.4794C149.223 37.2841 149.166 37.1214 149.053 36.9912C148.963 36.8773 148.815 36.7715 148.612 36.6739C148.453 36.5925 148.249 36.5274 148 36.4786C147.774 36.4135 147.536 36.3647 147.287 36.3322L145.929 36.1125C145.567 36.0474 145.25 35.966 144.978 35.8684C144.684 35.787 144.423 35.6813 144.197 35.5511C143.971 35.4372 143.801 35.2826 143.688 35.0873C143.552 34.9083 143.484 34.6887 143.484 34.4283C143.484 34.1029 143.586 33.8262 143.789 33.5984C143.971 33.3706 144.22 33.1916 144.537 33.0614C144.853 32.915 145.216 32.8092 145.623 32.7441C146.008 32.679 146.393 32.6465 146.778 32.6465C147.208 32.6465 147.615 32.6872 148 32.7685C148.385 32.8499 148.725 32.9801 149.019 33.1591C149.313 33.3218 149.54 33.5333 149.698 33.7937C149.857 34.0378 149.947 34.3307 149.97 34.6724H148.917C148.895 34.4446 148.827 34.2412 148.714 34.0622V34.0622Z" fill="#7D8789"/>
<path d="M152.924 30.4253V31.6457H151.838V30.4253H152.924ZM152.924 32.8417V39.1391H151.872V32.8417H152.924Z" fill="#7D8789"/>
<path fill-rule="evenodd" clip-rule="evenodd" d="M162.161 39.8714C162.025 40.2456 161.799 40.5629 161.482 40.8233C161.188 41.0837 160.792 41.2871 160.294 41.4335C159.795 41.5637 159.196 41.6288 158.494 41.6288C158.041 41.6288 157.611 41.5962 157.203 41.5312C156.773 41.4498 156.4 41.3359 156.083 41.1894C155.743 41.0267 155.46 40.8233 155.234 40.5792C155.007 40.3514 154.883 40.0666 154.86 39.7249H155.913C155.981 39.969 156.094 40.1643 156.252 40.3107C156.411 40.4735 156.615 40.6036 156.864 40.7013C157.09 40.7989 157.339 40.8721 157.611 40.9209C157.905 40.9698 158.199 40.9942 158.494 40.9942C159.49 40.9942 160.203 40.7908 160.633 40.384C161.086 39.9771 161.312 39.3913 161.312 38.6265V37.7723H161.278C161.029 38.1628 160.667 38.472 160.192 38.6998C159.694 38.9439 159.128 39.0659 158.494 39.0659C157.792 39.0659 157.192 38.9764 156.694 38.7974C156.196 38.6347 155.788 38.4069 155.471 38.114C155.132 37.8211 154.894 37.4794 154.758 37.0888C154.6 36.6983 154.521 36.2752 154.521 35.8196C154.521 35.3965 154.611 34.9897 154.792 34.5992C154.973 34.2086 155.234 33.8669 155.573 33.574C155.89 33.2974 156.298 33.0696 156.796 32.8906C157.294 32.7278 157.86 32.6465 158.494 32.6465C158.811 32.6465 159.116 32.679 159.411 32.7441C159.705 32.8092 159.965 32.8987 160.192 33.0126C160.441 33.1428 160.656 33.2811 160.837 33.4276C161.018 33.5903 161.165 33.753 161.278 33.9157H161.312V32.8418H162.365V38.6265C162.365 39.0822 162.297 39.4971 162.161 39.8714V39.8714ZM159.716 38.1872C160.056 38.057 160.35 37.8699 160.599 37.6258C160.826 37.398 161.007 37.1376 161.143 36.8447C161.256 36.5356 161.312 36.2264 161.312 35.9172C161.312 35.608 161.256 35.2989 161.143 34.9897C161.052 34.6805 160.894 34.3958 160.667 34.1354C160.441 33.8913 160.146 33.6879 159.784 33.5252C159.422 33.3787 158.992 33.3055 158.494 33.3055C157.973 33.3055 157.532 33.3787 157.169 33.5252C156.807 33.6716 156.513 33.8669 156.286 34.111C156.037 34.3551 155.868 34.6317 155.777 34.9409C155.664 35.2663 155.607 35.5918 155.607 35.9172C155.607 36.2264 155.664 36.5356 155.777 36.8447C155.89 37.1376 156.06 37.398 156.286 37.6258C156.535 37.8699 156.841 38.057 157.203 38.1872C157.566 38.3336 157.996 38.4069 158.494 38.4069C158.947 38.4069 159.354 38.3336 159.716 38.1872V38.1872Z" fill="#7D8789"/>
<path d="M165.455 32.8418V33.9157H165.489C165.693 33.5415 166.067 33.2323 166.61 32.9882C167.108 32.7604 167.674 32.6465 168.308 32.6465C168.919 32.6465 169.429 32.7034 169.836 32.8173C170.244 32.9313 170.583 33.094 170.855 33.3055C171.081 33.5171 171.251 33.7693 171.364 34.0622C171.455 34.3714 171.511 34.7131 171.534 35.0873V39.1391H170.447V35.2094C170.447 34.9327 170.413 34.6805 170.345 34.4527C170.278 34.2249 170.164 34.0215 170.006 33.8425C169.825 33.6798 169.587 33.5496 169.293 33.452C169.021 33.3543 168.659 33.3055 168.206 33.3055C167.776 33.3055 167.402 33.3543 167.085 33.452C166.746 33.5659 166.463 33.7205 166.236 33.9157C165.987 34.111 165.806 34.3388 165.693 34.5992C165.557 34.8595 165.478 35.1443 165.455 35.4535V39.1391H164.403V32.8418H165.455Z" fill="#7D8789"/>
<path d="M47.6591 27.7682C39.9237 40.425 18.1062 38.0861 14.1227 38.1105C28.5459 34.2245 29.5083 22.3229 32.8705 14.5753C39.0101 0.43233 53.2749 -1.89439 61.4001 3.77013C48.1829 4.37922 53.0556 18.9608 47.6591 27.7682V27.7682Z" fill="url(#paint5_radial_201_474)"/>
<path d="M0.430481 17.3162C13.5502 -1.44369 40.1795 -3.07605 47.4033 13.6739C54.2129 29.4736 40.7277 41.8137 14.2446 38.1105C25.5249 37.5501 37.0001 31.8612 33.2847 20.8733C30.093 11.4202 16.084 8.49662 0.430481 17.3162V17.3162Z" fill="url(#paint6_linear_201_474)"/>
<defs>
<linearGradient id="paint0_linear_201_474" x1="5030.97" y1="5817.27" x2="16722.1" y2="10664.3" gradientUnits="userSpaceOnUse">
<stop offset="0.2" stop-color="#10D6F9"/>
<stop offset="0.4" stop-color="#10D6F9"/>
<stop offset="0.8" stop-color="#1D7BB6"/>
<stop offset="1" stop-color="#0D3375"/>
</linearGradient>
<linearGradient id="paint1_linear_201_474" x1="1110.31" y1="6954.39" x2="3701.66" y2="7112.04" gradientUnits="userSpaceOnUse">
<stop offset="0.2" stop-color="#10D6F9"/>
<stop offset="0.4" stop-color="#10D6F9"/>
<stop offset="0.8" stop-color="#1D7BB6"/>
<stop offset="1" stop-color="#0D3375"/>
</linearGradient>
<linearGradient id="paint2_linear_201_474" x1="3343.96" y1="5560.26" x2="11448.4" y2="7630.87" gradientUnits="userSpaceOnUse">
<stop offset="0.2" stop-color="#10D6F9"/>
<stop offset="0.4" stop-color="#10D6F9"/>
<stop offset="0.8" stop-color="#1D7BB6"/>
<stop offset="1" stop-color="#0D3375"/>
</linearGradient>
<linearGradient id="paint3_linear_201_474" x1="3711.34" y1="7342.86" x2="12683.7" y2="9094.56" gradientUnits="userSpaceOnUse">
<stop offset="0.2" stop-color="#10D6F9"/>
<stop offset="0.4" stop-color="#10D6F9"/>
<stop offset="0.8" stop-color="#1D7BB6"/>
<stop offset="1" stop-color="#0D3375"/>
</linearGradient>
<linearGradient id="paint4_linear_201_474" x1="3619.9" y1="4935.05" x2="11866.4" y2="7038.87" gradientUnits="userSpaceOnUse">
<stop offset="0.2" stop-color="#10D6F9"/>
<stop offset="0.4" stop-color="#10D6F9"/>
<stop offset="0.8" stop-color="#1D7BB6"/>
<stop offset="1" stop-color="#0D3375"/>
</linearGradient>
<radialGradient id="paint5_radial_201_474" cx="0" cy="0" r="1" gradientUnits="userSpaceOnUse" gradientTransform="translate(16045.9 5664.02) scale(12240.1 9671.36)">
<stop/>
<stop offset="1"/>
</radialGradient>
<linearGradient id="paint6_linear_201_474" x1="2987.13" y1="-2542.58" x2="22503.7" y2="5923.01" gradientUnits="userSpaceOnUse">
<stop offset="0.2" stop-color="#10D6F9"/>
<stop offset="0.4" stop-color="#10D6F9"/>
<stop offset="0.8" stop-color="#1D7BB6"/>
<stop offset="1" stop-color="#0D3375"/>
</linearGradient>
</defs>
</svg>
