<svg width="201" height="48" viewBox="0 0 201 48" fill="none" xmlns="http://www.w3.org/2000/svg">
<path fill-rule="evenodd" clip-rule="evenodd" d="M81.391 33.0607V37.7457H81.4181C81.5264 37.4388 81.6799 37.177 81.8784 36.9604C82.059 36.7437 82.2756 36.5542 82.5284 36.3917C82.7812 36.2472 83.061 36.1389 83.3679 36.0667C83.6568 35.9945 83.9456 35.9584 84.2345 35.9584C84.8664 35.9584 85.408 36.0757 85.8594 36.3104C86.3288 36.5271 86.717 36.834 87.0239 37.2312C87.3308 37.6284 87.5565 38.0888 87.7009 38.6123C87.8454 39.1359 87.9176 39.6866 87.9176 40.2643C87.9176 40.842 87.8454 41.3927 87.7009 41.9162C87.5565 42.4398 87.3308 42.9002 87.0239 43.2974C86.717 43.6946 86.3288 44.0015 85.8594 44.2182C85.408 44.4529 84.8664 44.5702 84.2345 44.5702C83.5846 44.5702 82.9978 44.4167 82.4742 44.1098C81.9507 43.8029 81.5715 43.3606 81.3368 42.7828H81.3097V44.3536H80.389V33.0607H81.391ZM86.7802 39.0185C86.6718 38.6033 86.5093 38.2332 86.2927 37.9082C86.076 37.5652 85.8052 37.2944 85.4803 37.0958C85.1372 36.8972 84.731 36.7979 84.2616 36.7979C83.738 36.7979 83.2867 36.8972 82.9075 37.0958C82.5465 37.2944 82.2576 37.5652 82.0409 37.9082C81.8062 38.2332 81.6437 38.6033 81.5535 39.0185C81.4451 39.4338 81.391 39.849 81.391 40.2643C81.391 40.6795 81.4451 41.0948 81.5535 41.51C81.6437 41.9253 81.8062 42.3044 82.0409 42.6474C82.2576 42.9724 82.5465 43.2342 82.9075 43.4328C83.2867 43.6314 83.738 43.7307 84.2616 43.7307C84.731 43.7307 85.1372 43.6314 85.4803 43.4328C85.8052 43.2342 86.076 42.9724 86.2927 42.6474C86.5093 42.3044 86.6718 41.9253 86.7802 41.51C86.8704 41.0948 86.9156 40.6795 86.9156 40.2643C86.9156 39.849 86.8704 39.4338 86.7802 39.0185Z" fill="black"/>
<path d="M90.4632 33.0607V34.6585H89.4883V33.0607H90.4632ZM90.4632 36.175V44.3536H89.4612V36.175H90.4632Z" fill="black"/>
<path fill-rule="evenodd" clip-rule="evenodd" d="M97.4773 36.3104C97.9648 36.5271 98.371 36.834 98.696 37.2312C99.0209 37.6284 99.2647 38.0797 99.4271 38.5853C99.6077 39.1088 99.698 39.6685 99.698 40.2643C99.698 40.8601 99.6077 41.4198 99.4271 41.9433C99.2647 42.4489 99.0209 42.9002 98.696 43.2974C98.371 43.6946 97.9648 44.0015 97.4773 44.2182C97.0079 44.4529 96.4572 44.5702 95.8253 44.5702C95.2115 44.5702 94.6608 44.4529 94.1734 44.2182C93.704 44.0015 93.3068 43.6946 92.9818 43.2974C92.6388 42.9002 92.386 42.4489 92.2235 41.9433C92.061 41.4198 91.9798 40.8601 91.9798 40.2643C91.9798 39.6685 92.061 39.1088 92.2235 38.5853C92.386 38.0797 92.6388 37.6284 92.9818 37.2312C93.3068 36.834 93.704 36.5271 94.1734 36.3104C94.6608 36.0757 95.2115 35.9584 95.8253 35.9584C96.4572 35.9584 97.0079 36.0757 97.4773 36.3104ZM94.5796 37.0958C94.2185 37.2944 93.9206 37.5562 93.6859 37.8811C93.4512 38.2061 93.2707 38.5762 93.1443 38.9915C93.036 39.4067 92.9818 39.831 92.9818 40.2643C92.9818 40.6976 93.036 41.1219 93.1443 41.5371C93.2707 41.9524 93.4512 42.3225 93.6859 42.6474C93.9206 42.9724 94.2185 43.2342 94.5796 43.4328C94.9407 43.6314 95.3559 43.7307 95.8253 43.7307C96.2947 43.7307 96.71 43.6314 97.0711 43.4328C97.4322 43.2342 97.73 42.9724 97.9648 42.6474C98.1995 42.3225 98.38 41.9524 98.5064 41.5371C98.6328 41.1219 98.696 40.6976 98.696 40.2643C98.696 39.831 98.6328 39.4067 98.5064 38.9915C98.38 38.5762 98.1995 38.2061 97.9648 37.8811C97.73 37.5562 97.4322 37.2944 97.0711 37.0958C96.71 36.8972 96.2947 36.7979 95.8253 36.7979C95.3559 36.7979 94.9407 36.8972 94.5796 37.0958Z" fill="black"/>
<path d="M104.41 36.175V37.0145H102.758V42.512C102.758 42.855 102.803 43.1168 102.894 43.2974C102.984 43.4779 103.209 43.5772 103.571 43.5953C103.841 43.5953 104.121 43.5772 104.41 43.5411V44.3806C104.266 44.3806 104.121 44.3896 103.977 44.4077C103.832 44.4077 103.679 44.4077 103.516 44.4077C102.866 44.4077 102.406 44.2813 102.135 44.0285C101.864 43.7758 101.738 43.2974 101.756 42.5932V37.0145H100.321V36.175H101.756V33.7377H102.758V36.175H104.41Z" fill="black"/>
<path fill-rule="evenodd" clip-rule="evenodd" d="M106.577 41.6454C106.685 42.0246 106.847 42.3676 107.064 42.6745C107.281 42.9814 107.561 43.2342 107.904 43.4328C108.247 43.6314 108.653 43.7307 109.122 43.7307C109.844 43.7307 110.413 43.5411 110.828 43.162C111.244 42.7829 111.523 42.2773 111.668 41.6454H112.67C112.471 42.5843 112.083 43.3064 111.505 43.8119C110.946 44.3175 110.151 44.5702 109.122 44.5702C108.472 44.5702 107.913 44.4529 107.443 44.2182C106.974 44.0015 106.595 43.6946 106.306 43.2974C106.017 42.9002 105.8 42.4398 105.656 41.9163C105.511 41.3927 105.439 40.842 105.439 40.2643C105.439 39.7227 105.511 39.1991 105.656 38.6936C105.8 38.17 106.017 37.7096 106.306 37.3124C106.595 36.8972 106.974 36.5632 107.443 36.3104C107.913 36.0757 108.472 35.9584 109.122 35.9584C109.772 35.9584 110.332 36.0848 110.801 36.3375C111.253 36.6083 111.623 36.9604 111.912 37.3937C112.218 37.8089 112.435 38.2964 112.562 38.8561C112.688 39.3977 112.733 39.9574 112.697 40.5351H106.441C106.441 40.8962 106.486 41.2663 106.577 41.6454V41.6454ZM111.505 38.6123C111.397 38.2693 111.226 37.9624 110.991 37.6916C110.774 37.4208 110.512 37.2041 110.205 37.0416C109.88 36.8791 109.519 36.7979 109.122 36.7979C108.707 36.7979 108.346 36.8791 108.039 37.0416C107.714 37.2041 107.443 37.4208 107.227 37.6916C107.01 37.9443 106.829 38.2513 106.685 38.6123C106.559 38.9734 106.477 39.3345 106.441 39.6956H111.722C111.704 39.3164 111.632 38.9554 111.505 38.6123V38.6123Z" fill="black"/>
<path d="M119.034 37.3124C118.673 36.9694 118.158 36.7979 117.49 36.7979C117.021 36.7979 116.606 36.8972 116.245 37.0958C115.883 37.2944 115.586 37.5562 115.351 37.8811C115.116 38.2061 114.936 38.5762 114.809 38.9915C114.701 39.4067 114.647 39.831 114.647 40.2643C114.647 40.6976 114.701 41.1219 114.809 41.5371C114.936 41.9524 115.116 42.3225 115.351 42.6474C115.586 42.9724 115.883 43.2342 116.245 43.4328C116.606 43.6314 117.021 43.7307 117.49 43.7307C117.797 43.7307 118.086 43.6765 118.357 43.5682C118.628 43.4599 118.871 43.2974 119.088 43.0807C119.305 42.8821 119.476 42.6384 119.603 42.3496C119.747 42.0607 119.837 41.7538 119.873 41.4288H120.848C120.722 42.4037 120.361 43.171 119.765 43.7307C119.169 44.2904 118.411 44.5702 117.49 44.5702C116.876 44.5702 116.326 44.4529 115.838 44.2182C115.369 44.0015 114.972 43.6946 114.647 43.2974C114.304 42.9002 114.051 42.4489 113.889 41.9433C113.726 41.4198 113.645 40.8601 113.645 40.2643C113.645 39.6685 113.726 39.1088 113.889 38.5853C114.051 38.0797 114.304 37.6284 114.647 37.2312C114.972 36.834 115.369 36.5271 115.838 36.3104C116.326 36.0757 116.876 35.9584 117.49 35.9584C118.375 35.9584 119.115 36.1841 119.711 36.6354C120.325 37.1048 120.686 37.8089 120.794 38.7477H119.792C119.666 38.1339 119.413 37.6555 119.034 37.3124V37.3124Z" fill="black"/>
<path d="M123.232 33.0607V37.5832H123.259C123.457 37.0958 123.791 36.6986 124.261 36.3917C124.748 36.1028 125.281 35.9584 125.858 35.9584C126.436 35.9584 126.915 36.0306 127.294 36.175C127.691 36.3194 127.998 36.5271 128.215 36.7979C128.449 37.0687 128.612 37.3937 128.702 37.7728C128.81 38.17 128.864 38.6123 128.864 39.0998V44.3536H127.862V39.2623C127.862 38.9012 127.826 38.5762 127.754 38.2874C127.7 37.9804 127.592 37.7187 127.429 37.502C127.267 37.2854 127.059 37.1138 126.806 36.9875C126.535 36.8611 126.192 36.7979 125.777 36.7979C125.38 36.7979 125.028 36.8701 124.721 37.0145C124.414 37.1409 124.152 37.3305 123.936 37.5832C123.719 37.836 123.548 38.1339 123.421 38.4769C123.313 38.82 123.25 39.1901 123.232 39.5873V44.3536H122.23V33.0607H123.232Z" fill="black"/>
<path d="M131.708 36.175V37.5832H131.735C131.934 37.0958 132.277 36.6986 132.764 36.3917C133.252 36.1028 133.784 35.9584 134.362 35.9584C134.922 35.9584 135.4 36.0306 135.797 36.175C136.176 36.3195 136.483 36.5271 136.718 36.7979C136.935 37.0687 137.097 37.3937 137.206 37.7728C137.296 38.17 137.341 38.6123 137.341 39.0998V44.3536H136.339V39.2623C136.339 38.9012 136.312 38.5762 136.258 38.2874C136.185 37.9804 136.068 37.7187 135.906 37.502C135.761 37.2854 135.554 37.1138 135.283 36.9875C135.012 36.8611 134.678 36.7979 134.281 36.7979C133.884 36.7979 133.522 36.8701 133.197 37.0145C132.891 37.1409 132.629 37.3305 132.412 37.5832C132.195 37.836 132.033 38.1339 131.925 38.4769C131.798 38.82 131.726 39.1901 131.708 39.5873V44.3536H130.733V36.175H131.708Z" fill="black"/>
<path fill-rule="evenodd" clip-rule="evenodd" d="M144.328 36.3104C144.797 36.5271 145.194 36.834 145.519 37.2312C145.844 37.6284 146.097 38.0797 146.278 38.5853C146.44 39.1088 146.521 39.6685 146.521 40.2643C146.521 40.8601 146.44 41.4198 146.278 41.9433C146.097 42.4489 145.844 42.9002 145.519 43.2974C145.194 43.6946 144.797 44.0015 144.328 44.2182C143.84 44.4529 143.29 44.5702 142.676 44.5702C142.044 44.5702 141.493 44.4529 141.024 44.2182C140.536 44.0015 140.13 43.6946 139.805 43.2974C139.48 42.9002 139.237 42.4489 139.074 41.9433C138.894 41.4198 138.803 40.8601 138.803 40.2643C138.803 39.6685 138.894 39.1088 139.074 38.5853C139.237 38.0797 139.48 37.6284 139.805 37.2312C140.13 36.834 140.536 36.5271 141.024 36.3104C141.493 36.0757 142.044 35.9584 142.676 35.9584C143.29 35.9584 143.84 36.0757 144.328 36.3104ZM141.43 37.0958C141.069 37.2944 140.771 37.5562 140.536 37.8811C140.284 38.2061 140.103 38.5762 139.995 38.9915C139.868 39.4067 139.805 39.831 139.805 40.2643C139.805 40.6976 139.868 41.1219 139.995 41.5371C140.103 41.9524 140.284 42.3225 140.536 42.6474C140.771 42.9724 141.069 43.2342 141.43 43.4328C141.773 43.6314 142.188 43.7307 142.676 43.7307C143.145 43.7307 143.561 43.6314 143.922 43.4328C144.283 43.2342 144.581 42.9724 144.815 42.6474C145.05 42.3225 145.231 41.9524 145.357 41.5371C145.465 41.1219 145.519 40.6976 145.519 40.2643C145.519 39.831 145.465 39.4067 145.357 38.9915C145.231 38.5762 145.05 38.2061 144.815 37.8811C144.581 37.5562 144.283 37.2944 143.922 37.0958C143.561 36.8972 143.145 36.7979 142.676 36.7979C142.188 36.7979 141.773 36.8972 141.43 37.0958Z" fill="black"/>
<path d="M149.013 33.0607V44.3536H148.011V33.0607H149.013Z" fill="black"/>
<path fill-rule="evenodd" clip-rule="evenodd" d="M156.027 36.3104C156.514 36.5271 156.921 36.834 157.246 37.2312C157.571 37.6284 157.814 38.0797 157.977 38.5853C158.139 39.1088 158.221 39.6685 158.221 40.2643C158.221 40.8601 158.139 41.4198 157.977 41.9433C157.814 42.4489 157.571 42.9002 157.246 43.2974C156.921 43.6946 156.514 44.0015 156.027 44.2182C155.54 44.4529 154.989 44.5702 154.375 44.5702C153.761 44.5702 153.211 44.4529 152.723 44.2182C152.236 44.0015 151.829 43.6946 151.504 43.2974C151.179 42.9002 150.936 42.4489 150.773 41.9433C150.611 41.4198 150.529 40.8601 150.529 40.2643C150.529 39.6685 150.611 39.1088 150.773 38.5853C150.936 38.0797 151.179 37.6284 151.504 37.2312C151.829 36.834 152.236 36.5271 152.723 36.3104C153.211 36.0757 153.761 35.9584 154.375 35.9584C154.989 35.9584 155.54 36.0757 156.027 36.3104ZM153.129 37.0958C152.768 37.2944 152.47 37.5562 152.236 37.8811C152.001 38.2061 151.82 38.5762 151.694 38.9915C151.568 39.4067 151.504 39.831 151.504 40.2643C151.504 40.6976 151.568 41.1219 151.694 41.5371C151.82 41.9524 152.001 42.3225 152.236 42.6474C152.47 42.9724 152.768 43.2342 153.129 43.4328C153.49 43.6314 153.906 43.7307 154.375 43.7307C154.844 43.7307 155.26 43.6314 155.621 43.4328C155.982 43.2342 156.28 42.9724 156.514 42.6474C156.749 42.3225 156.93 41.9524 157.056 41.5371C157.182 41.1219 157.246 40.6976 157.246 40.2643C157.246 39.831 157.182 39.4067 157.056 38.9915C156.93 38.5762 156.749 38.2061 156.514 37.8811C156.28 37.5562 155.982 37.2944 155.621 37.0958C155.26 36.8972 154.844 36.7979 154.375 36.7979C153.906 36.7979 153.49 36.8972 153.129 37.0958Z" fill="black"/>
<path fill-rule="evenodd" clip-rule="evenodd" d="M166.399 45.3014C166.273 45.7889 166.065 46.2041 165.776 46.5471C165.505 46.8721 165.135 47.1249 164.666 47.3054C164.215 47.486 163.655 47.5762 162.987 47.5762C162.572 47.5762 162.174 47.5311 161.795 47.4408C161.398 47.3506 161.046 47.2061 160.739 47.0075C160.432 46.8089 160.17 46.5472 159.954 46.2222C159.755 45.9153 159.638 45.5451 159.602 45.1118H160.604C160.658 45.4188 160.757 45.6715 160.902 45.8701C161.064 46.0868 161.254 46.2583 161.47 46.3847C161.687 46.511 161.922 46.6013 162.174 46.6555C162.445 46.7096 162.716 46.7367 162.987 46.7367C163.908 46.7367 164.576 46.4749 164.991 45.9514C165.406 45.4278 165.614 44.6695 165.614 43.6765V42.5662H165.587C165.352 43.0717 165.009 43.4779 164.558 43.7849C164.106 44.0918 163.583 44.2452 162.987 44.2452C162.337 44.2452 161.777 44.1369 161.308 43.9203C160.838 43.7036 160.459 43.4057 160.17 43.0266C159.864 42.6474 159.647 42.2051 159.52 41.6996C159.376 41.1941 159.304 40.6434 159.304 40.0476C159.304 39.506 159.385 38.9824 159.548 38.4769C159.71 37.9714 159.945 37.5291 160.252 37.1499C160.577 36.7889 160.965 36.5 161.416 36.2834C161.868 36.0667 162.391 35.9584 162.987 35.9584C163.294 35.9584 163.583 35.9945 163.853 36.0667C164.124 36.157 164.368 36.2833 164.585 36.4458C164.801 36.5903 165 36.7618 165.18 36.9604C165.343 37.159 165.478 37.3666 165.587 37.5832H165.614V36.175H166.616V43.6765C166.616 44.2723 166.544 44.8139 166.399 45.3014V45.3014ZM164.124 43.1349C164.449 42.9544 164.72 42.7106 164.937 42.4037C165.171 42.0968 165.343 41.7538 165.451 41.3746C165.56 40.9774 165.614 40.5802 165.614 40.1831C165.614 39.7678 165.569 39.3616 165.478 38.9644C165.37 38.5672 165.217 38.2061 165.018 37.8811C164.801 37.5562 164.531 37.2944 164.206 37.0958C163.863 36.8972 163.456 36.7979 162.987 36.7979C162.517 36.7979 162.111 36.8882 161.768 37.0687C161.425 37.2673 161.145 37.5291 160.929 37.8541C160.712 38.161 160.55 38.5221 160.441 38.9373C160.351 39.3345 160.306 39.7498 160.306 40.1831C160.306 40.5802 160.36 40.9774 160.468 41.3746C160.559 41.7538 160.721 42.0968 160.956 42.4037C161.172 42.7106 161.452 42.9544 161.795 43.1349C162.12 43.3154 162.517 43.4057 162.987 43.4057C163.42 43.4057 163.799 43.3154 164.124 43.1349Z" fill="black"/>
<path d="M168.647 36.175L171.328 43.1349L173.846 36.175H174.848L171.301 45.5722C171.156 45.9153 171.021 46.2041 170.895 46.4389C170.768 46.6555 170.624 46.836 170.461 46.9805C170.317 47.1069 170.136 47.1971 169.92 47.2513C169.721 47.3055 169.468 47.3325 169.161 47.3325C168.963 47.3325 168.8 47.3325 168.674 47.3325C168.566 47.3145 168.475 47.2964 168.403 47.2784V46.4389C168.511 46.4569 168.62 46.475 168.728 46.493C168.836 46.5111 168.954 46.5201 169.08 46.5201C169.297 46.5201 169.477 46.484 169.622 46.4118C169.766 46.3576 169.893 46.2673 170.001 46.1409C170.091 46.0326 170.172 45.9063 170.245 45.7618C170.335 45.5993 170.416 45.4188 170.488 45.2202L170.84 44.2994L167.591 36.175H168.647Z" fill="black"/>
<path fill-rule="evenodd" clip-rule="evenodd" d="M69.394 26.7507V25.3696C68.4371 26.8861 67.1282 27.8339 65.4672 28.2131C63.8243 28.5922 62.1904 28.4568 60.5655 27.8069C58.9406 27.1569 57.5505 25.9563 56.395 24.2051C55.2215 22.4358 54.6347 20.1158 54.6347 17.2452C54.6347 13.9052 55.411 11.188 56.9637 9.09372C58.4983 7.01749 60.9717 5.97937 64.384 5.97937C66.9657 5.97937 69.3669 6.68349 71.5876 8.09171C73.8082 9.49994 74.9186 12.0907 74.9186 15.864V27.3194C74.9186 31.1108 73.8082 33.6925 71.5876 35.0647C69.3669 36.4368 66.9657 37.1228 64.384 37.1228C59.401 37.1228 56.3137 34.8029 55.1222 30.1629H61.053C61.4863 30.9212 62.1452 31.4989 63.0299 31.8961C63.9326 32.3114 64.8263 32.4197 65.7109 32.2211C66.6136 32.0406 67.4261 31.517 68.1483 30.6504C68.8704 29.7838 69.2857 28.4839 69.394 26.7507ZM60.1593 17.4077C60.1593 21.1449 61.2425 23.2211 63.409 23.6364C65.5755 24.0335 67.1733 23.528 68.2024 22.1198C68.6718 21.524 69.0149 20.5942 69.2315 19.3304C69.4482 18.0486 69.4662 16.7848 69.2857 15.5391C69.0871 14.3114 68.6447 13.2101 67.9587 12.2351C67.2546 11.2602 66.2255 10.7728 64.8714 10.7728C63.0299 10.7728 61.7842 11.4498 61.1342 12.8039C60.4843 14.1399 60.1593 15.6745 60.1593 17.4077V17.4077Z" fill="#4B8200"/>
<path d="M76.733 28.0506V17.5701C76.733 15.4578 77.04 13.6885 77.6538 12.2622C78.2857 10.8359 79.1433 9.68946 80.2265 8.82286C81.2556 8.01042 82.4562 7.41464 83.8283 7.0355C85.2004 6.65637 86.6177 6.4668 88.0801 6.4668C88.1884 6.4668 88.3238 6.4668 88.4863 6.4668C88.6488 6.4668 88.7842 6.4668 88.8925 6.4668V12.2351H87.0239C85.4532 12.2351 84.2977 12.6142 83.5575 13.3725C82.7992 14.1127 82.4201 15.2953 82.4201 16.9202V28.0506H76.733Z" fill="#4B8200"/>
<path fill-rule="evenodd" clip-rule="evenodd" d="M105.304 21.3886H109.366C108.77 23.6634 107.633 25.3966 105.954 26.5882C104.275 27.8339 102.171 28.4568 99.6438 28.4568C96.5565 28.4568 94.1463 27.4548 92.4131 25.4508C90.6799 23.501 89.8133 20.7116 89.8133 17.0827C89.8133 13.6343 90.6528 10.9352 92.3319 8.98539C94.0651 6.98138 96.4753 5.97937 99.5625 5.97937C102.794 5.97937 105.304 6.9543 107.091 8.90415C108.824 10.9082 109.691 13.6885 109.691 17.2452C109.691 17.4618 109.691 17.6514 109.691 17.8139C109.691 17.9764 109.691 18.0847 109.691 18.1389C109.691 18.4097 109.664 18.5992 109.61 18.7076H95.5816C95.6358 20.3866 96.042 21.6323 96.8003 22.4448C97.5044 23.3114 98.5605 23.7447 99.9688 23.7447C100.871 23.7447 101.648 23.5551 102.298 23.176C102.46 23.1218 102.614 23.0315 102.758 22.9052C102.885 22.7607 103.029 22.6073 103.191 22.4448C103.246 22.2823 103.453 22.0656 103.814 21.7948C104.157 21.524 104.654 21.3886 105.304 21.3886V21.3886ZM95.5816 15.0516H103.841C103.733 13.6073 103.354 12.533 102.704 11.8289C102 11.0706 101.007 10.6915 99.725 10.6915C98.5335 10.6915 97.5585 11.0706 96.8003 11.8289C96.042 12.5872 95.6358 13.6614 95.5816 15.0516Z" fill="#4B8200"/>
<path fill-rule="evenodd" clip-rule="evenodd" d="M126.427 21.3886H130.489C129.894 23.6634 128.756 25.3966 127.077 26.5882C125.398 27.8339 123.286 28.4568 120.74 28.4568C117.671 28.4568 115.27 27.4548 113.536 25.4508C111.803 23.501 110.937 20.7116 110.937 17.0827C110.937 13.6343 111.776 10.9352 113.455 8.98539C115.188 6.98138 117.59 5.97937 120.659 5.97937C123.909 5.97937 126.427 6.9543 128.214 8.90415C129.948 10.9082 130.814 13.6885 130.814 17.2452C130.814 17.4618 130.814 17.6514 130.814 17.8139C130.814 17.9764 130.814 18.0847 130.814 18.1389C130.814 18.4097 130.787 18.5992 130.733 18.7076H116.705C116.741 20.3866 117.138 21.6323 117.897 22.4448C118.601 23.3114 119.657 23.7447 121.065 23.7447C121.986 23.7447 122.771 23.5551 123.421 23.176C123.584 23.1218 123.737 23.0315 123.881 22.9052C124.008 22.7607 124.152 22.6073 124.315 22.4448C124.369 22.2823 124.577 22.0656 124.938 21.7948C125.281 21.524 125.777 21.3886 126.427 21.3886V21.3886ZM116.705 15.0516H124.965C124.856 13.6073 124.477 12.533 123.827 11.8289C123.123 11.0706 122.121 10.6915 120.821 10.6915C119.63 10.6915 118.655 11.0706 117.897 11.8289C117.138 12.5872 116.741 13.6614 116.705 15.0516V15.0516Z" fill="#4B8200"/>
<path d="M151.369 28.0506H148.525C147.713 28.0506 147.045 27.7888 146.521 27.2652C146.016 26.7597 145.763 26.1008 145.763 25.2883V14.2392C145.763 12.9573 145.375 12.0185 144.599 11.4227C143.804 10.8269 142.92 10.529 141.945 10.529C140.97 10.529 140.103 10.8269 139.345 11.4227C138.587 12.0185 138.207 12.9573 138.207 14.2392V28.0506H132.547V15.3766C132.547 11.7116 133.504 9.2562 135.418 8.01046C137.332 6.76473 139.453 6.0877 141.782 5.97937C144.165 5.97937 146.359 6.60225 148.363 7.84798C150.367 9.09372 151.369 11.6032 151.369 15.3766V28.0506Z" fill="#4B8200"/>
<path d="M153.319 0.129883H156.244C157.002 0.129883 157.652 0.391667 158.193 0.915238C158.735 1.42075 159.006 2.05265 159.006 2.81093V28.0507H153.319V0.129883Z" fill="#4B8200"/>
<path fill-rule="evenodd" clip-rule="evenodd" d="M174.605 27.1569C173.467 27.7527 172.267 28.1138 171.003 28.2402C169.721 28.3846 168.593 28.4568 167.618 28.4568C165.686 28.4568 163.989 27.9242 162.526 26.859C161.064 25.8119 160.333 24.0697 160.333 21.6323C160.333 19.3575 160.992 17.7326 162.31 16.7577C163.646 15.7828 165.334 15.1328 167.374 14.8079C167.645 14.8079 167.97 14.7718 168.349 14.6995C168.728 14.6093 169.161 14.5371 169.649 14.4829C172.032 14.176 173.224 13.4809 173.224 12.3976C173.224 11.5852 172.808 11.0526 171.978 10.7998C171.129 10.5651 170.353 10.4478 169.649 10.4478C168.891 10.4478 168.214 10.5561 167.618 10.7728C167.022 10.9894 166.589 11.3956 166.318 11.9914H160.902C161.118 10.3124 161.877 8.93123 163.176 7.84798C164.639 6.60225 166.715 5.97937 169.405 5.97937C172.438 5.97937 174.713 6.49392 176.23 7.52301C177.8 8.60626 178.586 10.1228 178.586 12.0727V19.4388C178.586 21.6053 178.188 23.2933 177.394 24.503C176.618 25.7306 175.688 26.6153 174.605 27.1569V27.1569ZM173.305 17.1639C172.547 17.5431 171.49 17.8951 170.136 18.2201L168.268 18.6263C167.293 18.8971 166.589 19.2492 166.155 19.6825C165.794 20.2783 165.614 20.8741 165.614 21.4699C165.614 22.2823 165.848 22.9322 166.318 23.4197C166.805 23.853 167.509 24.0697 168.43 24.0697C169.947 24.0697 171.138 23.6364 172.005 22.7698C172.872 21.9032 173.305 20.7116 173.305 19.195V17.1639Z" fill="#4B8200"/>
<path fill-rule="evenodd" clip-rule="evenodd" d="M185.735 2.81088V9.31038C186.331 8.28129 187.197 7.44177 188.335 6.79182C189.31 6.25019 190.501 5.97938 191.91 5.97938C194.455 5.97938 196.541 7.03555 198.165 9.14789C199.79 11.2602 200.603 13.9864 200.603 17.3264C200.603 20.6845 199.79 23.4197 198.165 25.5321C197.353 26.5611 196.252 27.3014 194.861 27.7527C193.489 28.2221 192.126 28.4568 190.772 28.4568C188.172 28.4568 185.762 27.7798 183.542 26.4257C181.339 25.0717 180.238 22.4719 180.238 18.6263V0.048584H182.973C183.731 0.048584 184.381 0.319397 184.923 0.861022C185.464 1.40265 185.735 2.0526 185.735 2.81088V2.81088ZM194.997 17.0827C194.997 15.1328 194.591 13.6253 193.778 12.5601C192.966 11.4227 191.855 10.854 190.447 10.854C188.931 10.854 187.766 11.3956 186.954 12.4789C186.141 13.5982 185.735 15.1328 185.735 17.0827C185.735 19.3575 186.114 21.0095 186.873 22.0386C187.685 23.176 188.822 23.7447 190.285 23.7447C191.801 23.7447 192.966 23.176 193.778 22.0386C194.591 20.9012 194.997 19.2492 194.997 17.0827Z" fill="#4B8200"/>
<path d="M49.3707 26.119C48.7909 31.1567 46.0595 34.5453 44.7453 36.2331L47.9406 40.6781C50.0278 43.5899 48.0436 47.7387 44.5778 47.7387C42.8513 47.7387 6.9431 47.7387 5.21662 47.7387C1.73789 47.7387 -0.233388 43.5899 1.85385 40.6781L2.67844 39.5314C6.87868 41.5542 15.4853 40.2272 24.8392 36.0656C26.3338 37.5344 28.3308 38.4878 30.4825 38.462C41.4727 38.3074 50.556 27.5105 47.6442 15.7859C47.6442 15.7859 50.1309 19.5996 49.3707 26.119Z" fill="#208AD6"/>
<path d="M42.0396 25.5135C30.1217 35.911 4.75278 42.1469 1.08079 34.352C-0.491085 31.015 1.73788 25.7196 8.8886 21.5709C4.43067 25.9773 0.642723 31.8009 6.38907 34.3649C10.9114 28.0903 9.12051 30.5769 14.0938 23.6581C14.5963 22.9495 14.8797 22.0991 14.8797 21.2359V11.2764H14.3901C13.2177 11.2764 12.2643 10.323 12.2643 9.15055C12.2643 7.97809 13.2177 7.02466 14.3901 7.02466H35.4042C36.5767 7.02466 37.5301 7.97809 37.5301 9.15055C37.5301 10.323 36.5767 11.2764 35.4042 11.2764H34.9146V21.0942C27.1584 22.4728 24.1435 23.8643 22.5845 28.0516C21.9274 29.8039 22.1593 31.7494 22.9968 33.4759C25.419 32.7801 27.9056 31.904 30.3408 30.8733C42.2071 25.8742 43.4955 24.2508 42.0396 25.5135Z" fill="#95D143"/>
</svg>
