<svg width="200" height="51" viewBox="0 0 200 51" fill="none" xmlns="http://www.w3.org/2000/svg">
<path d="M57.6293 39.9234C57.2418 39.5587 56.6834 39.3764 55.954 39.3764C55.4525 39.3764 55.008 39.479 54.6205 39.6841C54.233 39.912 53.9139 40.197 53.6632 40.5389C53.4125 40.9036 53.2187 41.3025 53.082 41.7356C52.9452 42.1914 52.8768 42.6473 52.8768 43.1032C52.8768 43.5819 52.9452 44.0492 53.082 44.505C53.2187 44.9381 53.4125 45.337 53.6632 45.7017C53.9139 46.0436 54.233 46.3285 54.6205 46.5565C55.008 46.7616 55.4525 46.8642 55.954 46.8642C56.2959 46.8642 56.615 46.8072 56.9113 46.6932C57.2076 46.5565 57.4698 46.3741 57.6977 46.1462C57.9257 45.941 58.108 45.6789 58.2448 45.3598C58.4043 45.0635 58.4955 44.733 58.5183 44.3683H59.6124C59.4528 45.4396 59.054 46.2715 58.4157 46.8642C57.7775 47.4568 56.9569 47.7532 55.954 47.7532C55.293 47.7532 54.7003 47.6278 54.1761 47.377C53.6746 47.1491 53.2415 46.8186 52.8768 46.3855C52.5349 45.9752 52.2728 45.4852 52.0904 44.9153C51.9081 44.3455 51.8169 43.7414 51.8169 43.1032C51.8169 42.465 51.9081 41.8723 52.0904 41.3253C52.2728 40.7554 52.5349 40.2654 52.8768 39.8551C53.2415 39.422 53.6746 39.0801 54.1761 38.8293C54.7003 38.5786 55.293 38.4532 55.954 38.4532C56.9113 38.4532 57.7205 38.704 58.3815 39.2054C59.0198 39.7069 59.4073 40.4705 59.544 41.4962H58.4499C58.3132 40.8352 58.0396 40.3109 57.6293 39.9234V39.9234Z" fill="#29ABE2"/>
<path d="M62.0742 38.7267V40.7781H62.1084C62.3819 40.0715 62.815 39.5245 63.4076 39.137C63.9775 38.7495 64.6613 38.5671 65.4591 38.5899V39.684C64.9576 39.6612 64.5131 39.7182 64.1256 39.855C63.7153 40.0145 63.3734 40.2425 63.0999 40.5388C62.8036 40.8123 62.5756 41.1428 62.4161 41.5303C62.2565 41.9178 62.1767 42.3509 62.1767 42.8296V47.5137H61.1168V38.7267H62.0742Z" fill="#29ABE2"/>
<path fill-rule="evenodd" clip-rule="evenodd" d="M66.9635 44.6076C67.0775 45.0179 67.2485 45.394 67.4764 45.7359C67.7043 46.055 68.0007 46.3285 68.3654 46.5565C68.7301 46.7616 69.1745 46.8642 69.6988 46.8642C70.4738 46.8642 71.0892 46.659 71.5451 46.2488C71.9782 45.8385 72.2859 45.2914 72.4683 44.6076H73.5282C73.3002 45.6105 72.8785 46.3855 72.2631 46.9326C71.6705 47.4796 70.8157 47.7532 69.6988 47.7532C68.9922 47.7532 68.3882 47.6278 67.8867 47.377C67.3852 47.1491 66.9749 46.8186 66.6558 46.3855C66.3367 45.9524 66.0974 45.451 65.9378 44.8811C65.801 44.3341 65.7327 43.7414 65.7327 43.1032C65.7327 42.5333 65.801 41.9749 65.9378 41.4279C66.0974 40.858 66.3367 40.3565 66.6558 39.9234C66.9749 39.4904 67.3852 39.1371 67.8867 38.8635C68.3882 38.59 68.9922 38.4532 69.6988 38.4532C70.4054 38.4532 71.0095 38.6014 71.5109 38.8977C72.0124 39.1713 72.4113 39.536 72.7076 39.9918C73.0267 40.4705 73.2546 41.0062 73.3914 41.5988C73.5282 42.1914 73.5852 42.7955 73.5624 43.4109H66.7926C66.7926 43.7984 66.8496 44.1973 66.9635 44.6076V44.6076ZM72.2631 41.3253C72.1491 40.9606 71.9668 40.6301 71.7161 40.3337C71.4881 40.0374 71.2032 39.7981 70.8613 39.6157C70.5194 39.4562 70.1319 39.3764 69.6988 39.3764C69.2429 39.3764 68.844 39.4562 68.5021 39.6157C68.1602 39.7981 67.8753 40.0374 67.6474 40.3337C67.4194 40.6301 67.2257 40.9606 67.0661 41.3253C66.9293 41.7128 66.8382 42.1003 66.7926 42.4878H72.5024C72.4797 42.0775 72.3999 41.69 72.2631 41.3253Z" fill="#29ABE2"/>
<path fill-rule="evenodd" clip-rule="evenodd" d="M75.2377 40.0944C75.42 39.7069 75.6707 39.3992 75.9899 39.1712C76.2862 38.9205 76.6509 38.7382 77.084 38.6242C77.4943 38.5102 77.9615 38.4532 78.4858 38.4532C78.8505 38.4532 79.2266 38.4988 79.6141 38.59C80.0016 38.6584 80.3549 38.7951 80.674 39.0003C80.9703 39.2054 81.2211 39.4904 81.4262 39.8551C81.6086 40.2198 81.6997 40.6984 81.6997 41.2911V45.9752C81.6997 46.4083 81.9163 46.6249 82.3494 46.6249C82.4633 46.6249 82.5773 46.6021 82.6913 46.5565V47.4454C82.5545 47.4682 82.4405 47.491 82.3494 47.5138C82.2582 47.5138 82.1328 47.5138 81.9733 47.5138C81.6997 47.5138 81.4832 47.4796 81.3236 47.4112C81.1641 47.3429 81.0387 47.2403 80.9475 47.1035C80.8564 46.9668 80.7994 46.7958 80.7766 46.5907C80.731 46.4083 80.7082 46.2032 80.7082 45.9752H80.674C80.4917 46.2716 80.2979 46.5223 80.0928 46.7274C79.8876 46.9554 79.6711 47.1491 79.4431 47.3087C79.1924 47.4454 78.9075 47.5594 78.5884 47.6506C78.292 47.719 77.9273 47.7532 77.4943 47.7532C77.084 47.7532 76.6965 47.7076 76.3318 47.6164C75.9671 47.5252 75.6593 47.3657 75.4086 47.1377C75.1351 46.9326 74.9185 46.6704 74.759 46.3513C74.5994 46.0322 74.5197 45.6447 74.5197 45.1888C74.5197 44.5734 74.6564 44.0947 74.9299 43.7528C75.2035 43.4109 75.5682 43.1488 76.0241 42.9664C76.4799 42.7841 76.9814 42.6587 77.5284 42.5903C78.0983 42.4992 78.6681 42.4194 79.238 42.351C79.4659 42.3282 79.6711 42.3054 79.8534 42.2826C80.013 42.237 80.1497 42.1801 80.2637 42.1117C80.3777 42.0205 80.4689 41.9065 80.5372 41.7698C80.6056 41.6102 80.6398 41.4165 80.6398 41.1885C80.6398 40.8238 80.5828 40.5161 80.4689 40.2654C80.3321 40.0374 80.1611 39.8551 79.956 39.7183C79.7509 39.5815 79.5115 39.4904 79.238 39.4448C78.9645 39.3992 78.6681 39.3764 78.349 39.3764C77.6652 39.3764 77.1068 39.5359 76.6737 39.8551C76.2406 40.1742 76.0127 40.6984 75.9899 41.4279H74.8958C74.9413 40.9036 75.0553 40.4591 75.2377 40.0944V40.0944ZM80.6056 42.6929C80.5372 42.8297 80.4005 42.9209 80.1953 42.9664C80.013 43.0348 79.842 43.0804 79.6825 43.1032C79.2494 43.1716 78.7821 43.24 78.2806 43.3083C77.802 43.3767 77.3689 43.4679 76.9814 43.5819C76.5711 43.7186 76.2406 43.901 75.9899 44.1289C75.7391 44.3569 75.6138 44.6874 75.6138 45.1205C75.6138 45.394 75.6707 45.6333 75.7847 45.8385C75.8759 46.0664 76.0127 46.2488 76.195 46.3855C76.3774 46.5451 76.5939 46.6704 76.8446 46.7616C77.0726 46.83 77.3119 46.8642 77.5626 46.8642C77.9729 46.8642 78.3718 46.8072 78.7593 46.6932C79.124 46.5565 79.4431 46.3741 79.7167 46.1462C79.9902 45.8955 80.2181 45.5991 80.4005 45.2572C80.56 44.9153 80.6398 44.5278 80.6398 44.0947V42.6929H80.6056Z" fill="#29ABE2"/>
<path d="M87.3413 38.7267V39.6157H85.5633V45.5649C85.5633 45.9068 85.6089 46.1803 85.7001 46.3854C85.7913 46.5906 86.0306 46.7046 86.4181 46.7274C86.7372 46.7274 87.045 46.7046 87.3413 46.659V47.5821C87.1817 47.5821 87.0222 47.5821 86.8626 47.5821C86.703 47.6049 86.5435 47.6163 86.3839 47.6163C85.6773 47.6163 85.1872 47.4682 84.9137 47.1718C84.6174 46.8983 84.4806 46.3854 84.5034 45.6332V39.6157H82.9648V38.7267H84.5034V36.094H85.5633V38.7267H87.3413Z" fill="#29ABE2"/>
<path d="M90.0082 35.3418V37.0513H88.9141V35.3418H90.0082ZM90.0082 38.7267V47.5137H88.9483V38.7267H90.0082Z" fill="#29ABE2"/>
<path d="M92.2648 38.7267L95.0343 46.4538H95.0684L97.7695 38.7267H98.8978L95.6155 47.5137H94.453L91.0681 38.7267H92.2648Z" fill="#29ABE2"/>
<path fill-rule="evenodd" clip-rule="evenodd" d="M100.744 44.6076C100.858 45.0179 101.029 45.394 101.257 45.7359C101.508 46.055 101.815 46.3285 102.18 46.5565C102.522 46.7616 102.955 46.8642 103.479 46.8642C104.254 46.8642 104.87 46.659 105.326 46.2488C105.759 45.8385 106.066 45.2914 106.249 44.6076H107.309C107.081 45.6105 106.659 46.3855 106.044 46.9326C105.451 47.4796 104.596 47.7532 103.479 47.7532C102.796 47.7532 102.191 47.6278 101.667 47.377C101.166 47.1491 100.755 46.8186 100.436 46.3855C100.117 45.9524 99.8779 45.451 99.7183 44.8811C99.5816 44.3341 99.5132 43.7414 99.5132 43.1032C99.5132 42.5333 99.5816 41.9749 99.7183 41.4279C99.8779 40.858 100.117 40.3565 100.436 39.9234C100.755 39.4904 101.166 39.1371 101.667 38.8635C102.191 38.59 102.796 38.4532 103.479 38.4532C104.186 38.4532 104.79 38.6014 105.291 38.8977C105.793 39.1713 106.192 39.536 106.488 39.9918C106.807 40.4705 107.035 41.0062 107.172 41.5988C107.309 42.1914 107.366 42.7955 107.343 43.4109H100.573C100.573 43.7984 100.63 44.1973 100.744 44.6076V44.6076ZM106.044 41.3253C105.93 40.9606 105.747 40.6301 105.497 40.3337C105.269 40.0374 104.984 39.7981 104.642 39.6157C104.3 39.4562 103.912 39.3764 103.479 39.3764C103.046 39.3764 102.659 39.4562 102.317 39.6157C101.975 39.7981 101.679 40.0374 101.428 40.3337C101.2 40.6301 101.006 40.9606 100.847 41.3253C100.71 41.7128 100.619 42.1003 100.573 42.4878H106.283C106.26 42.0775 106.18 41.69 106.044 41.3253Z" fill="#29ABE2"/>
<path fill-rule="evenodd" clip-rule="evenodd" d="M114.591 35.3418V40.402H114.626C114.74 40.0829 114.91 39.798 115.138 39.5473C115.344 39.3193 115.583 39.1256 115.856 38.966C116.13 38.7837 116.426 38.6583 116.745 38.5899C117.064 38.4988 117.384 38.4532 117.703 38.4532C118.364 38.4532 118.945 38.5785 119.446 38.8292C119.925 39.08 120.335 39.4219 120.677 39.855C120.996 40.2881 121.236 40.7781 121.395 41.3252C121.555 41.895 121.635 42.4877 121.635 43.1031C121.635 43.7413 121.555 44.334 121.395 44.881C121.236 45.4509 120.996 45.9523 120.677 46.3854C120.335 46.8185 119.925 47.149 119.446 47.377C118.945 47.6277 118.364 47.7531 117.703 47.7531C116.973 47.7531 116.335 47.5935 115.788 47.2744C115.218 46.9325 114.808 46.4538 114.557 45.8384H114.523V47.5137H113.531V35.3418H114.591ZM120.404 41.7697C120.29 41.3138 120.119 40.9149 119.891 40.573C119.663 40.2083 119.367 39.912 119.002 39.684C118.637 39.4789 118.193 39.3763 117.669 39.3763C117.099 39.3763 116.62 39.4789 116.233 39.684C115.845 39.912 115.526 40.2083 115.275 40.573C115.047 40.9149 114.876 41.3138 114.762 41.7697C114.648 42.2028 114.591 42.6472 114.591 43.1031C114.591 43.559 114.648 44.0149 114.762 44.4707C114.876 44.9266 115.047 45.3255 115.275 45.6674C115.526 46.0321 115.845 46.317 116.233 46.5222C116.62 46.7501 117.099 46.8641 117.669 46.8641C118.193 46.8641 118.637 46.7501 119.002 46.5222C119.367 46.317 119.663 46.0321 119.891 45.6674C120.119 45.3255 120.29 44.9266 120.404 44.4707C120.518 44.0149 120.575 43.559 120.575 43.1031C120.575 42.6472 120.518 42.2028 120.404 41.7697Z" fill="#29ABE2"/>
<path fill-rule="evenodd" clip-rule="evenodd" d="M124.096 44.6076C124.21 45.0179 124.393 45.394 124.643 45.7359C124.871 46.055 125.168 46.3285 125.532 46.5565C125.897 46.7616 126.33 46.8642 126.832 46.8642C127.629 46.8642 128.245 46.659 128.678 46.2488C129.134 45.8385 129.442 45.2914 129.601 44.6076H130.695C130.467 45.6105 130.046 46.3855 129.43 46.9326C128.815 47.4796 127.949 47.7532 126.832 47.7532C126.148 47.7532 125.555 47.6278 125.054 47.377C124.552 47.1491 124.142 46.8186 123.823 46.3855C123.504 45.9524 123.264 45.451 123.105 44.8811C122.945 44.3341 122.866 43.7414 122.866 43.1032C122.866 42.5333 122.945 41.9749 123.105 41.4279C123.264 40.858 123.504 40.3565 123.823 39.9234C124.142 39.4904 124.552 39.1371 125.054 38.8635C125.555 38.59 126.148 38.4532 126.832 38.4532C127.538 38.4532 128.142 38.6014 128.644 38.8977C129.145 39.1713 129.556 39.536 129.875 39.9918C130.194 40.4705 130.422 41.0062 130.558 41.5988C130.695 42.1914 130.752 42.7955 130.729 43.4109H123.96C123.96 43.7984 124.005 44.1973 124.096 44.6076V44.6076ZM129.43 41.3253C129.293 40.9606 129.111 40.6301 128.883 40.3337C128.632 40.0374 128.336 39.7981 127.994 39.6157C127.652 39.4562 127.265 39.3764 126.832 39.3764C126.399 39.3764 126.011 39.4562 125.669 39.6157C125.327 39.7981 125.042 40.0374 124.814 40.3337C124.564 40.6301 124.37 40.9606 124.233 41.3253C124.096 41.7128 124.005 42.1003 123.96 42.4878H129.635C129.635 42.0775 129.567 41.69 129.43 41.3253Z" fill="#29ABE2"/>
<path fill-rule="evenodd" clip-rule="evenodd" d="M132.371 40.0944C132.553 39.7069 132.804 39.3992 133.123 39.1712C133.442 38.9205 133.807 38.7382 134.217 38.6242C134.65 38.5102 135.117 38.4532 135.619 38.4532C136.006 38.4532 136.394 38.4988 136.781 38.59C137.169 38.6584 137.522 38.7951 137.841 39.0003C138.137 39.2054 138.377 39.4904 138.559 39.8551C138.764 40.2198 138.867 40.6984 138.867 41.2911V45.9752C138.867 46.4083 139.072 46.6249 139.482 46.6249C139.619 46.6249 139.733 46.6021 139.824 46.5565V47.4454C139.71 47.4682 139.608 47.491 139.516 47.5138C139.403 47.5138 139.277 47.5138 139.14 47.5138C138.867 47.5138 138.65 47.4796 138.491 47.4112C138.308 47.3429 138.183 47.2403 138.115 47.1035C138.023 46.9668 137.955 46.7958 137.91 46.5907C137.887 46.4083 137.875 46.2032 137.875 45.9752H137.841C137.659 46.2716 137.465 46.5223 137.26 46.7274C137.055 46.9554 136.827 47.1491 136.576 47.3087C136.348 47.4454 136.075 47.5594 135.755 47.6506C135.436 47.719 135.06 47.7532 134.627 47.7532C134.217 47.7532 133.841 47.7076 133.499 47.6164C133.134 47.5252 132.815 47.3657 132.542 47.1377C132.291 46.9326 132.086 46.6704 131.926 46.3513C131.767 46.0322 131.687 45.6447 131.687 45.1888C131.687 44.5734 131.824 44.0947 132.097 43.7528C132.371 43.4109 132.735 43.1488 133.191 42.9664C133.624 42.7841 134.126 42.6587 134.696 42.5903C135.265 42.4992 135.835 42.4194 136.405 42.351C136.633 42.3282 136.838 42.3054 137.021 42.2826C137.18 42.237 137.317 42.1801 137.431 42.1117C137.545 42.0205 137.636 41.9065 137.704 41.7698C137.773 41.6102 137.807 41.4165 137.807 41.1885C137.807 40.8238 137.739 40.5161 137.602 40.2654C137.488 40.0374 137.328 39.8551 137.123 39.7183C136.918 39.5815 136.667 39.4904 136.371 39.4448C136.097 39.3992 135.801 39.3764 135.482 39.3764C134.798 39.3764 134.24 39.5359 133.807 39.8551C133.374 40.1742 133.146 40.6984 133.123 41.4279H132.063C132.108 40.9036 132.211 40.4591 132.371 40.0944V40.0944ZM137.773 42.6929C137.704 42.8297 137.568 42.9209 137.362 42.9664C137.18 43.0348 137.009 43.0804 136.85 43.1032C136.394 43.1716 135.926 43.24 135.448 43.3083C134.969 43.3767 134.525 43.4679 134.114 43.5819C133.727 43.7186 133.408 43.901 133.157 44.1289C132.883 44.3569 132.747 44.6874 132.747 45.1205C132.747 45.394 132.804 45.6333 132.918 45.8385C133.032 46.0664 133.18 46.2488 133.362 46.3855C133.544 46.5451 133.75 46.6704 133.978 46.7616C134.228 46.83 134.479 46.8642 134.73 46.8642C135.14 46.8642 135.528 46.8072 135.892 46.6932C136.28 46.5565 136.61 46.3741 136.884 46.1462C137.157 45.8955 137.374 45.5991 137.533 45.2572C137.716 44.9153 137.807 44.5278 137.807 44.0947V42.6929H137.773Z" fill="#29ABE2"/>
<path d="M147.141 47.5137V45.941H147.107C146.833 46.5336 146.423 46.9781 145.876 47.2744C145.329 47.5935 144.725 47.7531 144.064 47.7531C143.517 47.7531 143.05 47.6733 142.662 47.5137C142.275 47.377 141.955 47.1604 141.705 46.8641C141.454 46.5906 141.272 46.2487 141.158 45.8384C141.044 45.4281 140.987 44.9608 140.987 44.4366V38.7267H142.081V44.4366C142.104 45.2343 142.286 45.8384 142.628 46.2487C142.97 46.659 143.562 46.8641 144.406 46.8641C144.884 46.8641 145.283 46.7615 145.602 46.5564C145.944 46.374 146.218 46.1119 146.423 45.77C146.651 45.4509 146.811 45.0748 146.902 44.6417C147.016 44.2086 147.073 43.7755 147.073 43.3424V38.7267H148.133V47.5137H147.141Z" fill="#29ABE2"/>
<path d="M153.671 38.7267V39.6157H151.859V45.5649C151.859 45.9068 151.916 46.1803 152.03 46.3854C152.121 46.5906 152.361 46.7046 152.748 46.7274C153.045 46.7274 153.352 46.7046 153.671 46.659V47.5821C153.512 47.5821 153.352 47.5821 153.193 47.5821C153.033 47.6049 152.874 47.6163 152.714 47.6163C151.985 47.6163 151.483 47.4682 151.21 47.1718C150.913 46.8983 150.777 46.3854 150.799 45.6332V39.6157H149.261V38.7267H150.799V36.094H151.859V38.7267H153.671Z" fill="#29ABE2"/>
<path d="M155.381 38.7267L158.253 46.2145L160.988 38.7267H162.048L158.219 48.8472C158.059 49.2119 157.911 49.5196 157.774 49.7703C157.638 50.0211 157.489 50.2148 157.33 50.3516C157.17 50.4883 156.977 50.5909 156.749 50.6593C156.521 50.7277 156.236 50.7619 155.894 50.7619C155.689 50.7391 155.529 50.7277 155.415 50.7277C155.301 50.7277 155.199 50.7049 155.107 50.6593V49.7703C155.221 49.7931 155.335 49.8159 155.449 49.8387C155.586 49.8387 155.711 49.8387 155.825 49.8387C156.053 49.8387 156.247 49.8045 156.407 49.7361C156.566 49.6678 156.703 49.5766 156.817 49.4626C156.931 49.3486 157.022 49.2005 157.091 49.0181C157.182 48.8586 157.273 48.6762 157.364 48.4711L157.74 47.4795L154.219 38.7267H155.381Z" fill="#29ABE2"/>
<path fill-rule="evenodd" clip-rule="evenodd" d="M56.3642 2.78886V9.28511C56.9797 8.25939 57.8458 7.42741 58.9627 6.78918C59.9429 6.24212 61.1395 5.9686 62.5528 5.9686C65.0829 5.9686 67.1685 7.02852 68.8097 9.14835C70.428 11.2454 71.2372 13.9807 71.2372 17.3542C71.2372 20.7049 70.428 23.4287 68.8097 25.5257C67.9891 26.5743 66.895 27.3265 65.5274 27.7824C64.1369 28.2382 62.7693 28.4662 61.4245 28.4662C58.826 28.4662 56.4098 27.7937 54.176 26.4489C51.965 25.0813 50.8595 22.4828 50.8595 18.6534V0.0535889H53.629C54.3812 0.0535889 55.0308 0.315714 55.5778 0.839974C56.1021 1.38703 56.3642 2.03666 56.3642 2.78886V2.78886ZM65.6299 17.0806C65.6299 15.1431 65.231 13.6273 64.4333 12.5332C63.6127 11.4163 62.4958 10.8465 61.0826 10.8237C59.5782 10.8465 58.4157 11.3935 57.5951 12.4649C56.7745 13.6046 56.3642 15.1431 56.3642 17.0806C56.3642 19.36 56.7517 21.0126 57.5267 22.0383C58.3245 23.178 59.4528 23.7478 60.9116 23.7478C62.4388 23.7478 63.6127 23.178 64.4333 22.0383C65.231 20.8986 65.6299 19.246 65.6299 17.0806Z" fill="#4800FF"/>
<path d="M93.2561 6.44727V19.1321C93.2561 22.9614 92.2532 25.4802 90.2473 26.6882C88.2415 27.8735 86.0533 28.4662 83.6827 28.4662C81.3349 28.3522 79.2037 27.7026 77.289 26.5173C75.3743 25.332 74.417 22.8703 74.417 19.1321V6.44727H80.0927V20.2604C80.0927 21.5596 80.4688 22.5056 81.221 23.0982C81.996 23.6908 82.8621 23.9872 83.8195 23.9872C84.7996 23.9872 85.6886 23.6908 86.4864 23.0982C87.2613 22.5056 87.6488 21.5596 87.6488 20.2604V9.21672C87.6488 8.46453 87.911 7.81491 88.4352 7.26785C88.9367 6.7208 89.5977 6.44727 90.4183 6.44727H93.2561Z" fill="#FF009C"/>
<path d="M105.941 28.0559C104.14 28.1698 102.203 28.147 100.129 27.9875C98.0316 27.8279 96.983 26.4945 96.983 23.9871V0.121948H99.9234C100.63 0.121948 101.245 0.395483 101.77 0.942537C102.317 1.48959 102.59 2.13921 102.59 2.89141V6.54983H105.941V7.67812C105.918 8.4987 105.645 9.15973 105.12 9.6612C104.573 10.1855 103.924 10.4476 103.172 10.4476H102.59V22.4486C102.59 23.3831 103.137 23.8504 104.231 23.8504H105.941V28.0559Z" fill="#6000FF"/>
<path d="M118.181 28.0559C116.403 28.1698 114.477 28.147 112.403 27.9875C110.306 27.8279 109.258 26.4945 109.258 23.9871V0.121948H112.198C112.882 0.121948 113.497 0.395483 114.044 0.942537C114.591 1.48959 114.865 2.13921 114.865 2.89141V6.54983H118.181V7.67812C118.181 8.4987 117.919 9.15973 117.395 9.6612C116.848 10.1855 116.198 10.4476 115.446 10.4476H114.865V22.4486C114.865 23.3831 115.4 23.8504 116.472 23.8504H118.181V28.0559Z" fill="#6000FF"/>
<path fill-rule="evenodd" clip-rule="evenodd" d="M135.892 21.3886H139.961C139.368 23.668 138.229 25.4004 136.542 26.5856C134.878 27.8393 132.769 28.4661 130.217 28.4661C127.139 28.4661 124.735 27.4632 123.002 25.4574C121.27 23.5199 120.404 20.7276 120.404 17.0806C120.404 13.6159 121.236 10.9148 122.9 8.97737C124.632 6.9715 127.048 5.96857 130.148 5.96857C133.385 5.96857 135.904 6.94871 137.704 8.90898C139.437 10.892 140.303 13.6729 140.303 17.2515C140.303 17.4795 140.303 17.6732 140.303 17.8328C140.303 17.9923 140.303 18.0949 140.303 18.1405C140.28 18.414 140.246 18.6078 140.2 18.7218H126.148C126.216 20.4085 126.626 21.6508 127.379 22.4486C128.085 23.3147 129.145 23.7478 130.558 23.7478C131.47 23.7478 132.245 23.5541 132.883 23.1666C133.066 23.121 133.214 23.0298 133.328 22.893C133.465 22.7563 133.624 22.6081 133.807 22.4486C133.852 22.289 134.046 22.0725 134.388 21.7989C134.753 21.5254 135.254 21.3886 135.892 21.3886V21.3886ZM126.148 15.0633H134.456C134.342 13.6045 133.955 12.5218 133.294 11.8152C132.587 11.063 131.584 10.6869 130.285 10.6869C129.1 10.6869 128.131 11.063 127.379 11.8152C126.626 12.5674 126.216 13.6501 126.148 15.0633Z" fill="#4800FF"/>
<path d="M143.38 28.0559V17.5935C143.38 15.4736 143.688 13.6957 144.303 12.2597C144.941 10.8237 145.796 9.67261 146.867 8.80644C147.893 8.00866 149.101 7.41601 150.492 7.02851C151.859 6.64102 153.273 6.44727 154.731 6.44727C154.845 6.44727 154.982 6.44727 155.142 6.44727C155.301 6.44727 155.438 6.44727 155.552 6.44727V12.2255H153.706C152.133 12.2255 150.959 12.6016 150.184 13.3538C149.432 14.106 149.056 15.3027 149.056 16.9439V28.0559H143.38Z" fill="#0070BC"/>
<path d="M158.321 28.0559V5.79764C158.321 3.86016 158.834 2.40136 159.86 1.42122C160.84 0.509467 162.436 0.0535889 164.647 0.0535889C165.194 0.0535889 165.627 0.0763765 165.946 0.121964C166.561 0.121964 167.029 0.144762 167.348 0.19035V4.66935H165.878C165.125 4.66935 164.578 4.78332 164.236 5.01126C163.986 5.2164 163.86 5.64948 163.86 6.31051V7.74653H167.348V8.9774C167.348 9.79798 167.074 10.459 166.527 10.9605C165.98 11.4847 165.353 11.7468 164.647 11.7468H163.86V28.0559H158.321Z" fill="#00FFFF"/>
<path d="M170.186 0.121948H173.126C173.878 0.121948 174.528 0.384084 175.075 0.908344C175.599 1.40981 175.861 2.03664 175.861 2.78884V28.0559H170.186V0.121948Z" fill="#00FFFF"/>
<path d="M182.118 35.6804V31.2356H183.691C184.762 31.2356 185.606 30.9735 186.221 30.4492C186.859 29.925 186.985 29.1044 186.597 27.9875L179.041 6.44727H185.298L189.674 21.7306L193.504 8.39615C193.823 7.0969 194.689 6.44727 196.102 6.44727H200L191.726 31.0647C191.065 32.8426 190.244 34.1077 189.264 34.8599C188.307 35.5209 186.711 35.8514 184.477 35.8514C184.318 35.8514 184.135 35.8514 183.93 35.8514C183.702 35.8514 183.509 35.8514 183.349 35.8514C183.189 35.8058 182.984 35.7602 182.734 35.7146C182.506 35.6918 182.301 35.6804 182.118 35.6804Z" fill="#00FFFF"/>
<path d="M7.92185 39.764C9.42689 39.1041 12.0086 39.2198 17.4615 42.9477C21.664 45.8189 22.8449 46.8724 22.4976 47.486C22.0229 48.3427 20.541 47.1387 15.5165 43.8855C11.5108 41.3037 9.75105 42.4846 8.43124 42.3804C6.76412 42.2415 6.62519 40.3312 7.92185 39.764V39.764Z" fill="#0071BC"/>
<path d="M0.825028 36.0824C0.848183 35.874 0.952378 35.6077 1.78594 35.5267C2.9784 35.3878 4.37924 35.9087 5.95375 37.4138C7.36617 38.7568 7.6556 39.243 7.53983 39.3703C7.41248 39.4977 6.82204 38.8957 6.03479 38.12C5.08545 37.1938 3.893 36.4181 2.22587 36.6034C1.13761 36.7307 0.790297 36.395 0.825028 36.0824V36.0824Z" fill="#37C6F7"/>
<path d="M0.0146135 38.8725C-0.0316955 38.6757 -0.00854098 38.4094 0.709248 38.0737C1.7512 37.5874 3.18678 37.6337 5.06229 38.5136C6.75257 39.3124 7.15777 39.6597 7.09989 39.8102C7.03042 39.9608 6.31263 39.5903 5.3633 39.1388C4.21715 38.5831 2.89735 38.2357 1.43861 38.9188C0.48928 39.3587 0.084077 39.1619 0.0146135 38.8725V38.8725Z" fill="#37C6F7"/>
<path d="M14.2431 33.5238C14.1041 24.5282 13.7684 19.9089 15.424 4.14071C16.3154 -4.25279 25.1141 1.51268 32.5351 10.3461C38.4858 17.4314 34.9548 21.9234 31.5047 26.3922C28.0663 30.861 24.1995 34.3805 24.5584 35.2488C25.0331 36.4412 34.2138 30.2937 37.386 30.8263C40.0488 31.2778 42.2832 42.7508 39.1573 45.3904C37.1776 47.0691 29.7219 45.8072 24.4542 44.0822C19.5339 42.473 14.3473 41.1879 14.2431 33.5238V33.5238Z" fill="#00FFFF"/>
<path d="M14.9261 40.0417C13.9421 39.4281 12.4717 36.6959 11.9855 35.4224C9.06804 27.573 8.59337 25.1881 5.09705 10.7976C3.90459 5.88887 7.34303 4.96269 12.3676 6.29407C11.8466 21.3676 12.4833 25.9522 13.2127 34.7394C13.3979 37.0548 14.0231 38.7567 14.9261 40.0417V40.0417Z" fill="#00FFFF"/>
<path d="M13.3053 37.2053C11.1635 31.0462 10.6541 29.2286 7.93345 18.0218C7.12304 14.676 9.06802 13.7035 12.1939 14.2013C12.1013 23.3705 12.6338 27.712 13.2127 34.7394C13.3979 37.0548 14.0231 38.7567 14.9261 40.0417C14.8798 40.007 13.78 38.583 13.3053 37.2053V37.2053Z" fill="#37C6F7"/>
<path d="M23.0418 36.3834C23.4585 37.3559 31.7826 34.1953 34.3643 34.7163C36.5293 35.1562 37.2355 42.612 34.6074 44.6959C33.8202 45.3095 32.072 45.3673 29.9997 45.0895C27.6495 44.7885 23.7596 43.7234 22.3819 43.0519C25.4035 44.1402 28.9114 44.8001 30.0576 43.9897C32.1878 42.4846 31.5395 37.4717 29.8608 37.0433C27.8811 36.5339 21.6178 38.0621 21.1199 36.9507C20.7726 36.1982 23.227 33.5354 25.6582 30.8726C28.0894 28.2215 30.648 25.686 27.2443 20.8583C23.0186 14.8382 18.2256 11.1797 17.2068 16.4705C15.2966 26.4038 15.2619 29.3676 14.8567 35.0868C14.7409 36.6034 14.984 37.7611 15.4471 38.6641C14.8567 37.5527 14.5093 36.1519 14.5441 34.2995C14.683 26.948 14.5325 23.1622 16.3154 10.3115C17.2763 3.4693 24.1532 8.2507 29.965 15.6833C34.6537 21.6456 31.551 25.0609 28.6104 28.6267C25.6698 32.1809 22.6134 35.4225 23.0418 36.3834V36.3834Z" fill="#37C6F7"/>
<path d="M15.5744 38.8841C15.5513 38.8455 15.5281 38.803 15.5049 38.7567C15.5281 38.803 15.5513 38.8455 15.5744 38.8841Z" fill="#FFA300"/>
<path d="M15.1576 35.874C15.8407 31.7872 16.0607 29.657 18.0983 22.6412C19.1865 18.9017 21.3862 21.0088 24.13 25.5702C26.156 28.9508 24.3152 30.7684 22.7407 32.8292C21.0041 35.1099 19.476 37.1822 19.7191 37.7263C20.078 38.4904 24.0258 37.9463 25.4267 38.4441C26.596 38.8609 27.1285 42.3456 25.4961 43.295C24.4657 43.8854 21.1662 42.7856 18.9202 41.5816C16.8132 40.447 14.5904 39.3587 15.1576 35.874V35.874Z" fill="#0071BC"/>
<path d="M21.12 36.9507C21.6178 38.0621 27.8811 36.5339 29.8608 37.0433C31.5395 37.4716 32.1878 42.4846 30.0576 43.9896C28.8883 44.8116 25.2646 44.0938 22.2198 42.994C23.6091 43.4571 24.9173 43.6192 25.4961 43.295C27.1285 42.3457 26.596 38.8609 25.4267 38.4441C24.0258 37.9463 20.078 38.4904 19.7191 37.7263C19.476 37.1822 21.0042 35.1099 22.7408 32.8292C24.3153 30.7684 26.1561 28.9508 24.13 25.5702C21.3862 21.0088 19.1866 18.9017 18.0983 22.6412C16.0607 29.657 15.8407 31.7872 15.1577 35.874C14.9956 36.8696 15.0651 37.6685 15.2966 38.3168C14.9261 37.4716 14.764 36.4181 14.8567 35.0867C15.2619 29.3676 15.2966 26.4038 17.2068 16.4705C18.2256 11.1797 23.0186 14.8381 27.2443 20.8583C30.648 25.686 28.0895 28.2214 25.6582 30.8726C23.227 33.5354 20.7726 36.1981 21.12 36.9507V36.9507Z" fill="#29ABE2"/>
</svg>
