<svg width="201" height="42" viewBox="0 0 201 42" fill="none" xmlns="http://www.w3.org/2000/svg">
<path fill-rule="evenodd" clip-rule="evenodd" d="M58.2624 23.4304H48.9994V2.27539H57.2304C58.6555 2.27539 59.8922 2.44738 60.9406 2.79137C61.9725 3.13535 62.7506 3.60219 63.2747 4.19188C64.2248 5.27297 64.6998 6.50149 64.6998 7.87742C64.6998 9.53182 64.1675 10.7603 63.1027 11.563C62.726 11.8414 62.4721 12.0216 62.3411 12.1035C62.1936 12.169 61.9397 12.2837 61.5794 12.4475C62.8898 12.726 63.9381 13.3156 64.7244 14.2166C65.4942 15.1175 65.8792 16.2313 65.8792 17.5581C65.8792 19.0323 65.3714 20.3346 64.3558 21.4648C63.1928 22.7752 61.1617 23.4304 58.2624 23.4304V23.4304ZM53.7169 10.8504H55.9528C57.2632 10.8504 58.2378 10.703 58.8766 10.4082C59.5155 10.1297 59.8349 9.52362 59.8349 8.58995C59.8349 7.65628 59.54 7.03384 58.9504 6.72262C58.3607 6.42777 57.3697 6.28035 55.9774 6.28035H53.7169V10.8504ZM53.7169 19.4255H56.9602C58.3033 19.4255 59.3107 19.2617 59.9823 18.9341C60.6703 18.6065 61.0143 17.9512 61.0143 16.9684C61.0143 15.9856 60.6539 15.3386 59.9332 15.0274C59.2124 14.7161 58.0658 14.5605 56.4933 14.5605H53.7169V19.4255Z" fill="black"/>
<path d="M75.437 17.9758C76.2233 18.9422 77.2798 19.4255 78.6066 19.4255C79.9498 19.4255 81.0063 18.9422 81.7762 17.9758C82.5624 16.993 82.9555 15.6498 82.9555 13.9463V2.27539H87.673V14.1183C87.673 17.1814 86.8213 19.5319 85.1177 21.1699C83.4306 22.8243 81.2602 23.6516 78.6066 23.6516C75.9694 23.6516 73.799 22.8243 72.0955 21.1699C70.3919 19.5155 69.5402 17.165 69.5402 14.1183V2.27539H74.2577V13.9463C74.2577 15.6498 74.6508 16.993 75.437 17.9758V17.9758Z" fill="black"/>
<path d="M97.5257 6.50143C97.0671 6.87817 96.8377 7.36958 96.8377 7.97565C96.8377 8.59809 97.1162 9.0895 97.6731 9.44986C98.2301 9.81023 99.5077 10.2361 101.506 10.7275C103.521 11.2189 105.077 11.9642 106.174 12.9634C107.288 13.9462 107.845 15.3877 107.845 17.2878C107.845 19.1879 107.133 20.7276 105.708 21.907C104.283 23.0864 102.415 23.6761 100.106 23.6761C96.7477 23.6761 93.7337 22.4312 91.0637 19.9414L93.8647 16.5015C96.1416 18.4999 98.2546 19.4991 100.204 19.4991C101.056 19.4991 101.735 19.3108 102.243 18.934C102.735 18.5573 102.98 18.0495 102.98 17.4106C102.98 16.7882 102.718 16.2886 102.194 15.9119C101.67 15.5351 100.63 15.1584 99.0736 14.7816C96.6166 14.1919 94.8148 13.4303 93.6682 12.4966C92.5379 11.5465 91.9728 10.0723 91.9728 8.07393C91.9728 6.05917 92.6936 4.51124 94.135 3.43015C95.5765 2.33268 97.3701 1.78394 99.5159 1.78394C100.941 1.78394 102.358 2.02964 103.767 2.52104C105.175 2.99607 106.404 3.68404 107.452 4.58495L105.069 8.02479C103.234 6.63247 101.334 5.93631 99.3685 5.93631C98.5822 5.93631 97.968 6.12468 97.5257 6.50143V6.50143Z" fill="black"/>
<path d="M111.875 2.27539H116.592V23.4304H111.875V2.27539Z" fill="black"/>
<path d="M136.592 2.27539H141.31V23.4304H136.592L126.519 10.1625V23.4304H121.801V2.27539H126.224L136.592 15.8873V2.27539Z" fill="black"/>
<path d="M161.777 2.27539V6.47691H151.236V10.8504H160.72V14.8554H151.236V19.2535H162.096V23.4304H146.519V2.27539H161.777Z" fill="black"/>
<path d="M171.261 6.50143C170.803 6.87817 170.573 7.36958 170.573 7.97565C170.573 8.59809 170.852 9.0895 171.409 9.44986C171.966 9.81023 173.243 10.2361 175.242 10.7275C177.256 11.2189 178.821 11.9642 179.934 12.9634C181.032 13.9462 181.581 15.3877 181.581 17.2878C181.581 19.1879 180.876 20.7276 179.468 21.907C178.043 23.0864 176.167 23.6761 173.841 23.6761C170.5 23.6761 167.486 22.4312 164.799 19.9414L167.6 16.5015C169.893 18.4999 172.006 19.4991 173.939 19.4991C174.807 19.4991 175.487 19.3108 175.979 18.934C176.47 18.5573 176.716 18.0495 176.716 17.4106C176.716 16.7882 176.454 16.2886 175.93 15.9119C175.405 15.5351 174.365 15.1584 172.809 14.7816C170.352 14.1919 168.55 13.4303 167.404 12.4966C166.273 11.5465 165.708 10.0723 165.708 8.07393C165.708 6.05917 166.429 4.51124 167.87 3.43015C169.312 2.33268 171.114 1.78394 173.276 1.78394C174.685 1.78394 176.093 2.02964 177.502 2.52104C178.911 2.99607 180.139 3.68404 181.188 4.58495L178.804 8.02479C176.97 6.63247 175.078 5.93631 173.129 5.93631C172.326 5.93631 171.703 6.12468 171.261 6.50143V6.50143Z" fill="black"/>
<path d="M190.549 6.50143C190.107 6.87817 189.885 7.36958 189.885 7.97565C189.885 8.59809 190.164 9.0895 190.721 9.44986C191.261 9.81023 192.539 10.2361 194.554 10.7275C196.569 11.2189 198.125 11.9642 199.222 12.9634C200.336 13.9462 200.893 15.3877 200.893 17.2878C200.893 19.1879 200.18 20.7276 198.755 21.907C197.33 23.0864 195.463 23.6761 193.153 23.6761C189.795 23.6761 186.781 22.4312 184.111 19.9414L186.912 16.5015C189.189 18.4999 191.294 19.4991 193.227 19.4991C194.095 19.4991 194.783 19.3108 195.291 18.934C195.782 18.5573 196.028 18.0495 196.028 17.4106C196.028 16.7882 195.766 16.2886 195.242 15.9119C194.718 15.5351 193.677 15.1584 192.121 14.7816C189.664 14.1919 187.863 13.4303 186.716 12.4966C185.569 11.5465 184.996 10.0723 184.996 8.07393C184.996 6.05917 185.725 4.51124 187.183 3.43015C188.624 2.33268 190.418 1.78394 192.564 1.78394C193.989 1.78394 195.406 2.02964 196.814 2.52104C198.223 2.99607 199.452 3.68404 200.5 4.58495L198.117 8.02479C196.282 6.63247 194.382 5.93631 192.416 5.93631C191.63 5.93631 191.008 6.12468 190.549 6.50143V6.50143Z" fill="black"/>
<path d="M55.1832 32.4744L54.8357 32.9089C54.2275 32.3296 53.4455 31.9821 52.4898 31.9821C50.6652 31.9821 49.3619 33.3143 49.3619 35.1969C49.3619 37.1373 50.6652 38.4695 52.4898 38.4695C53.5034 38.4695 54.3723 38.093 54.9515 37.398L55.328 37.8034C54.6619 38.5854 53.6482 39.0198 52.4608 39.0198C50.3176 39.0198 48.7537 37.4559 48.7537 35.2258C48.7537 32.9957 50.3176 31.4028 52.4608 31.4028C53.5613 31.4028 54.5171 31.8083 55.1832 32.4744V32.4744Z" fill="#6C6D6D"/>
<path fill-rule="evenodd" clip-rule="evenodd" d="M63.9877 35.1969C63.9877 37.4559 62.4237 39.0198 60.2516 39.0198C58.0794 39.0198 56.4865 37.4559 56.4865 35.1969C56.4865 32.9957 58.0794 31.4028 60.2516 31.4028C62.4237 31.4028 63.9877 32.9957 63.9877 35.1969ZM57.0947 35.2258C57.0947 37.1373 58.427 38.4695 60.2516 38.4695C62.0762 38.4695 63.3795 37.1373 63.3795 35.2258C63.3795 33.3143 62.0762 31.9821 60.2516 31.9821C58.427 31.9821 57.0947 33.3143 57.0947 35.2258Z" fill="#6C6D6D"/>
<path d="M78.6424 34.3859V39.0198H78.0342V34.5018C78.0342 32.9378 77.1363 32.011 75.6014 32.011C73.7767 32.069 72.7341 33.3143 72.7341 35.2837V39.0198H72.1259V34.5018C72.1259 32.9378 71.1991 32.011 69.6931 32.011C67.8685 32.069 66.7969 33.3143 66.7969 35.2837V39.0198H66.1887V31.4318H66.7969V33.4302C67.2893 32.1269 68.3609 31.4318 69.8669 31.4028C71.3729 31.4028 72.3866 32.2138 72.6472 33.6039C73.1106 32.1848 74.2112 31.4318 75.7462 31.4028C77.5708 31.4028 78.6424 32.5324 78.6424 34.3859V34.3859Z" fill="#6C6D6D"/>
<path d="M93.8764 34.3859V39.0198H93.2682V34.5018C93.2682 32.9378 92.3703 32.011 90.8354 32.011C89.0108 32.069 87.9681 33.3143 87.9681 35.2837V39.0198H87.3599V34.5018C87.3599 32.9378 86.4331 32.011 84.9271 32.011C83.1025 32.069 82.0309 33.3143 82.0309 35.2837V39.0198H81.4227V31.4318H82.0309V33.4302C82.5233 32.1269 83.5949 31.4318 85.0719 31.4028C86.6069 31.4028 87.6206 32.2138 87.8812 33.6039C88.3446 32.1848 89.4162 31.4318 90.9802 31.4028C92.8048 31.4028 93.8764 32.5324 93.8764 34.3859V34.3859Z" fill="#6C6D6D"/>
<path fill-rule="evenodd" clip-rule="evenodd" d="M103.057 35.3706H96.425C96.5119 37.2242 97.8152 38.4695 99.5529 38.4695C100.596 38.4695 101.522 38.0931 102.131 37.4269L102.478 37.8324C101.783 38.5854 100.74 39.0198 99.5239 39.0198C97.3807 39.0198 95.8458 37.4559 95.8458 35.2258C95.8458 32.9957 97.3807 31.4028 99.5239 31.4028C101.754 31.4028 103.115 33.0247 103.057 35.3706ZM102.507 34.8493C102.391 33.1406 101.262 31.9531 99.5239 31.9531C97.8441 31.9531 96.5988 33.1406 96.454 34.8493H102.507Z" fill="#6C6D6D"/>
<path d="M105.838 33.3433C106.33 32.0979 107.315 31.4318 108.676 31.4028V32.04C106.996 32.04 105.982 33.1406 105.838 34.9072V39.0198H105.229V31.4318H105.838V33.3433Z" fill="#6C6D6D"/>
<path d="M115.945 32.4744L115.598 32.9089C114.99 32.3296 114.208 31.9821 113.252 31.9821C111.427 31.9821 110.124 33.3143 110.124 35.1969C110.124 37.1373 111.427 38.4695 113.252 38.4695C114.266 38.4695 115.134 38.093 115.714 37.398L116.09 37.8034C115.424 38.5854 114.41 39.0198 113.223 39.0198C111.08 39.0198 109.516 37.4559 109.516 35.2258C109.516 32.9957 111.08 31.4028 113.223 31.4028C114.323 31.4028 115.279 31.8083 115.945 32.4744V32.4744Z" fill="#6C6D6D"/>
<path d="M119.305 29.2308C119.305 29.5494 119.073 29.7811 118.784 29.7811C118.523 29.7811 118.262 29.5494 118.262 29.2308C118.262 28.9412 118.523 28.7095 118.784 28.7095C119.073 28.7095 119.305 28.9412 119.305 29.2308ZM118.494 39.0199V31.4319H119.073V39.0199H118.494Z" fill="#6C6D6D"/>
<path fill-rule="evenodd" clip-rule="evenodd" d="M126.98 37.5138C126.343 38.5564 125.271 39.0198 123.968 39.0198C122.462 39.0198 121.448 38.093 121.448 36.7898C121.448 35.5444 122.52 34.7624 124.286 34.7624H126.98V34.0094C126.951 32.7351 126.227 31.9531 124.692 31.9531C123.765 31.9531 122.954 32.3296 122.143 32.9378L121.854 32.4744C122.751 31.8373 123.649 31.4028 124.779 31.4028C126.574 31.4028 127.559 32.3875 127.559 33.9805L127.588 39.0198H127.009L126.98 37.5138ZM126.98 36.5291V35.2837H124.315C122.838 35.2837 122.027 35.8051 122.027 36.7898C122.027 37.7745 122.78 38.4695 124.026 38.4695C125.445 38.4695 126.516 37.8613 126.98 36.5291Z" fill="#6C6D6D"/>
<path d="M130.455 39.0199V28.1881H131.063V39.0199H130.455Z" fill="#6C6D6D"/>
<path fill-rule="evenodd" clip-rule="evenodd" d="M145.979 35.2258C145.979 37.4269 144.473 39.0198 142.33 39.0198C140.824 39.0198 139.665 38.2668 139.086 37.0215V41.8291H138.478V31.4318H139.086V33.4302C139.665 32.1848 140.824 31.4028 142.33 31.4028C144.444 31.4028 145.979 32.9957 145.979 35.2258V35.2258ZM145.371 35.2258C145.371 33.3433 144.067 31.9821 142.243 31.9821C140.418 31.9821 139.086 33.3433 139.086 35.2258C139.086 37.1083 140.418 38.4696 142.243 38.4696C144.067 38.4696 145.371 37.1083 145.371 35.2258Z" fill="#6C6D6D"/>
<path d="M148.817 33.3433C149.28 32.0979 150.265 31.4318 151.626 31.4028V32.04C149.947 32.04 148.933 33.1406 148.817 34.9072V39.0198H148.18V31.4318H148.817V33.3433Z" fill="#6C6D6D"/>
<path fill-rule="evenodd" clip-rule="evenodd" d="M159.967 35.1969C159.967 37.4559 158.404 39.0198 156.231 39.0198C154.059 39.0198 152.466 37.4559 152.466 35.1969C152.466 32.9957 154.059 31.4028 156.231 31.4028C158.404 31.4028 159.967 32.9957 159.967 35.1969ZM153.075 35.2258C153.075 37.1373 154.407 38.4695 156.231 38.4695C158.056 38.4695 159.359 37.1373 159.359 35.2258C159.359 33.3143 158.056 31.9821 156.231 31.9821C154.407 31.9821 153.075 33.3143 153.075 35.2258Z" fill="#6C6D6D"/>
<path fill-rule="evenodd" clip-rule="evenodd" d="M169.728 35.2258C169.728 37.4269 168.222 39.0198 166.078 39.0198C164.601 39.0198 163.443 38.2668 162.864 37.0215V41.8291H162.255V31.4318H162.864V33.4302C163.443 32.1848 164.601 31.4028 166.078 31.4028C168.222 31.4028 169.728 32.9957 169.728 35.2258V35.2258ZM169.148 35.2258C169.148 33.3433 167.845 31.9821 165.992 31.9821C164.167 31.9821 162.864 33.3433 162.864 35.2258C162.864 37.1083 164.167 38.4696 165.992 38.4696C167.845 38.4696 169.148 37.1083 169.148 35.2258Z" fill="#6C6D6D"/>
<path fill-rule="evenodd" clip-rule="evenodd" d="M178.358 35.3706H171.726C171.813 37.2242 173.116 38.4695 174.883 38.4695C175.897 38.4695 176.823 38.0931 177.432 37.4269L177.779 37.8324C177.084 38.5854 176.041 39.0198 174.854 39.0198C172.711 39.0198 171.147 37.4559 171.147 35.2258C171.147 32.9957 172.711 31.4028 174.854 31.4028C177.084 31.4028 178.416 33.0247 178.358 35.3706ZM177.808 34.8493C177.692 33.1406 176.563 31.9531 174.854 31.9531C173.145 31.9531 171.9 33.1406 171.755 34.8493H177.808Z" fill="#6C6D6D"/>
<path d="M181.139 33.3433C181.631 32.0979 182.616 31.4318 183.977 31.4028V32.04C182.297 32.04 181.283 33.1406 181.139 34.9072V39.0198H180.53V31.4318H181.139V33.3433Z" fill="#6C6D6D"/>
<path d="M189.219 38.4986C188.727 38.8172 188.176 39.0199 187.626 39.0199C186.555 39.0489 185.888 38.3538 185.888 36.9057V32.127H184.788V31.6057H185.888V29.7231H186.497V31.6057H189.074V32.127H186.497V36.8478C186.497 37.9194 186.902 38.4407 187.684 38.4407C188.118 38.4407 188.582 38.2669 188.987 38.0063L189.219 38.4986Z" fill="#6C6D6D"/>
<path d="M192.926 40.1203C192.463 41.2499 191.71 41.8581 190.812 41.8581C190.262 41.8581 189.769 41.7132 189.393 41.4236L189.653 40.9023C189.972 41.134 190.378 41.2498 190.783 41.2498C191.478 41.2498 192.057 40.7575 192.434 39.8887L192.781 39.0198L189.653 31.4318H190.291L193.071 38.2957L195.822 31.4318H196.46L192.926 40.1203Z" fill="#6C6D6D"/>
<path d="M21.1554 7.59926C21.1554 7.55415 21.2186 7.55415 21.2186 7.59926C21.4081 12.5707 22.59 29.2265 29.9705 38.5288C29.9074 39.395 29.384 40.1619 28.581 40.4777C26.2893 41.3709 23.8081 41.8581 21.2005 41.8581C18.602 41.8581 16.1208 41.3709 13.8291 40.4777C13.026 40.1619 12.5027 39.395 12.4396 38.5288C19.8201 29.2265 20.975 12.5707 21.1554 7.59926V7.59926Z" fill="#8DC63F"/>
<path d="M41.1045 25.861C41.0323 26.2039 40.9541 26.5407 40.8699 26.8716C40.6624 27.6836 39.8774 28.2159 39.0563 28.0896C36.0608 27.6114 30.3134 25.7437 25.6307 18.4895C27.5435 23.3888 31.2698 29.7588 39.1015 30.1558C39.5345 30.3092 39.2458 31.2385 38.7766 31.9784C37.8383 33.7197 36.9811 34.7212 35.6007 36.1017C35.0052 36.7062 34.0488 36.7603 33.3721 36.2551C24.0156 29.2265 22.7886 13.473 22.6442 8.81731C22.5359 7.59925 22.5991 7.4188 22.8066 7.40076C25.1164 15.1692 31.7751 21.2505 36.6473 21.5302C37.3962 12.4444 30.2322 4.73909 21.2006 4.73909C12.187 4.73909 5.01402 12.4444 5.7629 21.5302C10.6351 21.2505 17.2667 15.1692 19.5675 7.40076C19.6667 7.37369 19.8382 7.42782 19.8382 7.63534C19.8201 7.94211 19.7479 9.47596 19.7209 9.88197C19.4231 15.5121 17.772 29.6866 9.03811 36.2551C8.36141 36.7603 7.40502 36.7062 6.80952 36.1017C5.42906 34.7212 4.2471 33.1332 3.30875 31.3919C2.91175 30.7874 3.02905 30.237 3.30875 30.1558C9.93135 30.3994 14.8126 23.5242 16.7795 18.4895C12.0968 25.7437 6.34937 27.6114 3.35386 28.0896C2.52378 28.2159 1.74784 27.6746 1.54032 26.8625C1.42603 26.4234 1.32678 25.9813 1.24257 25.5362C0.683169 22.5317 0.96287 20.3933 0.96287 20.1497C1.80197 9.6925 10.5359 1.4729 21.2006 1.4729C34.0398 1.4729 43.6759 13.2564 41.1045 25.861V25.861Z" fill="#1C75BC"/>
<path d="M21.1554 6.58877C21.1554 6.54365 21.2186 6.54365 21.2186 6.58877C21.4081 11.5692 22.59 29.2265 29.9705 38.5288C29.8983 38.7815 29.7269 38.98 29.4923 39.0882C26.957 40.2251 24.1599 40.8567 21.2005 40.8567C18.2501 40.8567 15.4441 40.2251 12.9178 39.0882C12.6832 38.98 12.5118 38.7815 12.4396 38.5288C19.8201 29.2265 20.975 11.5692 21.1554 6.58877V6.58877Z" fill="url(#paint0_linear_201_503)"/>
<path d="M41.1045 24.6159C41.0323 24.9588 40.9541 25.2986 40.8699 25.6355C40.6624 26.4385 39.8774 26.9798 39.0563 26.8445C36.0608 26.3753 30.3134 24.4986 25.6307 17.2535C27.6878 22.5227 32.8037 28.6219 39.1015 30.1558C38.1631 31.8972 36.9811 33.4761 35.6007 34.8656C35.0052 35.4611 34.0488 35.5242 33.3721 35.01C24.0156 27.9813 22.7886 12.2279 22.6442 7.57219C22.6352 7.37369 22.9239 7.3376 22.978 7.52708C25.2878 15.2865 31.7751 20.0144 36.6473 20.2851C37.3962 11.2083 30.2322 3.50299 21.2006 3.50299C12.187 3.50299 5.01402 11.1993 5.7629 20.2851C10.6351 20.0144 17.1224 15.2865 19.4322 7.52708C19.4863 7.3376 19.775 7.37369 19.766 7.57219C19.6126 12.2279 18.3855 27.9813 9.03811 35.01C8.36141 35.5242 7.40502 35.4611 6.80952 34.8656C5.42906 33.4761 4.2471 31.8972 3.30875 30.1558C9.60653 28.6219 14.7224 22.5227 16.7795 17.2535C12.0968 24.4986 6.34937 26.3753 3.35386 26.8445C2.52378 26.9798 1.74784 26.4294 1.54032 25.6174C1.42603 25.1843 1.32678 24.7422 1.24257 24.2911C0.683169 21.2956 0.96287 19.1572 0.96287 18.9046C1.80197 8.44738 10.5359 0.227783 21.2006 0.227783C34.0398 0.227783 43.6759 12.0203 41.1045 24.6159Z" fill="url(#paint1_linear_201_503)"/>
<path style="mix-blend-mode:overlay" d="M14.4156 35.6055C20.0367 25.9242 20.9931 11.082 21.1555 6.58877C21.1555 6.54365 21.2186 6.54365 21.2186 6.58877C21.3901 11.1091 22.3826 26.0596 28.0668 35.7408C26.0006 36.5438 23.754 36.986 21.4081 36.986C18.9269 36.986 16.572 36.4987 14.4156 35.6055V35.6055Z" fill="url(#paint2_linear_201_503)"/>
<path style="mix-blend-mode:overlay" d="M39.8413 18.5527C39.8413 21.449 39.1646 24.1918 37.9736 26.637C34.8157 25.8971 29.7991 23.7046 25.6307 17.2535C27.3901 21.7557 31.3871 26.8625 36.4398 29.2174C35.1856 30.9768 33.6338 32.5107 31.8563 33.7378C23.8893 26.231 22.7796 11.9662 22.6442 7.57219C22.6352 7.37369 22.9239 7.3376 22.978 7.52708C25.2878 15.2865 31.7751 20.0144 36.6473 20.2851C37.3962 11.2083 30.2322 3.50299 21.2006 3.50299C12.187 3.50299 5.01402 11.1993 5.7629 20.2851C10.6351 20.0144 17.1224 15.2865 19.4322 7.52708C19.4863 7.3376 19.775 7.37369 19.766 7.57219C19.6307 11.9301 18.5389 26.0325 10.7253 33.5754C8.993 32.3393 7.48622 30.8144 6.26817 29.0731C11.1855 26.664 15.0562 21.6655 16.7795 17.2535C12.7644 23.47 7.96442 25.7257 4.78846 26.5467C3.62454 24.1287 2.97491 21.4219 2.97491 18.5527C2.97491 10.0263 8.76743 2.85336 16.6352 0.751095C18.1058 0.408235 19.6307 0.227783 21.2006 0.227783C24.1781 0.227783 26.9751 0.859366 29.4924 1.98719C35.6187 4.9827 39.8413 11.2715 39.8413 18.5527Z" fill="url(#paint3_linear_201_503)"/>
<defs>
<linearGradient id="paint0_linear_201_503" x1="7489.38" y1="4181.07" x2="6450.04" y2="14569.9" gradientUnits="userSpaceOnUse">
<stop stop-color="#D7DF23"/>
<stop offset="0.7" stop-color="#39B54A"/>
<stop offset="1" stop-color="#006838"/>
</linearGradient>
<linearGradient id="paint1_linear_201_503" x1="21648" y1="-2023.25" x2="22118.9" y2="15321.1" gradientUnits="userSpaceOnUse">
<stop offset="0.1" stop-color="#34C8F6"/>
<stop offset="0.9" stop-color="#1F397C"/>
</linearGradient>
<linearGradient id="paint2_linear_201_503" x1="3191.05" y1="280.434" x2="7460.88" y2="1676.55" gradientUnits="userSpaceOnUse">
<stop stop-color="white"/>
<stop offset="1" stop-color="white"/>
</linearGradient>
<linearGradient id="paint3_linear_201_503" x1="5422.34" y1="-6269.49" x2="18005" y2="3816.01" gradientUnits="userSpaceOnUse">
<stop stop-color="white"/>
<stop offset="1" stop-color="white"/>
</linearGradient>
</defs>
</svg>
