<svg width="201" height="46" viewBox="0 0 201 46" fill="none" xmlns="http://www.w3.org/2000/svg">
<path d="M31.5099 12.3483C31.5099 10.5213 32.0249 9.15108 33.0551 8.23757C34.0852 7.32407 35.6984 6.86731 37.8947 6.86731H54.0463V12.2609H38.5361C38.1474 12.2609 37.8558 12.3095 37.6615 12.4067C37.4671 12.5233 37.3699 12.6496 37.3699 12.7857L37.3116 14.2725V18.5874C37.3311 18.8012 37.3505 19.0442 37.3699 19.3163C37.3699 19.5689 37.3699 19.8022 37.3699 20.016C37.3699 20.463 37.7587 20.6865 38.5361 20.6865H54.0463V26.0218H37.8947C35.6984 26.0218 34.0852 25.5553 33.0551 24.6224C32.0249 23.7089 31.5099 22.3386 31.5099 20.5116V12.3483Z" fill="black"/>
<path fill-rule="evenodd" clip-rule="evenodd" d="M63.4923 15.9635V26.0218H56.8743V6.86731H72.4427C73.8033 6.86731 74.95 6.95478 75.883 7.12971C76.8159 7.32407 77.5739 7.65448 78.157 8.12095C78.7207 8.58742 79.1288 9.20939 79.3815 9.98684C79.6342 10.7643 79.7702 11.7653 79.7897 12.9897C79.7897 14.0782 79.7119 15.0111 79.5564 15.7886C79.3815 16.566 79.09 17.2171 78.6818 17.7419C78.2931 18.2473 77.7683 18.636 77.1075 18.9081C76.4661 19.1802 75.6789 19.3551 74.7459 19.4329C75.329 19.9577 75.951 20.5019 76.6118 21.0655C77.2532 21.6292 77.9141 22.2025 78.5943 22.7856C79.2552 23.3493 79.9063 23.9032 80.5477 24.4474C81.1891 25.0111 81.7916 25.5359 82.3553 26.0218H74.6585L63.4923 15.9635ZM71.9763 15.1763C72.4233 15.1763 72.8218 15.05 73.1716 14.7973C73.502 14.5447 73.6672 14.1851 73.6672 13.7186C73.6672 13.291 73.5117 12.9509 73.2008 12.6982C72.8703 12.4455 72.4816 12.3192 72.0346 12.3192H63.4923V15.1763H71.9763Z" fill="black"/>
<path d="M96.9616 19.3746V26.0218H90.3144V19.3746C89.4981 18.3833 88.6526 17.3629 87.778 16.3134C86.9033 15.2444 86.019 14.1754 85.1249 13.1064C84.2308 12.0374 83.3465 10.9684 82.4719 9.89938C81.5972 8.84982 80.7517 7.83912 79.9354 6.86731H87.9529L93.6672 13.9518C94.6001 12.7662 95.5525 11.5709 96.5243 10.3658C97.4961 9.18023 98.4388 8.01405 99.3523 6.86731H107.399L96.9616 19.3746Z" fill="black"/>
<path d="M129.964 16.1967C130.489 17.2463 130.752 18.4999 130.752 19.9577C130.752 22.0762 130.275 23.6117 129.323 24.5641C128.39 25.5359 126.864 26.0218 124.746 26.0218H111.597L109.965 25.5845L108.798 24.9722L108.157 24.1851L107.807 22.9606V21.1238H122.355C122.841 21.1238 123.288 21.0461 123.696 20.8906C124.085 20.7157 124.279 20.4047 124.279 19.9577C124.279 19.4523 124.046 19.1413 123.58 19.0247C123.288 18.9275 122.987 18.8692 122.676 18.8498C122.345 18.8303 121.947 18.8206 121.481 18.8206C121.364 18.8206 121.179 18.8206 120.927 18.8206C120.655 18.8206 120.295 18.8206 119.848 18.8206H119.032C117.943 18.7818 117.069 18.7623 116.408 18.7623C115.747 18.7818 115.29 18.7818 115.037 18.7623C114.765 18.7429 114.493 18.7234 114.221 18.704C113.968 18.704 113.716 18.6943 113.463 18.6749C113.308 18.6554 113.162 18.636 113.026 18.6166C112.87 18.6166 112.744 18.6068 112.647 18.5874H112.239C110.373 18.4902 109.032 17.8585 108.215 16.6924C107.904 16.2842 107.681 15.7691 107.545 15.1472C107.409 14.5058 107.341 13.7866 107.341 12.9897C107.341 10.9489 107.739 9.41347 108.536 8.38334C109.333 7.37266 110.655 6.86731 112.501 6.86731L126.32 6.92562L127.632 7.36294L128.682 7.88772L129.411 8.70404L129.994 9.78276L130.052 11.7361H115.562C115.096 11.7361 114.678 11.8138 114.309 11.9693C113.939 12.1443 113.755 12.4553 113.755 12.9023C113.755 13.3104 113.93 13.5923 114.279 13.7478C114.61 13.9032 115.067 13.981 115.65 13.981H116.641C116.894 14.0199 117.428 14.049 118.244 14.0685H119.032C119.965 14.1073 120.761 14.117 121.422 14.0976C122.064 14.0782 122.569 14.0782 122.938 14.0976C123.172 14.117 123.395 14.117 123.609 14.0976C123.803 14.0782 123.998 14.0782 124.192 14.0976C124.289 14.117 124.386 14.1268 124.483 14.1268C124.581 14.1268 124.658 14.1268 124.717 14.1268C124.969 14.1462 125.203 14.1462 125.416 14.1268C125.63 14.1073 125.825 14.1073 125.999 14.1268C126.913 14.1851 127.71 14.3892 128.39 14.739C129.051 15.0694 129.566 15.5456 129.935 16.1676L129.964 16.1967Z" fill="black"/>
<path d="M147.049 26.0218H140.431V11.9985H132.413V6.86731H154.833V11.9985H147.049V26.0218Z" fill="black"/>
<path d="M158.186 25.9343L150.693 26.0218L161.218 6.86731H169.09L179.469 26.0218H172.093L170.431 22.9023H162.034L164.746 18.0626H167.894C167.642 17.5962 167.399 17.1588 167.166 16.7507C166.932 16.3425 166.709 15.9441 166.495 15.5553C166.281 15.1666 166.058 14.7584 165.825 14.3308C165.611 13.9032 165.368 13.4465 165.096 12.9606L158.186 25.9343Z" fill="black"/>
<path d="M200.052 20.6865V26.0218H181.16V6.86731H187.719V20.6865H200.052Z" fill="black"/>
<path d="M35.2448 35.6675V40.1745C35.2448 40.5084 35.2853 40.7267 35.3662 40.8294C35.474 40.9578 35.6897 41.022 36.0133 41.022H40.4218C41.0959 41.022 41.6756 40.9706 42.1609 40.8679L42.0396 41.7924H35.9324C35.1235 41.7924 34.5573 41.6384 34.2337 41.3302C33.9371 41.0477 33.7888 40.5341 33.7888 39.7893V36.0527C33.7888 35.3336 33.9371 34.82 34.2337 34.5118C34.5573 34.2037 35.1235 34.0496 35.9324 34.0496H41.9183L41.9992 34.9741C41.5678 34.8714 40.9746 34.82 40.2196 34.82H36.0133C35.6897 34.82 35.4875 34.8714 35.4066 34.9741C35.2988 35.1025 35.2448 35.3336 35.2448 35.6675V35.6675Z" fill="#98A5A8"/>
<path d="M49.158 34.0496H52.3936L52.3127 35.2052L51.1398 35.0897L50.0882 35.0511H48.9153C48.5917 35.0511 48.376 35.1025 48.2682 35.2052C48.1873 35.3336 48.1469 35.5647 48.1469 35.8986V40.136C48.1469 40.778 48.2008 41.3302 48.3086 41.7924H46.5291C46.6369 41.3815 46.6908 40.8294 46.6908 40.136V35.706C46.6908 35.064 46.6369 34.5118 46.5291 34.0496H47.9851L48.066 34.7815C48.1738 34.5247 48.3086 34.3449 48.4704 34.2422C48.6052 34.1138 48.8344 34.0496 49.158 34.0496V34.0496Z" fill="#98A5A8"/>
<path fill-rule="evenodd" clip-rule="evenodd" d="M65.6595 38.4025H57.9345V40.1745C57.9345 40.5084 57.975 40.7267 58.0559 40.8294C58.1367 40.9578 58.339 41.022 58.6625 41.022H63.9204C64.5675 41.022 65.1472 40.9706 65.6595 40.8679L65.4573 41.7924H58.5816C57.7727 41.7924 57.22 41.6384 56.9234 41.3302C56.5998 41.0477 56.438 40.5341 56.438 39.7893V36.0527C56.438 35.3336 56.5998 34.82 56.9234 34.5118C57.2469 34.2037 57.8132 34.0496 58.6221 34.0496H63.5564C64.3653 34.0496 64.918 34.1908 65.2146 34.4733C65.3225 34.576 65.4438 34.7943 65.5786 35.1282L65.6595 35.5519V38.4025ZM57.9345 37.6706H64.2035V35.706C64.1765 35.3721 64.1361 35.141 64.0822 35.0126C64.0013 34.8842 63.7856 34.82 63.435 34.82H58.6625C58.339 34.82 58.1367 34.8842 58.0559 35.0126C57.975 35.1153 57.9345 35.3465 57.9345 35.706V37.6706Z" fill="#98A5A8"/>
<path fill-rule="evenodd" clip-rule="evenodd" d="M79.3299 36.0527V40.136C79.3299 40.8551 79.3838 41.4072 79.4917 41.7924H78.0761L77.9143 41.2917C77.8334 41.4714 77.7256 41.6127 77.5907 41.7154L77.3076 41.7924H72.4947C71.6588 41.7924 71.0926 41.6384 70.796 41.3302C70.4994 41.0477 70.3511 40.5341 70.3511 39.7893V38.5951C70.3511 37.8761 70.4994 37.3624 70.796 37.0543C71.1195 36.7461 71.6858 36.592 72.4947 36.592H77.1054C77.375 36.592 77.5773 36.5278 77.7121 36.3994C77.8199 36.271 77.8739 36.0527 77.8739 35.7445V35.6289C77.8739 35.3208 77.8065 35.1025 77.6716 34.9741C77.5638 34.8714 77.375 34.82 77.1054 34.82H72.252C71.5779 34.82 70.9982 34.8714 70.5129 34.9741L70.6342 34.0496H77.2267C78.0356 34.0496 78.5884 34.1908 78.885 34.4733C79.1816 34.7301 79.3299 35.2566 79.3299 36.0527ZM77.8739 40.1745V37.3239H72.5756C72.252 37.3239 72.0363 37.3881 71.9284 37.5165C71.8475 37.6192 71.8071 37.8504 71.8071 38.2099V40.1745C71.8071 40.5084 71.8475 40.7267 71.9284 40.8294C72.0093 40.9578 72.225 41.022 72.5756 41.022H77.1054C77.375 41.022 77.5773 40.9578 77.7121 40.8294C77.8199 40.701 77.8739 40.4827 77.8739 40.1745Z" fill="#98A5A8"/>
<path d="M90.8164 34.82H86.7719V40.1746C86.7719 40.5084 86.8123 40.7267 86.8932 40.8294C86.9741 40.9578 87.1763 41.022 87.4999 41.022H89.5221C90.1962 41.022 90.7759 40.9707 91.2613 40.8679L91.1399 41.7925H87.419C86.6101 41.7925 86.0573 41.6384 85.7607 41.3302C85.4641 41.0477 85.3158 40.5341 85.3158 39.7893V34.82H84.0216V34.0496H85.3158V32.5087L86.7719 32.2776V34.0496H90.8164V34.82Z" fill="#98A5A8"/>
<path d="M97.4089 34.0495V40.136C97.4089 40.8551 97.4628 41.4072 97.5706 41.7924H95.7506L95.9124 41.099L95.9528 40.136V35.706C95.9528 34.9612 95.8854 34.4091 95.7506 34.0495H97.4089ZM95.9528 33.0865V31.9694H97.4089V33.0865H95.9528Z" fill="#98A5A8"/>
<path d="M101.575 34.0496H103.435L103.597 34.6659L103.799 35.2052L106.994 41.099L110.149 35.5134C110.392 35.1025 110.581 34.6145 110.715 34.0496H112.333L112.131 34.2422L111.565 34.8585L111.16 35.5134L107.642 41.7924H105.781L102.101 34.9356L101.898 34.5503L101.575 34.0496Z" fill="#98A5A8"/>
<path fill-rule="evenodd" clip-rule="evenodd" d="M125.276 38.4025H117.551V40.1745C117.551 40.5084 117.591 40.7267 117.672 40.8294C117.753 40.9578 117.968 41.022 118.319 41.022H123.536C124.184 41.022 124.763 40.9706 125.276 40.8679L125.073 41.7924H118.198C117.389 41.7924 116.836 41.6384 116.539 41.3302C116.243 41.0477 116.095 40.5341 116.095 39.7893V36.0527C116.095 35.3336 116.243 34.82 116.539 34.5118C116.863 34.2037 117.429 34.0496 118.238 34.0496H123.172C123.981 34.0496 124.534 34.1908 124.831 34.4733C124.939 34.576 125.06 34.7943 125.195 35.1282L125.276 35.5519V38.4025ZM117.551 37.6706H123.82V35.706C123.82 35.3721 123.779 35.141 123.698 35.0126C123.617 34.8842 123.402 34.82 123.051 34.82H118.319C117.995 34.82 117.78 34.8842 117.672 35.0126C117.591 35.1153 117.551 35.3465 117.551 35.706V37.6706Z" fill="#98A5A8"/>
<path fill-rule="evenodd" clip-rule="evenodd" d="M151.12 35.706V42.6785C151.12 43.3718 150.958 43.8855 150.635 44.2193C150.338 44.5275 149.785 44.6816 148.976 44.6816H142.505L142.384 43.7956C142.815 43.8726 143.395 43.9111 144.123 43.9111H148.895C149.138 43.9111 149.34 43.8469 149.502 43.7185C149.61 43.6158 149.664 43.3975 149.664 43.0637V41.2917C149.502 41.4714 149.367 41.5998 149.259 41.6769C149.152 41.7539 148.922 41.7924 148.572 41.7924H144.244C143.435 41.7924 142.883 41.6384 142.586 41.3302C142.289 41.0477 142.141 40.5341 142.141 39.7893V36.0527C142.141 35.3336 142.289 34.82 142.586 34.5118C142.91 34.2037 143.462 34.0496 144.244 34.0496H148.936C149.017 34.0496 149.125 34.0881 149.259 34.1651C149.394 34.2422 149.516 34.4219 149.624 34.7044L149.785 34.0496H151.282L151.16 34.7429L151.12 35.706ZM149.664 40.1745V35.6675C149.664 35.3336 149.61 35.1025 149.502 34.9741C149.421 34.8714 149.219 34.82 148.895 34.82H144.366C144.042 34.82 143.826 34.8714 143.719 34.9741C143.638 35.1025 143.597 35.3336 143.597 35.6675V40.1745C143.597 40.5084 143.638 40.7267 143.719 40.8294C143.799 40.9578 144.015 41.022 144.366 41.022H148.895C149.165 41.022 149.367 40.9578 149.502 40.8294C149.61 40.701 149.664 40.4827 149.664 40.1745Z" fill="#98A5A8"/>
<path fill-rule="evenodd" clip-rule="evenodd" d="M165.195 38.4025H157.47V40.1745C157.47 40.5084 157.51 40.7267 157.591 40.8294C157.699 40.9578 157.915 41.022 158.238 41.022H163.456C164.13 41.022 164.709 40.9706 165.195 40.8679L164.993 41.7924H158.157C157.348 41.7924 156.782 41.6384 156.459 41.3302C156.162 41.0477 156.014 40.5341 156.014 39.7893V36.0527C156.014 35.3336 156.162 34.82 156.459 34.5118C156.782 34.2037 157.348 34.0496 158.157 34.0496H163.092C163.901 34.0496 164.467 34.1908 164.79 34.4733C164.871 34.576 164.979 34.7943 165.114 35.1282L165.195 35.5519V38.4025ZM157.47 37.6706H163.739V35.706C163.739 35.3721 163.698 35.141 163.617 35.0126C163.537 34.8842 163.321 34.82 162.97 34.82H158.238C157.915 34.82 157.712 34.8842 157.632 35.0126C157.524 35.1153 157.47 35.3465 157.47 35.706V37.6706Z" fill="#98A5A8"/>
<path d="M169.927 34.0496H171.545V34.6274L171.828 34.2037C171.936 34.1009 172.111 34.0496 172.354 34.0496H176.964C177.45 34.0496 177.8 34.1009 178.016 34.2037C178.178 34.3321 178.299 34.5375 178.38 34.82C178.488 34.5118 178.609 34.3064 178.744 34.2037C178.906 34.1009 179.229 34.0496 179.715 34.0496H182.586C183.611 34.0496 184.325 34.2037 184.73 34.5118C185.134 34.8457 185.337 35.4749 185.337 36.3994V40.136C185.337 40.778 185.39 41.3302 185.498 41.7924H183.719C183.827 41.3815 183.88 40.8294 183.88 40.136V35.6675C183.88 35.3336 183.84 35.1025 183.759 34.9741C183.705 34.8714 183.503 34.82 183.152 34.82H179.229C178.906 34.82 178.69 34.8714 178.582 34.9741C178.501 35.1025 178.461 35.3336 178.461 35.6675V40.136C178.461 40.778 178.515 41.3302 178.623 41.7924H176.843C176.951 41.3815 177.005 40.8294 177.005 40.136V35.6675C177.005 35.3336 176.964 35.1025 176.883 34.9741C176.803 34.8714 176.587 34.82 176.236 34.82H172.313C171.99 34.82 171.787 34.8714 171.707 34.9741C171.599 35.1025 171.545 35.3336 171.545 35.6675V40.136C171.545 40.778 171.599 41.3302 171.707 41.7924H169.927C170.035 41.3815 170.089 40.8294 170.089 40.136V35.6675C170.089 35.0511 170.035 34.5118 169.927 34.0496V34.0496Z" fill="#98A5A8"/>
<path d="M192.495 37.0543H196.742C197.578 37.0543 198.144 37.1827 198.441 37.4395C198.737 37.722 198.886 38.2613 198.886 39.0574V40.4442C198.886 40.8807 198.737 41.2146 198.441 41.4457C198.144 41.6769 197.632 41.7924 196.904 41.7924H190.392L190.271 40.8679C190.702 40.9706 191.282 41.022 192.01 41.022H196.823C197.12 41.022 197.308 40.9578 197.389 40.8294C197.497 40.7267 197.551 40.5084 197.551 40.1745V39.25C197.551 38.9161 197.511 38.685 197.43 38.5566C197.349 38.4539 197.147 38.4025 196.823 38.4025H192.374C191.565 38.4025 191.012 38.2613 190.716 37.9788C190.419 37.6963 190.271 37.1698 190.271 36.3994V36.0527C190.271 35.3336 190.419 34.82 190.716 34.5118C191.039 34.2037 191.592 34.0496 192.374 34.0496H198.724L198.886 34.9741C198.454 34.8714 197.875 34.82 197.147 34.82H192.495C192.172 34.82 191.956 34.8714 191.848 34.9741C191.767 35.1025 191.727 35.3336 191.727 35.6675V36.2068C191.727 36.5406 191.767 36.7589 191.848 36.8616C191.929 36.9901 192.145 37.0543 192.495 37.0543V37.0543Z" fill="#98A5A8"/>
<path d="M25.5096 31.7822L19.59 45.3409H15.9201H6.90385L0.0518188 29.6009L4.49153 26.0166L0.68484 12.2869L9.76956 0.670044L16.844 4.68203L16.5275 18.771L21.9167 20.9695L25.5096 31.7822Z" fill="#4AEDED"/>
<path d="M21.9168 20.9695L25.5096 31.7822L15.9202 45.3408L21.9168 20.9695Z" fill="url(#paint0_linear_201_445)"/>
<path d="M9.91498 45.3409L0.0518188 29.6009L4.49153 26.0166L9.91498 45.3409Z" fill="url(#paint1_linear_201_445)"/>
<path d="M0.684814 12.2869L15.9201 45.3409H9.91496L0.684814 12.2869Z" fill="url(#paint2_linear_201_445)"/>
<path d="M16.5275 18.771L0.684814 12.2868L16.844 4.68201L16.5275 18.771Z" fill="url(#paint3_linear_201_445)"/>
<path d="M0.684814 12.2869L21.9167 20.9695L15.9201 45.3409L0.684814 12.2869Z" fill="url(#paint4_linear_201_445)"/>
<path opacity="0.4" d="M15.9201 45.3409L9.76953 0.670044L16.844 4.68203L15.9201 45.3409Z" fill="url(#paint5_linear_201_445)"/>
<path d="M9.91498 45.3408H6.90385L0.0518188 29.6008L9.91498 45.3408Z" fill="url(#paint6_linear_201_445)"/>
<defs>
<linearGradient id="paint0_linear_201_445" x1="1590.5" y1="13544.6" x2="8083.14" y2="9887.74" gradientUnits="userSpaceOnUse">
<stop stop-color="#0792EA"/>
<stop offset="0.9" stop-color="#4AEDED"/>
</linearGradient>
<linearGradient id="paint1_linear_201_445" x1="1332.57" y1="5680.3" x2="2469.79" y2="5680.3" gradientUnits="userSpaceOnUse">
<stop offset="0.1" stop-color="#006DFD"/>
<stop offset="0.3" stop-color="#00C4FF"/>
<stop offset="1" stop-color="#4AEDED"/>
</linearGradient>
<linearGradient id="paint2_linear_201_445" x1="2171.71" y1="4378.72" x2="4885.12" y2="4378.72" gradientUnits="userSpaceOnUse">
<stop stop-color="#0061BD"/>
<stop offset="0.4" stop-color="#00C4FF"/>
<stop offset="0.8" stop-color="#00C4FF"/>
</linearGradient>
<linearGradient id="paint3_linear_201_445" x1="1760.42" y1="2119.44" x2="5613.35" y2="-319.668" gradientUnits="userSpaceOnUse">
<stop offset="0.1" stop-color="#4AEDED"/>
<stop offset="0.7" stop-color="#0792EA"/>
<stop offset="0.9" stop-color="#006DFD"/>
</linearGradient>
<linearGradient id="paint4_linear_201_445" x1="9342.72" y1="-3349.31" x2="5105.11" y2="17052.7" gradientUnits="userSpaceOnUse">
<stop offset="0.2" stop-color="#4AEDED"/>
<stop offset="0.7" stop-color="#0792EA"/>
<stop offset="1" stop-color="#0017FF"/>
</linearGradient>
<linearGradient id="paint5_linear_201_445" x1="5242.03" y1="3328.65" x2="-659.391" y2="4341.07" gradientUnits="userSpaceOnUse">
<stop offset="0.1" stop-color="#4AEDED"/>
<stop offset="0.5" stop-color="#0792EA"/>
<stop offset="0.8" stop-color="#0017FF"/>
<stop offset="1"/>
</linearGradient>
<linearGradient id="paint6_linear_201_445" x1="1332.57" y1="5294.63" x2="2469.79" y2="5294.63" gradientUnits="userSpaceOnUse">
<stop offset="0.2" stop-color="#4AEDED"/>
<stop offset="0.9" stop-color="#4AEDED"/>
</linearGradient>
</defs>
</svg>
