<svg id="Ebene_1" data-name="Ebene 1" xmlns="http://www.w3.org/2000/svg" viewBox="0 0 259 67.5"><defs><style>.cls-1{fill:#0e5af2;}</style></defs><path class="cls-1" d="M64.5,30a30.48,30.48,0,0,0-7-16.2A3.74,3.74,0,0,0,58,12a3.59,3.59,0,0,0-3.6-3.6,3.08,3.08,0,0,0-1.9.6,31,31,0,0,0-16-6.3A3.54,3.54,0,0,0,33.1,0a3.63,3.63,0,0,0-3.5,2.8A30.68,30.68,0,0,0,14.3,9.4a3.61,3.61,0,0,0-5.6,3,3.7,3.7,0,0,0,.6,2.1A31.63,31.63,0,0,0,2.8,30,3.46,3.46,0,0,0,0,33.4a3.63,3.63,0,0,0,2.8,3.5A30.62,30.62,0,0,0,9.1,52.7a3.61,3.61,0,0,0,3,5.6,3.29,3.29,0,0,0,1.9-.6,30.69,30.69,0,0,0,15.7,6.9,3.54,3.54,0,0,0,3.5,2.9,3.63,3.63,0,0,0,3.5-2.8,31.4,31.4,0,0,0,16.1-6.4,3.29,3.29,0,0,0,1.9.6,3.59,3.59,0,0,0,3.6-3.6,3.45,3.45,0,0,0-.5-1.8,30.85,30.85,0,0,0,6.9-16.7,3.66,3.66,0,0,0,2.7-3.5A3.73,3.73,0,0,0,64.5,30ZM54.9,15.5a3.61,3.61,0,0,0,2-.6,30.82,30.82,0,0,1,6.5,15,3.33,3.33,0,0,0-2.3,1.7L52,28.2v0A3.52,3.52,0,0,0,50.5,25l4-9.4C54.6,15.5,54.7,15.5,54.9,15.5ZM52.5,15l-4,9.4c-.2,0-.4-.1-.6-.1a3.6,3.6,0,0,0-3.3,2.3L28.2,22.8a1.7,1.7,0,0,0-.1-.7l23.3-8.2A11.41,11.41,0,0,0,52.5,15ZM33.2,7a3.64,3.64,0,0,0,3.5-2.9A28.74,28.74,0,0,1,51.5,9.9,3.51,3.51,0,0,0,51,12.13l0,.07L27.6,20.4c-.2-.2-.4-.5-.6-.6L33.1,7ZM29.6,4.4a3.26,3.26,0,0,0,1.8,2.3l-6,12.6a1.7,1.7,0,0,0-.7-.1,3.17,3.17,0,0,0-2,.6l-7.1-6a4,4,0,0,0,.3-1.5,4.07,4.07,0,0,0-.5-1.8A30.8,30.8,0,0,1,29.6,4.4ZM7,32.7,21.7,25a3.37,3.37,0,0,0,2.8,1.4l5.1,16.3a2.36,2.36,0,0,0-.8.9L6.9,34.4a3.08,3.08,0,0,0,.1-1Zm3.6-17.2a3.37,3.37,0,0,0,1.7.5,3.49,3.49,0,0,0,2.2-.8l7.1,5.9a3.45,3.45,0,0,0-.5,1.8,1.7,1.7,0,0,0,.1.7L6.4,31.3a3.47,3.47,0,0,0-1.9-1.2A28.94,28.94,0,0,1,10.6,15.5Zm1.1,35.7a4.07,4.07,0,0,0-1.8.5A28.74,28.74,0,0,1,4.1,36.9a3.67,3.67,0,0,0,1.8-1.1L28,45.1l0,0a3.75,3.75,0,0,0,.17,1.55L14.8,53.2A3.31,3.31,0,0,0,11.7,51.2Zm18,11.9a30.23,30.23,0,0,1-14.6-6.4,3.83,3.83,0,0,0,.5-1.9h0l13.9-6.7a5.67,5.67,0,0,0,1.3.8l.8,12A3,3,0,0,0,29.7,63.1ZM31.2,42l-5-15.9a4.62,4.62,0,0,0,1.7-1.7l16.6,3.8a3.82,3.82,0,0,0,.6,1.6L33.7,42.4a3.37,3.37,0,0,0-1.7-.5C31.7,41.9,31.4,42,31.2,42Zm5.4,21.3a3.63,3.63,0,0,0-3.5-2.8h0l-.8-11.4A3.58,3.58,0,0,0,34.5,48L51,55.4v.1a4.14,4.14,0,0,0,.5,1.9A29.73,29.73,0,0,1,36.6,63.3Zm14.8-9.9L35.3,46.2a4.25,4.25,0,0,0,.2-1.1,3.7,3.7,0,0,0-.6-2.1L46.2,30.5a3.54,3.54,0,0,0,2.16.47l0,0,4.2,21A5.53,5.53,0,0,0,51.4,53.4Zm5-.8A3.5,3.5,0,0,0,54,52h0L49.8,31a3.18,3.18,0,0,0,1.1-1.2L60,33.2v0A3.55,3.55,0,0,0,62.9,37,29.86,29.86,0,0,1,56.4,52.6Z"/><path d="M108,20H96V53H88V20H76V13h32Z"/><path d="M116.65,53.8A12.91,12.91,0,0,1,103,40.2v-.7a16,16,0,0,1,1.61-7.4,11.6,11.6,0,0,1,4.51-5,12.79,12.79,0,0,1,6.73-1.8,11.46,11.46,0,0,1,8.94,3.6C127,31.3,128,34.6,128,39v3H110.43a7,7,0,0,0,2.11,4.3,6.4,6.4,0,0,0,4.52,1.6,7.83,7.83,0,0,0,6.62-3.1l3.62,4a10.11,10.11,0,0,1-4.52,3.6A13.2,13.2,0,0,1,116.65,53.8ZM116,31.3a4.4,4.4,0,0,0-3.5,1.5,7.35,7.35,0,0,0-1.7,4.2H121v-.6a5.62,5.62,0,0,0-1.3-3.8A4.92,4.92,0,0,0,116,31.3Z"/><path d="M142.92,48.26A4.38,4.38,0,0,0,146,47.12,4.17,4.17,0,0,0,147.27,44h6.53a10.16,10.16,0,0,1-5.3,9A12,12,0,0,1,143,54.39a10.84,10.84,0,0,1-8.79-3.84C132,48,131,44.42,131,39.84v-.52c0-4.36,1-7.89,3.22-10.49a11.74,11.74,0,0,1,16.64-.93c2,2,2.94,4.78,3,8.1h-6.53a5.78,5.78,0,0,0-1.22-3.64A4,4,0,0,0,142.92,31a4.06,4.06,0,0,0-3.69,2c-.85,1.35-1.23,3.22-1.23,6.13V40c0,2.91.38,5.09,1.23,6.34A4.29,4.29,0,0,0,142.92,48.26Z"/><path d="M166,28.5a8.87,8.87,0,0,1,7.12-3.5c5.86,0,8.78,3.5,8.88,10.4V53h-7V35.6a5.1,5.1,0,0,0-1-3.5c-.69-.8-1.78-1.1-3.36-1.1A5,5,0,0,0,166,33.5V53h-7V14h7V28.5Z"/><path class="cls-1" d="M189,52.9V13h13.93c4.82,0,8.53.9,11,2.81a9.54,9.54,0,0,1,3.71,8.12,9.11,9.11,0,0,1-1.5,5.21A8.72,8.72,0,0,1,212,32.45a8,8,0,0,1,4.81,3.11,8.85,8.85,0,0,1,1.8,5.71c0,3.81-1.2,6.72-3.71,8.72s-5.91,3-10.42,3H189ZM197,30h6.1c4.1-.1,6.2-1.7,6.2-4.9a4.47,4.47,0,0,0-1.6-3.9c-1-.8-2.7-1.2-5-1.2H197Zm0,6.1V47h7.13a7,7,0,0,0,4.58-1.43,4.72,4.72,0,0,0,1.63-3.87c0-3.66-1.93-5.6-5.8-5.7H197Z"/><path class="cls-1" d="M223.7,18.6a3.69,3.69,0,0,1,1.1-2.7,4.64,4.64,0,0,1,6,0,3.86,3.86,0,0,1,0,5.4,4.08,4.08,0,0,1-3,1.1,4.25,4.25,0,0,1-3-1.1A3.34,3.34,0,0,1,223.7,18.6ZM231,53h-7V25h7Z"/><path class="cls-1" d="M246,47h13v6H236V48.6L249.5,31H237V25h22v4.48Z"/></svg>