<svg width="55" height="55" viewBox="0 0 55 55" fill="none" xmlns="http://www.w3.org/2000/svg">
<path d="M52.4219 52.4219H48.9844V46.3214C51.4196 45.8423 53.2812 43.3662 53.2812 40.3906C53.2812 37.0734 50.9685 34.375 48.125 34.375C45.2815 34.375 42.9688 37.0734 42.9688 40.3906C42.9688 43.3662 44.8304 45.8423 47.2656 46.3214V49.0972L46.0238 48.2689C45.8341 48.1424 45.6019 48.0965 45.3782 48.1412C45.1546 48.186 44.9579 48.3177 44.8314 48.5074C44.7049 48.6972 44.659 48.9294 44.7037 49.153C44.7485 49.3766 44.8802 49.5733 45.0699 49.6998L47.2656 51.1629V52.4219H42.1094V5.15625C42.1094 4.92833 42.0188 4.70974 41.8577 4.54858C41.6965 4.38742 41.4779 4.29688 41.25 4.29688H35.2344V1.71875C35.2344 1.49083 35.1438 1.27224 34.9827 1.11108C34.8215 0.949916 34.6029 0.859375 34.375 0.859375H18.9062C18.6783 0.859375 18.4597 0.949916 18.2986 1.11108C18.1374 1.27224 18.0469 1.49083 18.0469 1.71875V4.29688H12.0312C11.8033 4.29688 11.5847 4.38742 11.4236 4.54858C11.2624 4.70974 11.1719 4.92833 11.1719 5.15625V52.4219H6.01562V46.3214C8.45088 45.8423 10.3125 43.3662 10.3125 40.3906C10.3125 37.0734 7.99971 34.375 5.15625 34.375C2.31279 34.375 0 37.0734 0 40.3906C0 43.3662 1.86162 45.8423 4.29688 46.3214V49.0972L3.05508 48.2689C2.96113 48.2063 2.85576 48.1628 2.74499 48.1409C2.63422 48.119 2.52022 48.1191 2.4095 48.1412C2.29877 48.1634 2.1935 48.2071 2.09968 48.2699C2.00586 48.3328 1.92533 48.4135 1.8627 48.5074C1.80006 48.6014 1.75655 48.7067 1.73463 48.8175C1.71272 48.9283 1.71284 49.0423 1.73498 49.153C1.75713 49.2637 1.80086 49.369 1.86369 49.4628C1.92653 49.5566 2.00722 49.6372 2.10117 49.6998L4.29688 51.1629V52.4219H0.859375C0.631455 52.4219 0.412869 52.5124 0.251705 52.6736C0.090541 52.8347 0 53.0533 0 53.2812C0 53.5092 0.090541 53.7278 0.251705 53.8889C0.412869 54.0501 0.631455 54.1406 0.859375 54.1406H52.4219C52.6498 54.1406 52.8684 54.0501 53.0295 53.8889C53.1907 53.7278 53.2812 53.5092 53.2812 53.2812C53.2812 53.0533 53.1907 52.8347 53.0295 52.6736C52.8684 52.5124 52.6498 52.4219 52.4219 52.4219ZM5.15625 39.5312C4.92833 39.5312 4.70974 39.6218 4.54858 39.783C4.38742 39.9441 4.29688 40.1627 4.29688 40.3906V44.5511C2.81553 44.073 1.71875 42.3887 1.71875 40.3906C1.71875 38.0209 3.26025 36.0938 5.15625 36.0938C7.05225 36.0938 8.59375 38.0209 8.59375 40.3906C8.59375 42.3887 7.49697 44.073 6.01562 44.5511V40.3906C6.01562 40.1627 5.92508 39.9441 5.76392 39.783C5.60276 39.6218 5.38417 39.5312 5.15625 39.5312ZM19.7656 2.57812H33.5156V4.29688H19.7656V2.57812ZM25.7812 52.4219H24.9219V45.5469H25.7812V52.4219ZM28.3594 52.4219H27.5V45.5469H28.3594V52.4219ZM40.3906 52.4219H30.0781V44.6875C30.0781 44.4596 29.9876 44.241 29.8264 44.0798C29.6653 43.9187 29.4467 43.8281 29.2188 43.8281H24.0625C23.8346 43.8281 23.616 43.9187 23.4548 44.0798C23.2937 44.241 23.2031 44.4596 23.2031 44.6875V52.4219H12.8906V11.1719H40.3906V52.4219ZM40.3906 9.45312H12.8906V6.01562H40.3906V9.45312ZM48.125 39.5312C47.8971 39.5312 47.6785 39.6218 47.5173 39.783C47.3562 39.9441 47.2656 40.1627 47.2656 40.3906V44.5511C45.7843 44.073 44.6875 42.3887 44.6875 40.3906C44.6875 38.0209 46.229 36.0938 48.125 36.0938C50.021 36.0938 51.5625 38.0209 51.5625 40.3906C51.5625 42.3887 50.4657 44.073 48.9844 44.5511V40.3906C48.9844 40.1627 48.8938 39.9441 48.7327 39.783C48.5715 39.6218 48.3529 39.5312 48.125 39.5312Z" fill="#0E5AF2"/>
<path d="M29.2188 35.2344H24.0625C23.8346 35.2344 23.616 35.3249 23.4548 35.4861C23.2937 35.6472 23.2031 35.8658 23.2031 36.0938V41.25C23.2031 41.4779 23.2937 41.6965 23.4548 41.8577C23.616 42.0188 23.8346 42.1094 24.0625 42.1094H29.2188C29.4467 42.1094 29.6653 42.0188 29.8264 41.8577C29.9876 41.6965 30.0781 41.4779 30.0781 41.25V36.0938C30.0781 35.8658 29.9876 35.6472 29.8264 35.4861C29.6653 35.3249 29.4467 35.2344 29.2188 35.2344ZM28.3594 40.3906H24.9219V36.9531H28.3594V40.3906Z" fill="#0E5AF2"/>
<path d="M20.625 35.2344H15.4688C15.2408 35.2344 15.0222 35.3249 14.8611 35.4861C14.6999 35.6472 14.6094 35.8658 14.6094 36.0938V41.25C14.6094 41.4779 14.6999 41.6965 14.8611 41.8577C15.0222 42.0188 15.2408 42.1094 15.4688 42.1094H20.625C20.8529 42.1094 21.0715 42.0188 21.2327 41.8577C21.3938 41.6965 21.4844 41.4779 21.4844 41.25V36.0938C21.4844 35.8658 21.3938 35.6472 21.2327 35.4861C21.0715 35.3249 20.8529 35.2344 20.625 35.2344ZM19.7656 40.3906H16.3281V36.9531H19.7656V40.3906Z" fill="#0E5AF2"/>
<path d="M37.8125 35.2344H32.6562C32.4283 35.2344 32.2097 35.3249 32.0486 35.4861C31.8874 35.6472 31.7969 35.8658 31.7969 36.0938V41.25C31.7969 41.4779 31.8874 41.6965 32.0486 41.8577C32.2097 42.0188 32.4283 42.1094 32.6562 42.1094H37.8125C38.0404 42.1094 38.259 42.0188 38.4202 41.8577C38.5813 41.6965 38.6719 41.4779 38.6719 41.25V36.0938C38.6719 35.8658 38.5813 35.6472 38.4202 35.4861C38.259 35.3249 38.0404 35.2344 37.8125 35.2344ZM36.9531 40.3906H33.5156V36.9531H36.9531V40.3906Z" fill="#0E5AF2"/>
<path d="M20.625 43.8281H15.4688C15.2408 43.8281 15.0222 43.9187 14.8611 44.0798C14.6999 44.241 14.6094 44.4596 14.6094 44.6875V49.8438C14.6094 50.0717 14.6999 50.2903 14.8611 50.4514C15.0222 50.6126 15.2408 50.7031 15.4688 50.7031H20.625C20.8529 50.7031 21.0715 50.6126 21.2327 50.4514C21.3938 50.2903 21.4844 50.0717 21.4844 49.8438V44.6875C21.4844 44.4596 21.3938 44.241 21.2327 44.0798C21.0715 43.9187 20.8529 43.8281 20.625 43.8281ZM19.7656 48.9844H16.3281V45.5469H19.7656V48.9844Z" fill="#0E5AF2"/>
<path d="M37.8125 43.8281H32.6562C32.4283 43.8281 32.2097 43.9187 32.0486 44.0798C31.8874 44.241 31.7969 44.4596 31.7969 44.6875V49.8438C31.7969 50.0717 31.8874 50.2903 32.0486 50.4514C32.2097 50.6126 32.4283 50.7031 32.6562 50.7031H37.8125C38.0404 50.7031 38.259 50.6126 38.4202 50.4514C38.5813 50.2903 38.6719 50.0717 38.6719 49.8438V44.6875C38.6719 44.4596 38.5813 44.241 38.4202 44.0798C38.259 43.9187 38.0404 43.8281 37.8125 43.8281ZM36.9531 48.9844H33.5156V45.5469H36.9531V48.9844Z" fill="#0E5AF2"/>
<path d="M29.2188 27.5H24.0625C23.8346 27.5 23.616 27.5905 23.4548 27.7517C23.2937 27.9129 23.2031 28.1315 23.2031 28.3594V33.5156C23.2031 33.7435 23.2937 33.9621 23.4548 34.1233C23.616 34.2845 23.8346 34.375 24.0625 34.375H29.2188C29.4467 34.375 29.6653 34.2845 29.8264 34.1233C29.9876 33.9621 30.0781 33.7435 30.0781 33.5156V28.3594C30.0781 28.1315 29.9876 27.9129 29.8264 27.7517C29.6653 27.5905 29.4467 27.5 29.2188 27.5ZM28.3594 32.6562H24.9219V29.2188H28.3594V32.6562Z" fill="#0E5AF2"/>
<path d="M20.625 27.5H15.4688C15.2408 27.5 15.0222 27.5905 14.8611 27.7517C14.6999 27.9129 14.6094 28.1315 14.6094 28.3594V33.5156C14.6094 33.7435 14.6999 33.9621 14.8611 34.1233C15.0222 34.2845 15.2408 34.375 15.4688 34.375H20.625C20.8529 34.375 21.0715 34.2845 21.2327 34.1233C21.3938 33.9621 21.4844 33.7435 21.4844 33.5156V28.3594C21.4844 28.1315 21.3938 27.9129 21.2327 27.7517C21.0715 27.5905 20.8529 27.5 20.625 27.5ZM19.7656 32.6562H16.3281V29.2188H19.7656V32.6562Z" fill="#0E5AF2"/>
<path d="M37.8125 27.5H32.6562C32.4283 27.5 32.2097 27.5905 32.0486 27.7517C31.8874 27.9129 31.7969 28.1315 31.7969 28.3594V33.5156C31.7969 33.7435 31.8874 33.9621 32.0486 34.1233C32.2097 34.2845 32.4283 34.375 32.6562 34.375H37.8125C38.0404 34.375 38.259 34.2845 38.4202 34.1233C38.5813 33.9621 38.6719 33.7435 38.6719 33.5156V28.3594C38.6719 28.1315 38.5813 27.9129 38.4202 27.7517C38.259 27.5905 38.0404 27.5 37.8125 27.5ZM36.9531 32.6562H33.5156V29.2188H36.9531V32.6562Z" fill="#0E5AF2"/>
<path d="M29.2188 19.7656H24.0625C23.8346 19.7656 23.616 19.8562 23.4548 20.0173C23.2937 20.1785 23.2031 20.3971 23.2031 20.625V25.7812C23.2031 26.0092 23.2937 26.2278 23.4548 26.3889C23.616 26.5501 23.8346 26.6406 24.0625 26.6406H29.2188C29.4467 26.6406 29.6653 26.5501 29.8264 26.3889C29.9876 26.2278 30.0781 26.0092 30.0781 25.7812V20.625C30.0781 20.3971 29.9876 20.1785 29.8264 20.0173C29.6653 19.8562 29.4467 19.7656 29.2188 19.7656ZM28.3594 24.9219H24.9219V21.4844H28.3594V24.9219Z" fill="#0E5AF2"/>
<path d="M20.625 19.7656H15.4688C15.2408 19.7656 15.0222 19.8562 14.8611 20.0173C14.6999 20.1785 14.6094 20.3971 14.6094 20.625V25.7812C14.6094 26.0092 14.6999 26.2278 14.8611 26.3889C15.0222 26.5501 15.2408 26.6406 15.4688 26.6406H20.625C20.8529 26.6406 21.0715 26.5501 21.2327 26.3889C21.3938 26.2278 21.4844 26.0092 21.4844 25.7812V20.625C21.4844 20.3971 21.3938 20.1785 21.2327 20.0173C21.0715 19.8562 20.8529 19.7656 20.625 19.7656ZM19.7656 24.9219H16.3281V21.4844H19.7656V24.9219Z" fill="#0E5AF2"/>
<path d="M37.8125 19.7656H32.6562C32.4283 19.7656 32.2097 19.8562 32.0486 20.0173C31.8874 20.1785 31.7969 20.3971 31.7969 20.625V25.7812C31.7969 26.0092 31.8874 26.2278 32.0486 26.3889C32.2097 26.5501 32.4283 26.6406 32.6562 26.6406H37.8125C38.0404 26.6406 38.259 26.5501 38.4202 26.3889C38.5813 26.2278 38.6719 26.0092 38.6719 25.7812V20.625C38.6719 20.3971 38.5813 20.1785 38.4202 20.0173C38.259 19.8562 38.0404 19.7656 37.8125 19.7656ZM36.9531 24.9219H33.5156V21.4844H36.9531V24.9219Z" fill="#0E5AF2"/>
<path d="M29.2188 12.0312H24.0625C23.8346 12.0312 23.616 12.1218 23.4548 12.283C23.2937 12.4441 23.2031 12.6627 23.2031 12.8906V18.0469C23.2031 18.2748 23.2937 18.4934 23.4548 18.6545C23.616 18.8157 23.8346 18.9062 24.0625 18.9062H29.2188C29.4467 18.9062 29.6653 18.8157 29.8264 18.6545C29.9876 18.4934 30.0781 18.2748 30.0781 18.0469V12.8906C30.0781 12.6627 29.9876 12.4441 29.8264 12.283C29.6653 12.1218 29.4467 12.0312 29.2188 12.0312ZM28.3594 17.1875H24.9219V13.75H28.3594V17.1875Z" fill="#0E5AF2"/>
<path d="M20.625 12.0312H15.4688C15.2408 12.0312 15.0222 12.1218 14.8611 12.283C14.6999 12.4441 14.6094 12.6627 14.6094 12.8906V18.0469C14.6094 18.2748 14.6999 18.4934 14.8611 18.6545C15.0222 18.8157 15.2408 18.9062 15.4688 18.9062H20.625C20.8529 18.9062 21.0715 18.8157 21.2327 18.6545C21.3938 18.4934 21.4844 18.2748 21.4844 18.0469V12.8906C21.4844 12.6627 21.3938 12.4441 21.2327 12.283C21.0715 12.1218 20.8529 12.0312 20.625 12.0312ZM19.7656 17.1875H16.3281V13.75H19.7656V17.1875Z" fill="#0E5AF2"/>
<path d="M37.8125 12.0312H32.6562C32.4283 12.0312 32.2097 12.1218 32.0486 12.283C31.8874 12.4441 31.7969 12.6627 31.7969 12.8906V18.0469C31.7969 18.2748 31.8874 18.4934 32.0486 18.6545C32.2097 18.8157 32.4283 18.9062 32.6562 18.9062H37.8125C38.0404 18.9062 38.259 18.8157 38.4202 18.6545C38.5813 18.4934 38.6719 18.2748 38.6719 18.0469V12.8906C38.6719 12.6627 38.5813 12.4441 38.4202 12.283C38.259 12.1218 38.0404 12.0312 37.8125 12.0312ZM36.9531 17.1875H33.5156V13.75H36.9531V17.1875Z" fill="#0E5AF2"/>
</svg>
