<svg width="55" height="55" viewBox="0 0 55 55" fill="none" xmlns="http://www.w3.org/2000/svg">
<g clip-path="url(#clip0_629_129)">
<path d="M46.8016 1.0392C43.8281 0.53818 40.9724 1.10193 38.8171 2.57834H10.3125C8.89109 2.57834 7.73438 3.73505 7.73438 5.15646V29.7225L0.859375 22.8475V54.1408H32.1527L26.9964 48.9846H41.5852L42.7178 51.9288C43.0289 52.7375 43.8204 53.2814 44.6875 53.2814C45.5546 53.2814 46.3461 52.7375 46.658 51.9288L50.7031 41.41V18.9065C50.7031 17.082 51.3984 16.086 52.2027 14.9318C53.0776 13.6789 54.0684 12.2592 54.1372 9.73349C54.2532 5.43232 51.168 1.77568 46.8016 1.0392ZM10.3125 4.29709H36.9677C35.8437 5.73052 35.2344 7.50943 35.2344 9.45333C35.2344 12.1561 36.263 13.6299 37.1723 14.9318C37.4988 15.4002 37.8048 15.8454 38.0566 16.3283H9.45312V5.15646C9.45312 4.68209 9.83813 4.29709 10.3125 4.29709ZM7.73438 47.2658V39.8872L15.113 47.2658H7.73438ZM14.6094 48.9846V52.4221H12.8906V50.7033H11.1719V52.4221H9.45312V48.9846H14.6094ZM19.7656 52.4221V50.7033H18.0469V52.4221H16.3281V48.9846H19.262L6.01562 35.7382V48.9846H7.73438V52.4221H6.01562V50.7033H4.29688V52.4221H2.57812V26.9966L28.0036 52.4221H19.7656ZM25.2777 47.2658L20.1214 42.1096H23.2031V40.3908H18.4027L16.6839 38.6721H23.2031V36.9533H14.9652L13.2464 35.2346H16.3281V33.5158H11.5277L9.45312 31.4413V18.0471H38.6074C38.6452 18.3152 38.6719 18.5954 38.6719 18.9065V41.41L40.9243 47.2658H25.2777ZM40.3906 19.7658H48.9844V21.4846H40.3906V19.7658ZM43.8281 9.45333H45.5469V18.0471H43.8281V9.45333ZM40.7825 42.1096H48.5925L47.2708 45.5471H42.1051L40.7825 42.1096ZM45.5469 40.3908V23.2033H48.9844V40.3908H45.5469ZM40.3906 23.2033H43.8281V40.3908H40.3906V23.2033ZM45.0545 51.3109C44.935 51.616 44.4391 51.616 44.3214 51.3109L42.7659 47.2658H46.6099L45.0545 51.3109ZM50.7934 13.9479C50.0534 15.0075 49.2284 16.1926 49.0299 18.0471H47.2656V11.014C47.5355 11.1102 47.8225 11.1721 48.125 11.1721C49.5464 11.1721 50.7031 10.0154 50.7031 8.59396C50.7031 7.17255 49.5464 6.01583 48.125 6.01583C47.0061 6.01583 46.0608 6.73685 45.705 7.73458H43.6691C43.3142 6.73685 42.3689 6.01583 41.25 6.01583C39.8286 6.01583 38.6719 7.17255 38.6719 8.59396C38.6719 10.0154 39.8286 11.1721 41.25 11.1721C41.5525 11.1721 41.8395 11.1102 42.1094 11.014V18.0471H40.3451C40.1457 16.1926 39.3216 15.0083 38.5816 13.9479C37.7438 12.7482 36.9531 11.6155 36.9531 9.45333C36.9531 7.41146 37.7369 5.66951 39.221 4.41568C41.0455 2.87224 43.7035 2.25779 46.5162 2.73474C50.0294 3.32685 52.5121 6.2513 52.4184 9.68708C52.3652 11.6972 51.6012 12.7911 50.7934 13.9479ZM47.2656 8.59396C47.2656 8.11958 47.6506 7.73458 48.125 7.73458C48.5994 7.73458 48.9844 8.11958 48.9844 8.59396C48.9844 9.06833 48.5994 9.45333 48.125 9.45333C47.6506 9.45333 47.2656 9.06833 47.2656 8.59396ZM42.1094 8.59396C42.1094 9.06833 41.7244 9.45333 41.25 9.45333C40.7756 9.45333 40.3906 9.06833 40.3906 8.59396C40.3906 8.11958 40.7756 7.73458 41.25 7.73458C41.7244 7.73458 42.1094 8.11958 42.1094 8.59396Z" fill="#0E5AF2"/>
<path d="M13.75 12.8906C15.1714 12.8906 16.3281 11.7339 16.3281 10.3125C16.3281 8.89109 15.1714 7.73438 13.75 7.73438C12.3286 7.73438 11.1719 8.89109 11.1719 10.3125C11.1719 11.7339 12.3286 12.8906 13.75 12.8906ZM13.75 9.45312C14.2244 9.45312 14.6094 9.83812 14.6094 10.3125C14.6094 10.7869 14.2244 11.1719 13.75 11.1719C13.2756 11.1719 12.8906 10.7869 12.8906 10.3125C12.8906 9.83812 13.2756 9.45312 13.75 9.45312Z" fill="#0E5AF2"/>
<path d="M20.625 12.8906C22.0464 12.8906 23.2031 11.7339 23.2031 10.3125C23.2031 8.89109 22.0464 7.73438 20.625 7.73438C19.2036 7.73438 18.0469 8.89109 18.0469 10.3125C18.0469 11.7339 19.2036 12.8906 20.625 12.8906ZM20.625 9.45312C21.0994 9.45312 21.4844 9.83812 21.4844 10.3125C21.4844 10.7869 21.0994 11.1719 20.625 11.1719C20.1506 11.1719 19.7656 10.7869 19.7656 10.3125C19.7656 9.83812 20.1506 9.45312 20.625 9.45312Z" fill="#0E5AF2"/>
<path d="M27.5 12.8906C28.9214 12.8906 30.0781 11.7339 30.0781 10.3125C30.0781 8.89109 28.9214 7.73438 27.5 7.73438C26.0786 7.73438 24.9219 8.89109 24.9219 10.3125C24.9219 11.7339 26.0786 12.8906 27.5 12.8906ZM27.5 9.45312C27.9744 9.45312 28.3594 9.83812 28.3594 10.3125C28.3594 10.7869 27.9744 11.1719 27.5 11.1719C27.0256 11.1719 26.6406 10.7869 26.6406 10.3125C26.6406 9.83812 27.0256 9.45312 27.5 9.45312Z" fill="#0E5AF2"/>
<path d="M11.1719 31.7969H23.2031V19.7656H11.1719V31.7969ZM12.8906 21.4844H21.4844V30.0781H12.8906V21.4844Z" fill="#0E5AF2"/>
<path d="M24.9219 19.7656H30.0781V21.4844H24.9219V19.7656Z" fill="#0E5AF2"/>
<path d="M31.7969 19.7656H36.9531V21.4844H31.7969V19.7656Z" fill="#0E5AF2"/>
<path d="M24.9219 23.2031H36.9531V24.9219H24.9219V23.2031Z" fill="#0E5AF2"/>
<path d="M24.9219 26.6406H36.9531V28.3594H24.9219V26.6406Z" fill="#0E5AF2"/>
<path d="M24.9219 45.5469H36.9531V33.5156H24.9219V45.5469ZM26.6406 35.2344H35.2344V43.8281H26.6406V35.2344Z" fill="#0E5AF2"/>
<path d="M18.0469 33.5156H23.2031V35.2344H18.0469V33.5156Z" fill="#0E5AF2"/>
</g>
<defs>
<clipPath id="clip0_629_129">
<rect width="55" height="55" fill="white"/>
</clipPath>
</defs>
</svg>
