<svg width="38" height="38" viewBox="0 0 38 38" fill="none" xmlns="http://www.w3.org/2000/svg">
<g clip-path="url(#clip0_360_723)">
<path d="M35.0313 24.4031V14.7844C35.4915 14.6933 35.9236 14.4944 36.2921 14.2041C36.6606 13.9137 36.9551 13.5402 37.1514 13.114C37.3476 12.6879 37.4401 12.2213 37.4212 11.7525C37.4023 11.2838 37.2726 10.8261 37.0426 10.4172C36.8127 10.0082 36.4891 9.65958 36.0984 9.39985C35.7077 9.14011 35.261 8.97666 34.795 8.92292C34.3289 8.86917 33.8567 8.92665 33.4172 9.09064C32.9776 9.25463 32.5831 9.52046 32.2662 9.86634L21.929 3.36181C21.951 3.23183 21.9643 3.10051 21.9688 2.96875C21.9688 2.18139 21.656 1.42628 21.0992 0.869527C20.5425 0.312778 19.7874 0 19 0C18.2127 0 17.4575 0.312778 16.9008 0.869527C16.344 1.42628 16.0313 2.18139 16.0313 2.96875C16.0357 3.10051 16.049 3.23183 16.0711 3.36181L5.73387 9.86575C5.41647 9.52305 5.02257 9.26021 4.58429 9.09867C4.14601 8.93714 3.67575 8.88147 3.21187 8.93621C2.74798 8.99096 2.3036 9.15457 1.91497 9.41369C1.52633 9.67282 1.20444 10.0201 0.975537 10.4273C0.746637 10.8345 0.61721 11.29 0.597811 11.7567C0.578411 12.2234 0.669588 12.6881 0.863906 13.1128C1.05822 13.5376 1.35018 13.9104 1.71597 14.2009C2.08177 14.4914 2.51103 14.6913 2.96877 14.7844V24.4031C2.50033 24.495 2.06094 24.6984 1.68786 24.9962C1.31478 25.294 1.019 25.6773 0.825622 26.1138C0.63224 26.5502 0.546952 27.0268 0.57699 27.5032C0.607027 27.9796 0.751504 28.4418 0.99817 28.8505C1.24484 29.2592 1.58642 29.6023 1.99395 29.8509C2.40148 30.0995 2.86294 30.2461 3.33921 30.2784C3.81547 30.3107 4.29249 30.2276 4.72983 30.0363C5.16716 29.8449 5.5519 29.5509 5.85143 29.1793L16.0598 34.748C16.0509 34.8424 16.0313 34.9339 16.0313 35.0307C16.0313 35.818 16.344 36.5731 16.9008 37.1299C17.4575 37.6866 18.2127 37.9994 19 37.9994C19.7874 37.9994 20.5425 37.6866 21.0992 37.1299C21.656 36.5731 21.9688 35.818 21.9688 35.0307C21.9688 34.9339 21.9492 34.8424 21.9403 34.748L32.1486 29.1793C32.4488 29.5471 32.833 29.8374 33.2688 30.0257C33.7046 30.2141 34.1793 30.2948 34.6529 30.2613C35.1265 30.2278 35.5851 30.0809 35.9901 29.833C36.395 29.5852 36.7345 29.2436 36.9798 28.8372C37.2251 28.4307 37.3692 27.9712 37.3998 27.4974C37.4304 27.0236 37.3466 26.5494 37.1556 26.1147C36.9646 25.6801 36.6719 25.2977 36.3022 24.9998C35.9325 24.7019 35.4966 24.4973 35.0313 24.4031ZM34.4375 10.0938C34.7898 10.0938 35.1342 10.1982 35.4271 10.3939C35.7201 10.5897 35.9484 10.8679 36.0832 11.1933C36.218 11.5188 36.2533 11.877 36.1845 12.2225C36.1158 12.568 35.9462 12.8854 35.697 13.1345C35.4479 13.3836 35.1306 13.5533 34.785 13.622C34.4395 13.6908 34.0813 13.6555 33.7559 13.5207C33.4304 13.3858 33.1522 13.1575 32.9565 12.8646C32.7607 12.5717 32.6563 12.2273 32.6563 11.875C32.6563 11.4026 32.8439 10.9495 33.178 10.6155C33.512 10.2814 33.9651 10.0938 34.4375 10.0938ZM19 1.1875C19.3523 1.1875 19.6967 1.29197 19.9896 1.48769C20.2826 1.68342 20.5109 1.96161 20.6457 2.2871C20.7805 2.61258 20.8158 2.97073 20.747 3.31625C20.6783 3.66178 20.5087 3.97917 20.2596 4.22828C20.0104 4.4774 19.6931 4.64704 19.3475 4.71577C19.002 4.7845 18.6438 4.74923 18.3184 4.61441C17.9929 4.47959 17.7147 4.25128 17.519 3.95836C17.3232 3.66543 17.2188 3.32105 17.2188 2.96875C17.2188 2.49633 17.4064 2.04327 17.7405 1.70922C18.0745 1.37517 18.5276 1.1875 19 1.1875ZM1.78127 11.875C1.78127 11.5227 1.88574 11.1783 2.08147 10.8854C2.2772 10.5925 2.55539 10.3642 2.88087 10.2293C3.20635 10.0945 3.5645 10.0592 3.91003 10.128C4.25556 10.1967 4.57295 10.3664 4.82206 10.6155C5.07117 10.8646 5.24082 11.182 5.30955 11.5275C5.37828 11.873 5.343 12.2312 5.20818 12.5567C5.07337 12.8821 4.84506 13.1603 4.55213 13.3561C4.25921 13.5518 3.91482 13.6562 3.56252 13.6562C3.09011 13.6562 2.63704 13.4686 2.30299 13.1345C1.96894 12.8005 1.78127 12.3474 1.78127 11.875ZM3.56252 29.0938C3.21023 29.0938 2.86584 28.9893 2.57291 28.7936C2.27999 28.5978 2.05168 28.3196 1.91686 27.9942C1.78205 27.6687 1.74677 27.3105 1.8155 26.965C1.88423 26.6195 2.05388 26.3021 2.30299 26.053C2.5521 25.8039 2.86949 25.6342 3.21502 25.5655C3.56055 25.4967 3.9187 25.532 4.24418 25.6668C4.56966 25.8017 4.84785 26.03 5.04358 26.3229C5.23931 26.6158 5.34377 26.9602 5.34377 27.3125C5.34377 27.7849 5.15611 28.238 4.82206 28.572C4.48801 28.9061 4.03494 29.0938 3.56252 29.0938ZM19 36.8125C18.6477 36.8125 18.3033 36.708 18.0104 36.5123C17.7175 36.3166 17.4892 36.0384 17.3544 35.7129C17.2195 35.3874 17.1843 35.0293 17.253 34.6837C17.3217 34.3382 17.4914 34.0208 17.7405 33.7717C17.9896 33.5226 18.307 33.353 18.6525 33.2842C18.998 33.2155 19.3562 33.2508 19.6817 33.3856C20.0072 33.5204 20.2853 33.7487 20.4811 34.0416C20.6768 34.3346 20.7813 34.679 20.7813 35.0312C20.7813 35.5037 20.5936 35.9567 20.2596 36.2908C19.9255 36.6248 19.4724 36.8125 19 36.8125ZM21.5805 33.592C21.3271 33.129 20.9539 32.7427 20.4999 32.4736C20.0459 32.2044 19.5278 32.0624 19 32.0624C18.4722 32.0624 17.9542 32.2044 17.5002 32.4736C17.0462 32.7427 16.6729 33.129 16.4196 33.592L6.40302 28.1295C6.48429 27.8646 6.52747 27.5895 6.53127 27.3125C6.53041 26.6284 6.29372 25.9655 5.8611 25.4355C5.42847 24.9055 4.82637 24.5409 4.15627 24.4031V14.7844C4.82637 14.6466 5.42847 14.282 5.8611 13.752C6.29372 13.222 6.53041 12.5591 6.53127 11.875C6.52795 11.536 6.46588 11.2001 6.3478 10.8822L16.4754 4.5125C16.7376 4.9473 17.1077 5.30697 17.5498 5.55665C17.992 5.80632 18.4911 5.93751 18.9988 5.93751C19.5066 5.93751 20.0057 5.80632 20.4478 5.55665C20.89 5.30697 21.2601 4.9473 21.5223 4.5125L31.6522 10.8822C31.5342 11.2001 31.4721 11.536 31.4688 11.875C31.4696 12.5591 31.7063 13.222 32.1389 13.752C32.5716 14.282 33.1737 14.6466 33.8438 14.7844V24.4031C33.1737 24.5409 32.5716 24.9055 32.1389 25.4355C31.7063 25.9655 31.4696 26.6284 31.4688 27.3125C31.4727 27.5891 31.5159 27.8638 31.597 28.1283L21.5805 33.592ZM34.4375 29.0938C34.0852 29.0938 33.7408 28.9893 33.4479 28.7936C33.155 28.5978 32.9267 28.3196 32.7919 27.9942C32.657 27.6687 32.6218 27.3105 32.6905 26.965C32.7592 26.6195 32.9289 26.3021 33.178 26.053C33.4271 25.8039 33.7445 25.6342 34.09 25.5655C34.4355 25.4967 34.7937 25.532 35.1192 25.6668C35.4447 25.8017 35.7228 26.03 35.9186 26.3229C36.1143 26.6158 36.2188 26.9602 36.2188 27.3125C36.2188 27.7849 36.0311 28.238 35.697 28.572C35.363 28.9061 34.9099 29.0938 34.4375 29.0938Z" fill="#0E59F2"/>
<path d="M14.7702 18.4366C14.3835 18.31 14.0446 18.0683 13.7989 17.744C13.5532 17.4197 13.4123 17.0281 13.395 16.6215C13.3946 16.464 13.3316 16.3132 13.2199 16.2022C13.1082 16.0912 12.957 16.0291 12.7995 16.0295C12.642 16.03 12.4912 16.093 12.3802 16.2047C12.2692 16.3164 12.2071 16.4676 12.2075 16.6251C12.2219 17.0797 12.3319 17.5261 12.5304 17.9353C12.7289 18.3445 13.0113 18.7073 13.3594 19.0001C13.011 19.2927 12.7282 19.6554 12.5294 20.0646C12.3306 20.4738 12.2204 20.9204 12.2057 21.3751C12.2057 21.5317 12.2676 21.682 12.378 21.7933C12.4883 21.9045 12.6381 21.9676 12.7947 21.9688H12.7995C12.9558 21.9688 13.1059 21.9072 13.2171 21.7972C13.3282 21.6873 13.3915 21.538 13.3932 21.3816C13.4105 20.975 13.5513 20.5833 13.7971 20.2589C14.0428 19.9344 14.3816 19.6927 14.7684 19.5659C14.8872 19.5269 14.9906 19.4513 15.0639 19.35C15.1372 19.2488 15.1767 19.1269 15.1767 19.0019C15.1767 18.8768 15.1372 18.755 15.0639 18.6537C14.9906 18.5524 14.8872 18.4768 14.7684 18.4378L14.7702 18.4366Z" fill="#0E59F2"/>
<path d="M29.1062 16.1452C29.3252 15.1377 29.1778 14.0851 28.6906 13.1764C28.3621 12.5772 27.899 12.0622 27.3378 11.6722C26.7767 11.2821 26.1327 11.0276 25.4564 10.9285C25.2544 10.1794 24.8116 9.51761 24.1964 9.0449C23.5812 8.57218 22.8277 8.31482 22.0519 8.31243C21.4659 8.26564 20.8778 8.36975 20.3435 8.61485C19.8093 8.85994 19.3467 9.23784 19 9.7125C18.6533 9.23784 18.1907 8.85994 17.6565 8.61485C17.1222 8.36975 16.5341 8.26564 15.9481 8.31243C15.1716 8.31451 14.4173 8.57208 13.8017 9.04541C13.1861 9.51875 12.7433 10.1815 12.5418 10.9315C11.8656 11.0308 11.2217 11.2857 10.6607 11.6761C10.0997 12.0664 9.63694 12.5817 9.30881 13.1812C8.82244 14.0888 8.6751 15.14 8.89319 16.1464C8.49228 16.5006 8.17794 16.942 7.97434 17.4367C7.77074 17.9314 7.6833 18.4662 7.71875 18.9999C7.68355 19.5339 7.77116 20.0689 7.97484 20.5637C8.17853 21.0586 8.49288 21.5002 8.89378 21.8547C8.67555 22.8613 8.82289 23.9127 9.30941 24.8205C9.63793 25.4198 10.101 25.9347 10.6622 26.3247C11.2233 26.7148 11.8674 26.9693 12.5436 27.0684C12.7451 27.818 13.1876 28.4805 13.8028 28.9538C14.4181 29.4271 15.1719 29.6849 15.9481 29.6874C16.5341 29.7342 17.1222 29.6301 17.6565 29.385C18.1907 29.1399 18.6533 28.762 19 28.2874C19.3467 28.762 19.8093 29.1399 20.3435 29.385C20.8778 29.6301 21.4659 29.7342 22.0519 29.6874C22.8284 29.6854 23.5827 29.4278 24.1983 28.9545C24.814 28.4811 25.2567 27.8184 25.4582 27.0684C26.1344 26.9691 26.7783 26.7142 27.3393 26.3238C27.9003 25.9334 28.3631 25.4182 28.6912 24.8187C29.1776 23.911 29.3249 22.8599 29.1068 21.8535C29.5077 21.4993 29.8221 21.0579 30.0257 20.5632C30.2293 20.0685 30.3167 19.5337 30.2813 18.9999C30.3165 18.466 30.2289 17.931 30.0252 17.4361C29.8215 16.9413 29.5071 16.4997 29.1062 16.1452ZM15.9481 28.4999C15.3669 28.491 14.8082 28.2738 14.3735 27.8879C13.9387 27.502 13.6569 26.9729 13.5791 26.3969C13.5136 26.1231 13.4817 25.8424 13.4841 25.5609C13.4514 24.8374 13.6749 24.1255 14.1152 23.5504C14.1697 23.4909 14.2114 23.4208 14.2379 23.3445C14.2644 23.2682 14.275 23.1874 14.2692 23.1069C14.2634 23.0263 14.2412 22.9479 14.2039 22.8762C14.1667 22.8046 14.1153 22.7412 14.0528 22.6901C13.9903 22.639 13.9181 22.6012 13.8404 22.579C13.7628 22.5568 13.6815 22.5506 13.6014 22.5609C13.5213 22.5712 13.4442 22.5977 13.3747 22.6388C13.3052 22.6799 13.2449 22.7347 13.1973 22.7999C12.5816 23.5856 12.2627 24.5633 12.2966 25.5609C12.2966 25.6387 12.3061 25.7111 12.309 25.7877C11.8994 25.6844 11.5155 25.4976 11.1814 25.2388C10.8474 24.9801 10.5705 24.6551 10.3681 24.2843C10.0699 23.725 9.94115 23.091 9.99756 22.4597C10.2711 22.5506 10.5553 22.6055 10.8431 22.623H10.8603C11.0178 22.6257 11.1698 22.5657 11.2831 22.4562C11.3963 22.3468 11.4614 22.1968 11.4641 22.0393C11.4668 21.8819 11.4068 21.7298 11.2974 21.6165C11.1879 21.5033 11.0379 21.4382 10.8805 21.4355C10.5274 21.4052 10.1859 21.295 9.88178 21.1131C9.54484 20.8805 9.27655 20.5617 9.10494 20.19C8.93333 19.8182 8.86471 19.4072 8.90625 18.9999C8.86481 18.5929 8.93335 18.1823 9.10474 17.8108C9.27612 17.4393 9.54406 17.1206 9.88059 16.888C10.185 16.7061 10.5266 16.5957 10.8799 16.565C11.0366 16.5597 11.1849 16.4926 11.2924 16.3784C11.3999 16.2641 11.4578 16.112 11.4534 15.9552C11.4522 15.8769 11.4352 15.7997 11.4037 15.7281C11.3722 15.6565 11.3266 15.5919 11.2697 15.5381C11.2129 15.4844 11.1458 15.4425 11.0726 15.415C10.9993 15.3875 10.9213 15.375 10.8431 15.3781C10.5553 15.3956 10.2711 15.4505 9.99756 15.5413C9.94133 14.9103 10.0699 14.2766 10.3675 13.7173C10.5699 13.3462 10.8468 13.0209 11.1809 12.7619C11.5151 12.5028 11.8991 12.3157 12.309 12.2122C12.3061 12.2882 12.2966 12.3612 12.2966 12.439C12.2627 13.4366 12.5816 14.4142 13.1973 15.1999C13.2984 15.3176 13.4415 15.3911 13.596 15.4046C13.7506 15.4181 13.9043 15.3706 14.0242 15.2722C14.1442 15.1738 14.2209 15.0324 14.2379 14.8782C14.2549 14.724 14.2109 14.5692 14.1152 14.4471C13.6754 13.8727 13.452 13.1617 13.4841 12.439C13.4821 12.152 13.5152 11.8659 13.5826 11.587C13.6626 11.0139 13.9451 10.4883 14.379 10.1055C14.8129 9.72268 15.3695 9.50786 15.9481 9.49993C17.6255 9.49993 18.4063 10.2718 18.4063 11.9343V16.0633C17.9084 15.5582 17.3095 15.1641 16.6488 14.9066C16.5001 14.8547 16.3369 14.8639 16.195 14.9322C16.0532 15.0006 15.9443 15.1225 15.8923 15.2712C15.8404 15.4198 15.8496 15.583 15.9179 15.7249C15.9863 15.8668 16.1082 15.9757 16.2569 16.0276C16.2783 16.0347 18.4063 16.8031 18.4063 18.9999C18.3839 19.6529 18.1674 20.2843 17.7846 20.8137C17.4018 21.3431 16.8699 21.7464 16.2569 21.9723C16.1833 21.998 16.1155 22.038 16.0573 22.0899C15.9991 22.1418 15.9518 22.2047 15.9179 22.275C15.8841 22.3452 15.8644 22.4214 15.86 22.4993C15.8556 22.5771 15.8666 22.6551 15.8923 22.7287C15.918 22.8023 15.958 22.8701 16.01 22.9283C16.0619 22.9864 16.1248 23.0338 16.195 23.0676C16.2653 23.1015 16.3415 23.1212 16.4193 23.1256C16.4972 23.13 16.5751 23.119 16.6488 23.0933C17.3095 22.8358 17.9084 22.4417 18.4063 21.9366V26.0656C18.4063 27.7281 17.6255 28.4999 15.9481 28.4999ZM27.6325 24.2843C27.4301 24.6555 27.1532 24.9808 26.8191 25.2398C26.4849 25.4988 26.1009 25.686 25.691 25.7895C25.6939 25.7135 25.7034 25.6404 25.7034 25.5627C25.7377 24.5644 25.4188 23.5861 24.8027 22.7999C24.754 22.7377 24.6932 22.6857 24.6241 22.6472C24.555 22.6088 24.4789 22.5845 24.4003 22.5758C24.3217 22.5671 24.2421 22.5742 24.1663 22.5968C24.0904 22.6193 24.0198 22.6567 23.9587 22.7069C23.8975 22.757 23.847 22.8189 23.8101 22.8889C23.7732 22.9588 23.7506 23.0355 23.7437 23.1143C23.7368 23.1931 23.7458 23.2725 23.77 23.3478C23.7942 23.4231 23.8333 23.4928 23.8848 23.5528C24.3246 24.1272 24.548 24.8382 24.5159 25.5609C24.5179 25.8478 24.4848 26.134 24.4174 26.4129C24.3374 26.986 24.0549 27.5115 23.621 27.8944C23.1871 28.2772 22.6305 28.492 22.0519 28.4999C20.3745 28.4999 19.5938 27.7281 19.5938 26.0656V21.9366C20.0916 22.4417 20.6905 22.8358 21.3513 23.0933C21.4249 23.119 21.5028 23.13 21.5807 23.1256C21.6585 23.1212 21.7347 23.1015 21.805 23.0676C21.8752 23.0338 21.9381 22.9864 21.99 22.9283C22.042 22.8701 22.082 22.8023 22.1077 22.7287C22.1334 22.6551 22.1444 22.5771 22.14 22.4993C22.1356 22.4214 22.1159 22.3452 22.0821 22.275C22.0482 22.2047 22.0009 22.1418 21.9427 22.0899C21.8846 22.038 21.8167 21.998 21.7431 21.9723C21.7218 21.9651 19.5938 21.1968 19.5938 18.9999C19.6161 18.347 19.8326 17.7156 20.2154 17.1862C20.5982 16.6568 21.1301 16.2534 21.7431 16.0276C21.8918 15.9757 22.0137 15.8668 22.0821 15.7249C22.1504 15.583 22.1597 15.4198 22.1077 15.2712C22.0557 15.1225 21.9468 15.0006 21.805 14.9322C21.6631 14.8639 21.4999 14.8547 21.3513 14.9066C20.6905 15.1641 20.0916 15.5582 19.5938 16.0633V11.9343C19.5938 10.2718 20.3745 9.49993 22.0519 9.49993C22.6331 9.50892 23.1918 9.72609 23.6265 10.112C24.0613 10.4979 24.3431 11.0269 24.4209 11.603C24.4864 11.8768 24.5183 12.1575 24.5159 12.439C24.5486 13.1625 24.3251 13.8744 23.8848 14.4494C23.7953 14.5721 23.7563 14.7243 23.7756 14.8749C23.7949 15.0255 23.8712 15.1629 23.9887 15.259C24.1062 15.3551 24.2561 15.4025 24.4075 15.3915C24.5589 15.3805 24.7003 15.312 24.8027 15.1999C25.4184 14.4142 25.7373 13.4366 25.7034 12.439C25.7034 12.3612 25.6939 12.2888 25.691 12.2122C26.1007 12.3155 26.4846 12.5023 26.8186 12.761C27.1526 13.0198 27.4295 13.3447 27.632 13.7156C27.9301 14.2748 28.0589 14.9089 28.0025 15.5402C27.7289 15.4493 27.4447 15.3944 27.1569 15.3769C26.9995 15.3719 26.8465 15.4297 26.7316 15.5376C26.6168 15.6454 26.5495 15.7944 26.5445 15.9519C26.5395 16.1094 26.5973 16.2624 26.7052 16.3772C26.813 16.4921 26.9621 16.5594 27.1195 16.5644C27.4726 16.5946 27.8141 16.7049 28.1182 16.8868C28.4552 17.1194 28.7235 17.4382 28.8951 17.8099C29.0667 18.1816 29.1353 18.5926 29.0938 18.9999C29.1352 19.4069 29.0667 19.8176 28.8953 20.1891C28.7239 20.5606 28.456 20.8793 28.1194 21.1119C27.815 21.2938 27.4734 21.4042 27.1201 21.4349C26.9627 21.4375 26.8127 21.5026 26.7032 21.6157C26.5936 21.7289 26.5336 21.881 26.5362 22.0385C26.5388 22.1959 26.6038 22.3459 26.717 22.4554C26.8302 22.5649 26.9823 22.625 27.1397 22.6224H27.1569C27.4447 22.6049 27.7289 22.55 28.0025 22.4591C28.0589 23.0905 27.9304 23.7247 27.6325 24.2843Z" fill="#0E59F2"/>
<path d="M25.7925 16.625C25.7925 16.4683 25.7306 16.318 25.6203 16.2068C25.51 16.0956 25.3602 16.0325 25.2035 16.0313H25.1988C25.0424 16.0312 24.8924 16.0929 24.7812 16.2028C24.67 16.3128 24.6067 16.4621 24.605 16.6185C24.5878 17.0251 24.4469 17.4168 24.2012 17.7412C23.9555 18.0657 23.6166 18.3074 23.2299 18.4342C23.1111 18.4732 23.0077 18.5488 22.9343 18.65C22.861 18.7513 22.8215 18.8732 22.8215 18.9982C22.8215 19.1233 22.861 19.2451 22.9343 19.3464C23.0077 19.4477 23.1111 19.5232 23.2299 19.5623C23.6166 19.6889 23.9554 19.9306 24.2011 20.2549C24.4469 20.5792 24.5878 20.9708 24.605 21.3774C24.6055 21.5349 24.6685 21.6857 24.7802 21.7967C24.8919 21.9077 25.0431 21.9698 25.2005 21.9693C25.358 21.9689 25.5089 21.9059 25.6199 21.7942C25.7309 21.6825 25.793 21.5313 25.7925 21.3738C25.778 20.9194 25.6679 20.4732 25.4694 20.0642C25.2709 19.6552 24.9886 19.2926 24.6406 19C24.9887 18.7073 25.2712 18.3445 25.4696 17.9352C25.6681 17.526 25.7781 17.0796 25.7925 16.625Z" fill="#0E59F2"/>
</g>
<defs>
<clipPath id="clip0_360_723">
<rect width="38" height="38" fill="white"/>
</clipPath>
</defs>
</svg>
