<svg width="38" height="38" viewBox="0 0 38 38" fill="none" xmlns="http://www.w3.org/2000/svg">
<path d="M13.6562 23.1562V16.625C13.6562 16.4675 13.5937 16.3165 13.4823 16.2052C13.371 16.0938 13.22 16.0313 13.0625 16.0312H10.6875C10.53 16.0313 10.379 16.0938 10.2677 16.2052C10.1563 16.3165 10.0938 16.4675 10.0938 16.625V23.1562H11.2812V17.2188H12.4688V23.1562H13.6562Z" fill="#0E59F2"/>
<path d="M23.1562 25.5312V17.2188C23.1562 17.0613 23.0937 16.9103 22.9823 16.7989C22.871 16.6876 22.72 16.625 22.5625 16.625H20.1875C20.03 16.625 19.879 16.6876 19.7677 16.7989C19.6563 16.9103 19.5938 17.0613 19.5938 17.2188V25.5312H20.7812V17.8125H21.9688V25.5312H23.1562Z" fill="#0E59F2"/>
<path d="M18.4062 25.5312V14.8438C18.4062 14.6863 18.3437 14.5353 18.2323 14.4239C18.121 14.3126 17.97 14.25 17.8125 14.25H15.4375C15.28 14.25 15.129 14.3126 15.0177 14.4239C14.9063 14.5353 14.8438 14.6863 14.8438 14.8438V24.3438H16.0312V15.4375H17.2188V25.5312H18.4062Z" fill="#0E59F2"/>
<path d="M27.9062 20.7812V14.8438C27.9062 14.6863 27.8437 14.5353 27.7323 14.4239C27.621 14.3126 27.47 14.25 27.3125 14.25H24.9375C24.78 14.25 24.629 14.3126 24.5177 14.4239C24.4063 14.5353 24.3438 14.6863 24.3438 14.8438V21.375H25.5312V15.4375H26.7188V20.7812H27.9062Z" fill="#0E59F2"/>
<path d="M32.6562 20.1875V11.2812C32.6562 11.1238 32.5937 10.9728 32.4823 10.8614C32.371 10.7501 32.22 10.6875 32.0625 10.6875H29.6875C29.53 10.6875 29.379 10.7501 29.2677 10.8614C29.1563 10.9728 29.0938 11.1238 29.0938 11.2812V20.1875H30.2812V11.875H31.4688V20.1875H32.6562Z" fill="#0E59F2"/>
<path d="M10.2676 14.6698C10.379 14.7812 10.53 14.8437 10.6875 14.8437C10.845 14.8437 10.996 14.7812 11.1074 14.6698L16.0086 9.76861L20.9337 15.2409C20.9876 15.3009 21.0532 15.3492 21.1264 15.3829C21.1995 15.4167 21.2789 15.4352 21.3594 15.4373C21.3646 15.4374 21.3698 15.4375 21.375 15.4375C21.5325 15.4375 21.6835 15.3749 21.7949 15.2636L29.6875 7.37096V8.90625C29.6875 9.06372 29.7501 9.21474 29.8614 9.32609C29.9728 9.43744 30.1238 9.5 30.2813 9.5H32.6563C32.8137 9.5 32.9647 9.43744 33.0761 9.32609C33.1874 9.21474 33.25 9.06372 33.25 8.90625V1.78125C33.25 1.62378 33.1874 1.47276 33.0761 1.36141C32.9647 1.25006 32.8137 1.1875 32.6563 1.1875H25.5313C25.3738 1.1875 25.2228 1.25006 25.1114 1.36141C25.0001 1.47276 24.9375 1.62378 24.9375 1.78125V4.15625C24.9375 4.31372 25.0001 4.46474 25.1114 4.57609C25.2228 4.68744 25.3738 4.75 25.5313 4.75H27.0666L21.3977 10.4189L16.4726 4.94656C16.4187 4.88665 16.3531 4.83835 16.2799 4.80459C16.2067 4.77084 16.1274 4.75234 16.0469 4.75022C15.9663 4.7481 15.8861 4.76241 15.8113 4.79227C15.7364 4.82213 15.6684 4.86692 15.6114 4.92391L8.4864 12.0489C8.37505 12.1603 8.3125 12.3113 8.3125 12.4688C8.3125 12.6262 8.37505 12.7772 8.4864 12.8886L10.2676 14.6698ZM16.0086 6.20611L20.9337 11.6784C20.9876 11.7383 21.0532 11.7866 21.1264 11.8204C21.1995 11.8542 21.2788 11.8727 21.3594 11.8748C21.44 11.8769 21.5202 11.8626 21.595 11.8327C21.6699 11.8029 21.7379 11.7581 21.7949 11.7011L28.9199 4.57609C29.0029 4.49304 29.0594 4.38724 29.0823 4.27207C29.1052 4.1569 29.0935 4.03752 29.0485 3.92903C29.0036 3.82055 28.9275 3.72782 28.8299 3.66258C28.7322 3.59734 28.6174 3.56251 28.5 3.5625H26.125V2.375H32.0625V8.3125H30.875V5.9375C30.875 5.82006 30.8402 5.70527 30.7749 5.60762C30.7097 5.50998 30.617 5.43387 30.5085 5.38893C30.4 5.344 30.2806 5.33224 30.1654 5.35515C30.0502 5.37807 29.9444 5.43462 29.8614 5.51766L21.3977 13.9814L16.4726 8.50906C16.4187 8.44915 16.3531 8.40084 16.2799 8.36708C16.2067 8.33333 16.1274 8.31483 16.0468 8.31272C16.0416 8.31257 16.0365 8.3125 16.0313 8.3125C15.8738 8.3125 15.7227 8.37506 15.6114 8.48641L10.6875 13.4103L9.74594 12.4688L16.0086 6.20611Z" fill="#0E59F2"/>
<path d="M6.53125 36.2187V35.0312H8.3125C8.46997 35.0312 8.62099 34.9687 8.73234 34.8573C8.84369 34.746 8.90625 34.595 8.90625 34.4375V32.8819C11.7414 35.4844 15.4721 36.8913 19.3197 36.809C23.1673 36.7267 26.8345 35.1616 29.5558 32.4403L36.0449 25.9514C36.4372 25.5591 36.6726 25.0369 36.7065 24.4831C36.7405 23.9293 36.5707 23.3822 36.2293 22.9449C35.8878 22.5076 35.3982 22.2103 34.8527 22.1089C34.3072 22.0076 33.7435 22.1093 33.2678 22.3948C33.0651 22.0811 32.7894 21.8211 32.4644 21.6371C32.1394 21.453 31.7747 21.3504 31.4014 21.338C31.0281 21.3255 30.6573 21.4036 30.3208 21.5656C29.9842 21.7276 29.6919 21.9686 29.4688 22.2681L29.217 22.6059C29.0883 22.5071 28.9505 22.4208 28.8054 22.3482C28.4983 22.1946 28.1632 22.1047 27.8205 22.0839C27.4777 22.063 27.1342 22.1117 26.8107 22.2269C26.4872 22.3421 26.1903 22.5215 25.9379 22.7543C25.6855 22.9872 25.4827 23.2686 25.3418 23.5818L23.845 26.908C23.5315 26.7828 23.197 26.7186 22.8594 26.7187H15.6834L14.6699 25.7052C13.9261 24.9634 12.9595 24.4862 11.9184 24.3466C10.8773 24.207 9.81918 24.4127 8.90625 24.9323V24.3437C8.90625 24.1863 8.84369 24.0352 8.73234 23.9239C8.62099 23.8125 8.46997 23.75 8.3125 23.75H6.53125V23.1562C6.53125 22.9988 6.46869 22.8477 6.35734 22.7364C6.24599 22.625 6.09497 22.5625 5.9375 22.5625H1.1875V23.75H5.34375V35.625H1.1875V36.8125H5.9375C6.09497 36.8125 6.24599 36.7499 6.35734 36.6386C6.46869 36.5272 6.53125 36.3762 6.53125 36.2187ZM31.9042 22.6849C32.1071 22.8069 32.2663 22.9897 32.359 23.2075L27.6479 27.9186C27.0174 28.5501 26.3055 29.0947 25.531 29.5381L30.4208 22.9778C30.5873 22.7532 30.8316 22.5987 31.1059 22.5445C31.3802 22.4904 31.6648 22.5404 31.9042 22.6849ZM26.4246 24.0691C26.4999 23.9018 26.6082 23.7515 26.743 23.6272C26.8778 23.5029 27.0363 23.4071 27.2091 23.3455C27.3818 23.284 27.5653 23.258 27.7483 23.2692C27.9314 23.2803 28.1103 23.3283 28.2743 23.4103C28.3567 23.4517 28.4347 23.5013 28.5071 23.5584L25.1648 28.0425C25.0713 27.8829 24.9616 27.7333 24.8374 27.5963L26.4246 24.0691ZM13.8301 26.5448L15.0176 27.7323C15.129 27.8437 15.28 27.9062 15.4375 27.9062H22.8594C23.2531 27.9062 23.6306 28.0626 23.909 28.341C24.1874 28.6194 24.3438 28.9969 24.3438 29.3906C24.3438 29.7843 24.1874 30.1619 23.909 30.4402C23.6306 30.7186 23.2531 30.875 22.8594 30.875H15.4375V32.0625H22.8594C23.2268 32.0626 23.5902 31.9867 23.9269 31.8396C24.2636 31.6925 24.5662 31.4774 24.8157 31.2078C26.1899 30.6426 27.4381 29.81 28.4877 28.7583L33.6698 23.5761C33.8734 23.3725 34.1496 23.2581 34.4376 23.2581C34.7255 23.2582 35.0017 23.3726 35.2053 23.5762C35.4089 23.7798 35.5233 24.056 35.5233 24.3439C35.5233 24.6319 35.4089 24.9081 35.2053 25.1117L28.7161 31.6006C26.1392 34.1774 22.6442 35.625 18.9999 35.625C15.3557 35.625 11.8607 34.1773 9.28387 31.6004L8.90625 31.2228V26.3832C9.59472 25.7812 10.486 25.4631 11.4001 25.4931C12.3141 25.5231 13.1826 25.899 13.8301 26.5448ZM7.71875 24.9375V33.8437H6.53125V24.9375H7.71875Z" fill="#0E59F2"/>
</svg>
