<svg width="38" height="38" viewBox="0 0 38 38" fill="none" xmlns="http://www.w3.org/2000/svg">
<path d="M8.90625 19.5938H10.6875V20.7812H8.90625V19.5938Z" fill="#0E59F2"/>
<path d="M13.0625 22.5625H14.8438V23.75H13.0625V22.5625Z" fill="#0E59F2"/>
<path d="M8.90625 22.5625H11.875V23.75H8.90625V22.5625Z" fill="#0E59F2"/>
<path d="M4.15625 22.5625H7.71875V23.75H4.15625V22.5625Z" fill="#0E59F2"/>
<path d="M7.71875 25.5312H14.8438V26.7188H7.71875V25.5312Z" fill="#0E59F2"/>
<path d="M4.15625 25.5312H6.53125V26.7188H4.15625V25.5312Z" fill="#0E59F2"/>
<path d="M11.2812 28.5H14.8438V29.6875H11.2812V28.5Z" fill="#0E59F2"/>
<path d="M4.15625 28.5H10.0938V29.6875H4.15625V28.5Z" fill="#0E59F2"/>
<path d="M7.71875 31.4688H11.2812V32.6562H7.71875V31.4688Z" fill="#0E59F2"/>
<path d="M4.15625 31.4688H6.53125V32.6562H4.15625V31.4688Z" fill="#0E59F2"/>
<path d="M35.625 17.8125C35.625 17.655 35.5625 17.504 35.4511 17.3927C35.3397 17.2813 35.1887 17.2188 35.0313 17.2188H31.4688C31.3113 17.2188 31.1603 17.2813 31.0489 17.3927C30.9376 17.504 30.875 17.655 30.875 17.8125V20.7813H27.9063C27.7488 20.7813 27.5978 20.8438 27.4864 20.9552C27.3751 21.0665 27.3125 21.2175 27.3125 21.375V24.3438H24.3438C24.1863 24.3438 24.0353 24.4063 23.9239 24.5177C23.8126 24.629 23.75 24.78 23.75 24.9375V27.9063H20.7813C20.6238 27.9063 20.4728 27.9688 20.3614 28.0802C20.2501 28.1915 20.1875 28.3425 20.1875 28.5V32.0625H15.9291C15.7891 31.6663 15.5134 31.3325 15.151 31.1199C14.7886 30.9072 14.3627 30.8296 13.9485 30.9007C13.5344 30.9717 13.1587 31.1869 12.8879 31.5081C12.617 31.8294 12.4685 32.2361 12.4685 32.6563C12.4685 33.0764 12.617 33.4831 12.8879 33.8044C13.1587 34.1256 13.5344 34.3408 13.9485 34.4119C14.3627 34.4829 14.7886 34.4053 15.151 34.1927C15.5134 33.9801 15.7891 33.6462 15.9291 33.25H16.625V35.0313C16.6248 35.1887 16.5622 35.3396 16.4509 35.4509C16.3396 35.5622 16.1887 35.6248 16.0313 35.625H2.96876C2.81134 35.6248 2.66042 35.5622 2.54911 35.4509C2.4378 35.3396 2.37519 35.1887 2.37501 35.0313V21.375H5.34376C5.81601 21.3745 6.26876 21.1866 6.60269 20.8527C6.93663 20.5188 7.12447 20.066 7.12501 19.5938V16.625H16.0313C16.1887 16.6252 16.3396 16.6878 16.4509 16.7991C16.5622 16.9104 16.6248 17.0613 16.625 17.2188V17.8125H17.8125V17.2188C17.812 16.7465 17.6241 16.2938 17.2902 15.9598C16.9563 15.6259 16.5035 15.438 16.0313 15.4375H7.0231C6.78909 15.4369 6.55727 15.4827 6.34107 15.5722C6.12487 15.6618 5.92858 15.7933 5.76356 15.9592L1.70921 20.0136C1.54329 20.1786 1.41175 20.3749 1.32219 20.5911C1.23264 20.8073 1.18686 21.0391 1.18751 21.2731V35.0313C1.18805 35.5035 1.37589 35.9563 1.70982 36.2902C2.04375 36.6241 2.49651 36.812 2.96876 36.8125H16.0313C16.5035 36.812 16.9563 36.6241 17.2902 36.2902C17.6241 35.9563 17.812 35.5035 17.8125 35.0313V33.25H36.8125V32.0625H35.625V17.8125ZM5.93751 17.4647V19.5938C5.93733 19.7512 5.87471 19.9021 5.7634 20.0134C5.65209 20.1247 5.50117 20.1873 5.34376 20.1875H3.21472L5.93751 17.4647ZM14.25 33.25C14.1326 33.25 14.0178 33.2152 13.9201 33.1499C13.8225 33.0847 13.7464 32.992 13.7015 32.8835C13.6565 32.775 13.6448 32.6556 13.6677 32.5404C13.6906 32.4252 13.7471 32.3194 13.8302 32.2364C13.9132 32.1534 14.019 32.0968 14.1342 32.0739C14.2493 32.051 14.3687 32.0628 14.4772 32.1077C14.5857 32.1526 14.6785 32.2287 14.7437 32.3264C14.8089 32.424 14.8438 32.5388 14.8438 32.6563C14.8436 32.8137 14.781 32.9646 14.6697 33.0759C14.5583 33.1872 14.4074 33.2498 14.25 33.25ZM21.375 29.0938H23.75V32.0625H21.375V29.0938ZM24.9375 25.5313H27.3125V32.0625H24.9375V25.5313ZM28.5 21.9688H30.875V32.0625H28.5V21.9688ZM32.0625 32.0625V18.4063H34.4375V32.0625H32.0625Z" fill="#0E59F2"/>
<path d="M2.96875 16.0313C3.26965 16.0314 3.56566 15.9552 3.82915 15.8099C4.09264 15.6646 4.31502 15.4549 4.47552 15.2004C4.63601 14.9458 4.7294 14.6548 4.74696 14.3544C4.76453 14.054 4.70569 13.7541 4.57594 13.4826L6.35752 11.701C6.58285 11.8087 6.82833 11.8678 7.07799 11.8744C7.32766 11.8811 7.57593 11.8351 7.80667 11.7395C8.03741 11.644 8.24546 11.5009 8.41731 11.3197C8.58915 11.1384 8.72094 10.9231 8.80411 10.6876H11.3834C11.5149 11.0598 11.7664 11.3778 12.0984 11.5915C12.4303 11.8052 12.8239 11.9026 13.2172 11.8683C13.6105 11.8341 13.9812 11.6701 14.2712 11.4021C14.5611 11.1342 14.7538 10.7775 14.819 10.3881L18.1721 7.51401C18.5442 7.70929 18.9732 7.76679 19.3835 7.67633C19.7938 7.58588 20.159 7.3533 20.4144 7.01969C20.6698 6.68608 20.7991 6.27293 20.7794 5.85323C20.7597 5.43353 20.5922 5.03432 20.3067 4.72612C20.0211 4.41793 19.6358 4.2206 19.2188 4.169C18.8018 4.11741 18.38 4.21487 18.0279 4.44417C17.6759 4.67346 17.4162 5.01983 17.2948 5.42207C17.1733 5.8243 17.198 6.25651 17.3644 6.64231L14.5238 9.07709C14.3369 8.80797 14.0793 8.59568 13.7794 8.46359C13.4796 8.3315 13.149 8.28475 12.8243 8.32849C12.4996 8.37223 12.1932 8.50476 11.939 8.71148C11.6847 8.91819 11.4925 9.19108 11.3834 9.50006H8.80411C8.72355 9.27203 8.59738 9.06279 8.43331 8.88511C8.26924 8.70742 8.07071 8.56502 7.8498 8.46657C7.6289 8.36812 7.39026 8.31569 7.14843 8.31248C6.90661 8.30927 6.66666 8.35535 6.44322 8.4479C6.21978 8.54045 6.01753 8.67754 5.84881 8.8508C5.68008 9.02407 5.54841 9.22988 5.46182 9.4557C5.37523 9.68151 5.33554 9.9226 5.34516 10.1643C5.35479 10.4059 5.41353 10.6431 5.51781 10.8613L3.73623 12.6429C3.49499 12.5277 3.2309 12.4682 2.96356 12.469C2.69622 12.4698 2.43248 12.5307 2.1919 12.6473C1.95132 12.7639 1.74006 12.9331 1.57381 13.1425C1.40755 13.3519 1.29056 13.596 1.2315 13.8567C1.17245 14.1174 1.17284 14.3881 1.23266 14.6487C1.29247 14.9092 1.41018 15.153 1.57704 15.3619C1.74391 15.5708 1.95565 15.7394 2.19657 15.8553C2.43749 15.9712 2.70141 16.0313 2.96875 16.0313ZM19 5.34382C19.1174 5.34382 19.2322 5.37864 19.3299 5.44388C19.4275 5.50912 19.5036 5.60185 19.5486 5.71035C19.5935 5.81884 19.6053 5.93822 19.5823 6.0534C19.5594 6.16858 19.5029 6.27437 19.4198 6.35741C19.3368 6.44045 19.231 6.497 19.1158 6.51991C19.0007 6.54282 18.8813 6.53106 18.7728 6.48612C18.6643 6.44118 18.5716 6.36508 18.5063 6.26744C18.4411 6.16979 18.4063 6.055 18.4063 5.93757C18.4064 5.78015 18.469 5.62923 18.5804 5.51792C18.6917 5.40661 18.8426 5.344 19 5.34382ZM13.0625 9.50006C13.1799 9.50006 13.2947 9.53489 13.3924 9.60013C13.49 9.66537 13.5661 9.7581 13.6111 9.8666C13.656 9.97509 13.6678 10.0945 13.6448 10.2096C13.6219 10.3248 13.5654 10.4306 13.4823 10.5137C13.3993 10.5967 13.2935 10.6532 13.1783 10.6762C13.0632 10.6991 12.9438 10.6873 12.8353 10.6424C12.7268 10.5974 12.6341 10.5213 12.5688 10.4237C12.5036 10.326 12.4688 10.2112 12.4688 10.0938C12.4689 9.9364 12.5315 9.78548 12.6429 9.67417C12.7542 9.56286 12.9051 9.50024 13.0625 9.50006ZM7.125 9.50006C7.24243 9.50006 7.35723 9.53489 7.45487 9.60013C7.55251 9.66537 7.62862 9.7581 7.67355 9.8666C7.71849 9.97509 7.73025 10.0945 7.70734 10.2096C7.68443 10.3248 7.62788 10.4306 7.54485 10.5137C7.46181 10.5967 7.35601 10.6532 7.24084 10.6762C7.12566 10.6991 7.00628 10.6873 6.89778 10.6424C6.78929 10.5974 6.69656 10.5213 6.63132 10.4237C6.56607 10.326 6.53125 10.2112 6.53125 10.0938C6.53143 9.9364 6.59404 9.78548 6.70536 9.67417C6.81667 9.56286 6.96758 9.50024 7.125 9.50006ZM2.96875 13.6563C3.08618 13.6563 3.20098 13.6911 3.29862 13.7564C3.39626 13.8216 3.47236 13.9144 3.5173 14.0228C3.56224 14.1313 3.574 14.2507 3.55109 14.3659C3.52818 14.4811 3.47163 14.5869 3.38859 14.6699C3.30556 14.7529 3.19976 14.8095 3.08458 14.8324C2.96941 14.8553 2.85003 14.8436 2.74153 14.7986C2.63304 14.7537 2.54031 14.6776 2.47506 14.5799C2.40982 14.4823 2.375 14.3675 2.375 14.2501C2.37518 14.0926 2.43779 13.9417 2.5491 13.8304C2.66041 13.7191 2.81133 13.6565 2.96875 13.6563Z" fill="#0E59F2"/>
<path d="M24.4599 15.0753L20.5353 19H15.3354C15.1953 18.6038 14.9197 18.2699 14.5573 18.0573C14.1948 17.8447 13.7689 17.7671 13.3548 17.8381C12.9406 17.9092 12.5649 18.1244 12.2941 18.4456C12.0233 18.7669 11.8747 19.1735 11.8747 19.5937C11.8747 20.0139 12.0233 20.4206 12.2941 20.7418C12.5649 21.0631 12.9406 21.2783 13.3548 21.3493C13.7689 21.4204 14.1948 21.3427 14.5573 21.1301C14.9197 20.9175 15.1953 20.5836 15.3354 20.1875H16.625V30.875H17.8125V20.1875H20.7812C20.9387 20.1875 21.0898 20.1249 21.2011 20.0136L25.4863 15.7283C27.253 16.666 29.314 16.8833 31.2373 16.3348C33.1607 15.7864 34.7971 14.5146 35.8035 12.7862C36.8098 11.0578 37.1081 9.00698 36.6357 7.06353C36.1632 5.12009 34.9568 3.43497 33.2694 2.36141C31.5819 1.28785 29.5443 0.909191 27.5838 1.30482C25.6233 1.70045 23.892 2.83964 22.7529 4.4836C21.6138 6.12756 21.1554 8.14865 21.4736 10.1232C21.7918 12.0978 22.862 13.8725 24.4599 15.0753L24.4599 15.0753ZM13.6562 20.1875C13.5388 20.1875 13.424 20.1527 13.3264 20.0874C13.2287 20.0222 13.1526 19.9294 13.1077 19.8209C13.0628 19.7124 13.051 19.5931 13.0739 19.4779C13.0968 19.3627 13.1534 19.2569 13.2364 19.1739C13.3194 19.0908 13.4252 19.0343 13.5404 19.0114C13.6556 18.9885 13.775 19.0002 13.8835 19.0452C13.992 19.0901 14.0847 19.1662 14.1499 19.2639C14.2152 19.3615 14.25 19.4763 14.25 19.5937C14.2498 19.7511 14.1872 19.9021 14.0759 20.0134C13.9646 20.1247 13.8137 20.1873 13.6562 20.1875ZM33.8564 13.3705L30.4159 9.49997H35.5977C35.466 10.9484 34.8529 12.3111 33.8564 13.3705ZM35.5977 8.31247H29.6875V2.40225C31.2074 2.54313 32.6302 3.21107 33.7095 4.29042C34.7889 5.36977 35.4568 6.79256 35.5977 8.31247ZM28.5 2.40225V8.90622C28.5 9.05161 28.5535 9.1919 28.6505 9.30026L28.65 9.30069L32.9693 14.1599C32.1586 14.7581 31.2205 15.1605 30.2284 15.3357C29.2363 15.511 28.2171 15.4543 27.2505 15.1701C26.284 14.886 25.3963 14.382 24.6569 13.6977C23.9176 13.0133 23.3466 12.1672 22.9886 11.2255C22.6306 10.2838 22.4954 9.272 22.5935 8.26933C22.6917 7.26666 23.0204 6.30029 23.5542 5.44583C24.0879 4.59137 24.8121 3.87199 25.6701 3.34398C26.5281 2.81598 27.4967 2.49366 28.5 2.40225Z" fill="#0E59F2"/>
</svg>
